<svg xmlns="http://www.w3.org/2000/svg" viewBox="0 0 1200 800" width="1200" height="800" >
<defs><radialGradient id="bg" cx="50%" cy="50%" r="65%">
        <stop offset="0%" stop-color="#3a0e1c"/>
        <stop offset="100%" stop-color="#0a0510"/>
    </radialGradient></defs>
<rect width="1200" height="800" fill="url(#bg)"/>
<line x1="0" y1="0" x2="0" y2="800" stroke="#2a0e18" stroke-width="1" opacity="0.3"/><line x1="50" y1="0" x2="50" y2="800" stroke="#2a0e18" stroke-width="1" opacity="0.3"/><line x1="100" y1="0" x2="100" y2="800" stroke="#2a0e18" stroke-width="1" opacity="0.3"/><line x1="150" y1="0" x2="150" y2="800" stroke="#2a0e18" stroke-width="1" opacity="0.3"/><line x1="200" y1="0" x2="200" y2="800" stroke="#2a0e18" stroke-width="1" opacity="0.3"/><line x1="250" y1="0" x2="250" y2="800" stroke="#2a0e18" stroke-width="1" opacity="0.3"/><line x1="300" y1="0" x2="300" y2="800" stroke="#2a0e18" stroke-width="1" opacity="0.3"/><line x1="350" y1="0" x2="350" y2="800" stroke="#2a0e18" stroke-width="1" opacity="0.3"/><line x1="400" y1="0" x2="400" y2="800" stroke="#2a0e18" stroke-width="1" opacity="0.3"/><line x1="450" y1="0" x2="450" y2="800" stroke="#2a0e18" stroke-width="1" opacity="0.3"/><line x1="500" y1="0" x2="500" y2="800" stroke="#2a0e18" stroke-width="1" opacity="0.3"/><line x1="550" y1="0" x2="550" y2="800" stroke="#2a0e18" stroke-width="1" opacity="0.3"/><line x1="600" y1="0" x2="600" y2="800" stroke="#2a0e18" stroke-width="1" opacity="0.3"/><line x1="650" y1="0" x2="650" y2="800" stroke="#2a0e18" stroke-width="1" opacity="0.3"/><line x1="700" y1="0" x2="700" y2="800" stroke="#2a0e18" stroke-width="1" opacity="0.3"/><line x1="750" y1="0" x2="750" y2="800" stroke="#2a0e18" stroke-width="1" opacity="0.3"/><line x1="800" y1="0" x2="800" y2="800" stroke="#2a0e18" stroke-width="1" opacity="0.3"/><line x1="850" y1="0" x2="850" y2="800" stroke="#2a0e18" stroke-width="1" opacity="0.3"/><line x1="900" y1="0" x2="900" y2="800" stroke="#2a0e18" stroke-width="1" opacity="0.3"/><line x1="950" y1="0" x2="950" y2="800" stroke="#2a0e18" stroke-width="1" opacity="0.3"/><line x1="1000" y1="0" x2="1000" y2="800" stroke="#2a0e18" stroke-width="1" opacity="0.3"/><line x1="1050" y1="0" x2="1050" y2="800" stroke="#2a0e18" stroke-width="1" opacity="0.3"/><line x1="1100" y1="0" x2="1100" y2="800" stroke="#2a0e18" stroke-width="1" opacity="0.3"/><line x1="1150" y1="0" x2="1150" y2="800" stroke="#2a0e18" stroke-width="1" opacity="0.3"/><line x1="1200" y1="0" x2="1200" y2="800" stroke="#2a0e18" stroke-width="1" opacity="0.3"/><line x1="0" y1="0" x2="1200" y2="0" stroke="#2a0e18" stroke-width="1" opacity="0.3"/><line x1="0" y1="50" x2="1200" y2="50" stroke="#2a0e18" stroke-width="1" opacity="0.3"/><line x1="0" y1="100" x2="1200" y2="100" stroke="#2a0e18" stroke-width="1" opacity="0.3"/><line x1="0" y1="150" x2="1200" y2="150" stroke="#2a0e18" stroke-width="1" opacity="0.3"/><line x1="0" y1="200" x2="1200" y2="200" stroke="#2a0e18" stroke-width="1" opacity="0.3"/><line x1="0" y1="250" x2="1200" y2="250" stroke="#2a0e18" stroke-width="1" opacity="0.3"/><line x1="0" y1="300" x2="1200" y2="300" stroke="#2a0e18" stroke-width="1" opacity="0.3"/><line x1="0" y1="350" x2="1200" y2="350" stroke="#2a0e18" stroke-width="1" opacity="0.3"/><line x1="0" y1="400" x2="1200" y2="400" stroke="#2a0e18" stroke-width="1" opacity="0.3"/><line x1="0" y1="450" x2="1200" y2="450" stroke="#2a0e18" stroke-width="1" opacity="0.3"/><line x1="0" y1="500" x2="1200" y2="500" stroke="#2a0e18" stroke-width="1" opacity="0.3"/><line x1="0" y1="550" x2="1200" y2="550" stroke="#2a0e18" stroke-width="1" opacity="0.3"/><line x1="0" y1="600" x2="1200" y2="600" stroke="#2a0e18" stroke-width="1" opacity="0.3"/><line x1="0" y1="650" x2="1200" y2="650" stroke="#2a0e18" stroke-width="1" opacity="0.3"/><line x1="0" y1="700" x2="1200" y2="700" stroke="#2a0e18" stroke-width="1" opacity="0.3"/><line x1="0" y1="750" x2="1200" y2="750" stroke="#2a0e18" stroke-width="1" opacity="0.3"/><line x1="0" y1="800" x2="1200" y2="800" stroke="#2a0e18" stroke-width="1" opacity="0.3"/>
<rect width="1200" height="800" fill="rgba(0,0,0,0.5)"/>
<text x="600" y="200" text-anchor="middle" font-family="Impact, sans-serif" font-size="100" fill="#ff4444" letter-spacing="6">YOU DIED</text>
<rect x="380" y="260" width="440" height="280" rx="12" fill="#1d2a4a" stroke="#3a5dbb"/>

                <text x="400" y="310" font-family="sans-serif" font-size="20" fill="#7d9aff">Survived</text>
                <text x="800" y="310" text-anchor="end" font-family="monospace" font-size="22" fill="#cfeaff">08:42</text>

                <text x="400" y="366" font-family="sans-serif" font-size="20" fill="#7d9aff">Kills</text>
                <text x="800" y="366" text-anchor="end" font-family="monospace" font-size="22" fill="#cfeaff">1,284</text>

                <text x="400" y="422" font-family="sans-serif" font-size="20" fill="#7d9aff">Level</text>
                <text x="800" y="422" text-anchor="end" font-family="monospace" font-size="22" fill="#cfeaff">23</text>

                <text x="400" y="478" font-family="sans-serif" font-size="20" fill="#7d9aff">Best build</text>
                <text x="800" y="478" text-anchor="end" font-family="monospace" font-size="22" fill="#cfeaff">Whip · Orbit · Frost Nova</text>
<text x="600" y="540" text-anchor="middle" font-family="monospace" font-size="14" fill="#7df4d3">★ NO-HIT RUN — Achievement unlocked</text>
<rect x="420" y="600" width="160" height="50" rx="10" fill="#3a5dbb"/>
<text x="500" y="632" text-anchor="middle" font-family="sans-serif" font-size="20" fill="#cfeaff">Retry</text>
<rect x="620" y="600" width="160" height="50" rx="10" fill="#1d2a4a" stroke="#3a5dbb"/>
<text x="700" y="632" text-anchor="middle" font-family="sans-serif" font-size="20" fill="#cfeaff">Main Menu</text>
</svg>