<svg xmlns="http://www.w3.org/2000/svg" viewBox="0 0 1200 800" width="1200" height="800" >
<defs>
        <radialGradient id="bgCool" cx="50%" cy="50%" r="70%">
            <stop offset="0%" stop-color="#1a2344"/>
            <stop offset="100%" stop-color="#05070f"/>
        </radialGradient>
        <radialGradient id="bgWarm" cx="50%" cy="50%" r="70%">
            <stop offset="0%" stop-color="#3a0e1c"/>
            <stop offset="100%" stop-color="#0a0510"/>
        </radialGradient>
        <radialGradient id="heroGlow" cx="50%" cy="50%" r="50%">
            <stop offset="0%" stop-color="#9cd6ff" stop-opacity="0.7"/>
            <stop offset="60%" stop-color="#44aaff" stop-opacity="0.25"/>
            <stop offset="100%" stop-color="#44aaff" stop-opacity="0"/>
        </radialGradient>
        <radialGradient id="frostRing" cx="50%" cy="50%" r="50%">
            <stop offset="0%" stop-color="#aefbff" stop-opacity="0"/>
            <stop offset="78%" stop-color="#aefbff" stop-opacity="0.9"/>
            <stop offset="100%" stop-color="#aefbff" stop-opacity="0"/>
        </radialGradient>
        <linearGradient id="hpGrad" x1="0" x2="1">
            <stop offset="0%" stop-color="#ff7d9c"/>
            <stop offset="100%" stop-color="#ff3355"/>
        </linearGradient>
        <linearGradient id="expGrad" x1="0" x2="1">
            <stop offset="0%" stop-color="#7df4d3"/>
            <stop offset="100%" stop-color="#3ad0aa"/>
        </linearGradient>
        <filter id="soft" x="-20%" y="-20%" width="140%" height="140%">
            <feGaussianBlur stdDeviation="2.2"/>
        </filter>
        
    </defs>
<rect width="1200" height="800" fill="url(#bgCool)"/>
<line x1="0" y1="0" x2="0" y2="800" stroke="#1b2235" stroke-width="1" opacity="0.35"/><line x1="50" y1="0" x2="50" y2="800" stroke="#1b2235" stroke-width="1" opacity="0.35"/><line x1="100" y1="0" x2="100" y2="800" stroke="#1b2235" stroke-width="1" opacity="0.35"/><line x1="150" y1="0" x2="150" y2="800" stroke="#1b2235" stroke-width="1" opacity="0.35"/><line x1="200" y1="0" x2="200" y2="800" stroke="#1b2235" stroke-width="1" opacity="0.35"/><line x1="250" y1="0" x2="250" y2="800" stroke="#1b2235" stroke-width="1" opacity="0.35"/><line x1="300" y1="0" x2="300" y2="800" stroke="#1b2235" stroke-width="1" opacity="0.35"/><line x1="350" y1="0" x2="350" y2="800" stroke="#1b2235" stroke-width="1" opacity="0.35"/><line x1="400" y1="0" x2="400" y2="800" stroke="#1b2235" stroke-width="1" opacity="0.35"/><line x1="450" y1="0" x2="450" y2="800" stroke="#1b2235" stroke-width="1" opacity="0.35"/><line x1="500" y1="0" x2="500" y2="800" stroke="#1b2235" stroke-width="1" opacity="0.35"/><line x1="550" y1="0" x2="550" y2="800" stroke="#1b2235" stroke-width="1" opacity="0.35"/><line x1="600" y1="0" x2="600" y2="800" stroke="#1b2235" stroke-width="1" opacity="0.35"/><line x1="650" y1="0" x2="650" y2="800" stroke="#1b2235" stroke-width="1" opacity="0.35"/><line x1="700" y1="0" x2="700" y2="800" stroke="#1b2235" stroke-width="1" opacity="0.35"/><line x1="750" y1="0" x2="750" y2="800" stroke="#1b2235" stroke-width="1" opacity="0.35"/><line x1="800" y1="0" x2="800" y2="800" stroke="#1b2235" stroke-width="1" opacity="0.35"/><line x1="850" y1="0" x2="850" y2="800" stroke="#1b2235" stroke-width="1" opacity="0.35"/><line x1="900" y1="0" x2="900" y2="800" stroke="#1b2235" stroke-width="1" opacity="0.35"/><line x1="950" y1="0" x2="950" y2="800" stroke="#1b2235" stroke-width="1" opacity="0.35"/><line x1="1000" y1="0" x2="1000" y2="800" stroke="#1b2235" stroke-width="1" opacity="0.35"/><line x1="1050" y1="0" x2="1050" y2="800" stroke="#1b2235" stroke-width="1" opacity="0.35"/><line x1="1100" y1="0" x2="1100" y2="800" stroke="#1b2235" stroke-width="1" opacity="0.35"/><line x1="1150" y1="0" x2="1150" y2="800" stroke="#1b2235" stroke-width="1" opacity="0.35"/><line x1="1200" y1="0" x2="1200" y2="800" stroke="#1b2235" stroke-width="1" opacity="0.35"/><line x1="0" y1="0" x2="1200" y2="0" stroke="#1b2235" stroke-width="1" opacity="0.35"/><line x1="0" y1="50" x2="1200" y2="50" stroke="#1b2235" stroke-width="1" opacity="0.35"/><line x1="0" y1="100" x2="1200" y2="100" stroke="#1b2235" stroke-width="1" opacity="0.35"/><line x1="0" y1="150" x2="1200" y2="150" stroke="#1b2235" stroke-width="1" opacity="0.35"/><line x1="0" y1="200" x2="1200" y2="200" stroke="#1b2235" stroke-width="1" opacity="0.35"/><line x1="0" y1="250" x2="1200" y2="250" stroke="#1b2235" stroke-width="1" opacity="0.35"/><line x1="0" y1="300" x2="1200" y2="300" stroke="#1b2235" stroke-width="1" opacity="0.35"/><line x1="0" y1="350" x2="1200" y2="350" stroke="#1b2235" stroke-width="1" opacity="0.35"/><line x1="0" y1="400" x2="1200" y2="400" stroke="#1b2235" stroke-width="1" opacity="0.35"/><line x1="0" y1="450" x2="1200" y2="450" stroke="#1b2235" stroke-width="1" opacity="0.35"/><line x1="0" y1="500" x2="1200" y2="500" stroke="#1b2235" stroke-width="1" opacity="0.35"/><line x1="0" y1="550" x2="1200" y2="550" stroke="#1b2235" stroke-width="1" opacity="0.35"/><line x1="0" y1="600" x2="1200" y2="600" stroke="#1b2235" stroke-width="1" opacity="0.35"/><line x1="0" y1="650" x2="1200" y2="650" stroke="#1b2235" stroke-width="1" opacity="0.35"/><line x1="0" y1="700" x2="1200" y2="700" stroke="#1b2235" stroke-width="1" opacity="0.35"/><line x1="0" y1="750" x2="1200" y2="750" stroke="#1b2235" stroke-width="1" opacity="0.35"/><line x1="0" y1="800" x2="1200" y2="800" stroke="#1b2235" stroke-width="1" opacity="0.35"/>
<circle cx="952.9" cy="459.4" r="8" fill="#aa3344"/><circle cx="950.1" cy="456.6" r="2.8" fill="rgba(255,255,255,0.3)"/><circle cx="876.6" cy="80.5" r="9" fill="#ff6688"/><circle cx="873.5" cy="77.4" r="3.1" fill="rgba(255,255,255,0.3)"/><circle cx="836.3" cy="571.2" r="11" fill="#aa3344"/><circle cx="832.4" cy="567.3" r="3.8" fill="rgba(255,255,255,0.3)"/><circle cx="785.6" cy="416.7" r="8" fill="#ff6688"/><circle cx="782.8" cy="413.9" r="2.8" fill="rgba(255,255,255,0.3)"/><circle cx="783.4" cy="395.1" r="10" fill="#ff6688"/><circle cx="779.9" cy="391.6" r="3.5" fill="rgba(255,255,255,0.3)"/><circle cx="853.6" cy="158.5" r="10" fill="#aa3344"/><circle cx="850.1" cy="155.0" r="3.5" fill="rgba(255,255,255,0.3)"/><circle cx="1020.1" cy="676.9" r="9" fill="#cc5577"/><circle cx="1017.0" cy="673.7" r="3.1" fill="rgba(255,255,255,0.3)"/><circle cx="688.8" cy="596.5" r="12" fill="#ff4444"/><circle cx="684.6" cy="592.3" r="4.2" fill="rgba(255,255,255,0.3)"/><circle cx="632.6" cy="217.0" r="11" fill="#ff6688"/><circle cx="628.8" cy="213.2" r="3.8" fill="rgba(255,255,255,0.3)"/><circle cx="819.2" cy="523.7" r="8" fill="#ff6688"/><circle cx="816.4" cy="520.9" r="2.8" fill="rgba(255,255,255,0.3)"/><circle cx="1126.4" cy="422.8" r="9" fill="#aa3344"/><circle cx="1123.2" cy="419.7" r="3.1" fill="rgba(255,255,255,0.3)"/><circle cx="941.6" cy="99.9" r="12" fill="#aa3344"/><circle cx="937.4" cy="95.7" r="4.2" fill="rgba(255,255,255,0.3)"/><circle cx="756.3" cy="239.9" r="11" fill="#ff6688"/><circle cx="752.5" cy="236.1" r="3.8" fill="rgba(255,255,255,0.3)"/><circle cx="663.7" cy="644.5" r="9" fill="#cc5577"/><circle cx="660.6" cy="641.4" r="3.1" fill="rgba(255,255,255,0.3)"/><circle cx="1097.7" cy="532.7" r="9" fill="#ff4444"/><circle cx="1094.6" cy="529.5" r="3.1" fill="rgba(255,255,255,0.3)"/><circle cx="767.2" cy="671.9" r="11" fill="#ff6688"/><circle cx="763.4" cy="668.0" r="3.8" fill="rgba(255,255,255,0.3)"/><circle cx="713.9" cy="633.9" r="8" fill="#ff4444"/><circle cx="711.1" cy="631.1" r="2.8" fill="rgba(255,255,255,0.3)"/><circle cx="992.4" cy="606.4" r="9" fill="#ff4444"/><circle cx="989.3" cy="603.2" r="3.1" fill="rgba(255,255,255,0.3)"/><circle cx="687.0" cy="166.4" r="9" fill="#cc5577"/><circle cx="683.8" cy="163.3" r="3.1" fill="rgba(255,255,255,0.3)"/><circle cx="1001.5" cy="219.6" r="12" fill="#cc5577"/><circle cx="997.3" cy="215.4" r="4.2" fill="rgba(255,255,255,0.3)"/><circle cx="1007.0" cy="331.3" r="9" fill="#cc5577"/><circle cx="1003.8" cy="328.1" r="3.1" fill="rgba(255,255,255,0.3)"/><circle cx="816.0" cy="180.2" r="8" fill="#aa3344"/><circle cx="813.2" cy="177.4" r="2.8" fill="rgba(255,255,255,0.3)"/><circle cx="764.1" cy="237.4" r="10" fill="#ff4444"/><circle cx="760.6" cy="233.9" r="3.5" fill="rgba(255,255,255,0.3)"/><circle cx="921.1" cy="339.0" r="12" fill="#cc5577"/><circle cx="916.9" cy="334.8" r="4.2" fill="rgba(255,255,255,0.3)"/><circle cx="757.7" cy="712.4" r="12" fill="#ff4444"/><circle cx="753.5" cy="708.2" r="4.2" fill="rgba(255,255,255,0.3)"/><circle cx="948.9" cy="212.9" r="12" fill="#ff6688"/><circle cx="944.7" cy="208.7" r="4.2" fill="rgba(255,255,255,0.3)"/><circle cx="755.8" cy="507.9" r="10" fill="#aa3344"/><circle cx="752.3" cy="504.4" r="3.5" fill="rgba(255,255,255,0.3)"/><circle cx="1090.7" cy="233.5" r="12" fill="#aa3344"/><circle cx="1086.5" cy="229.3" r="4.2" fill="rgba(255,255,255,0.3)"/><circle cx="978.4" cy="77.2" r="8" fill="#ff4444"/><circle cx="975.6" cy="74.4" r="2.8" fill="rgba(255,255,255,0.3)"/><circle cx="1043.8" cy="545.3" r="10" fill="#aa3344"/><circle cx="1040.3" cy="541.8" r="3.5" fill="rgba(255,255,255,0.3)"/><circle cx="676.4" cy="119.8" r="9" fill="#cc5577"/><circle cx="673.2" cy="116.6" r="3.1" fill="rgba(255,255,255,0.3)"/><circle cx="1057.3" cy="432.3" r="8" fill="#aa3344"/><circle cx="1054.5" cy="429.5" r="2.8" fill="rgba(255,255,255,0.3)"/><circle cx="946.1" cy="364.0" r="10" fill="#cc5577"/><circle cx="942.6" cy="360.5" r="3.5" fill="rgba(255,255,255,0.3)"/><circle cx="771.0" cy="232.4" r="10" fill="#aa3344"/><circle cx="767.5" cy="228.9" r="3.5" fill="rgba(255,255,255,0.3)"/><circle cx="922.8" cy="494.3" r="8" fill="#ff6688"/><circle cx="920.0" cy="491.5" r="2.8" fill="rgba(255,255,255,0.3)"/><circle cx="1086.4" cy="391.7" r="8" fill="#ff4444"/><circle cx="1083.6" cy="388.9" r="2.8" fill="rgba(255,255,255,0.3)"/><circle cx="611.9" cy="123.6" r="10" fill="#ff6688"/><circle cx="608.4" cy="120.1" r="3.5" fill="rgba(255,255,255,0.3)"/><circle cx="567.8" cy="66.2" r="12" fill="#aa3344"/><circle cx="563.6" cy="62.0" r="4.2" fill="rgba(255,255,255,0.3)"/><circle cx="1113.0" cy="353.4" r="10" fill="#ff6688"/><circle cx="1109.5" cy="349.9" r="3.5" fill="rgba(255,255,255,0.3)"/><circle cx="874.6" cy="150.9" r="11" fill="#aa3344"/><circle cx="870.8" cy="147.1" r="3.8" fill="rgba(255,255,255,0.3)"/><circle cx="1157.1" cy="398.5" r="9" fill="#aa3344"/><circle cx="1153.9" cy="395.3" r="3.1" fill="rgba(255,255,255,0.3)"/><circle cx="1071.8" cy="591.7" r="9" fill="#ff6688"/><circle cx="1068.7" cy="588.5" r="3.1" fill="rgba(255,255,255,0.3)"/><circle cx="881.6" cy="278.0" r="11" fill="#ff6688"/><circle cx="877.8" cy="274.1" r="3.8" fill="rgba(255,255,255,0.3)"/><circle cx="810.0" cy="511.3" r="10" fill="#cc5577"/><circle cx="806.5" cy="507.8" r="3.5" fill="rgba(255,255,255,0.3)"/><circle cx="1062.7" cy="523.0" r="8" fill="#ff6688"/><circle cx="1059.9" cy="520.2" r="2.8" fill="rgba(255,255,255,0.3)"/><circle cx="1116.5" cy="317.0" r="10" fill="#aa3344"/><circle cx="1113.0" cy="313.5" r="3.5" fill="rgba(255,255,255,0.3)"/><circle cx="916.8" cy="582.4" r="8" fill="#ff4444"/><circle cx="914.0" cy="579.6" r="2.8" fill="rgba(255,255,255,0.3)"/><circle cx="1028.9" cy="145.7" r="8" fill="#ff4444"/><circle cx="1026.1" cy="142.9" r="2.8" fill="rgba(255,255,255,0.3)"/><circle cx="880.0" cy="63.7" r="11" fill="#ff6688"/><circle cx="876.1" cy="59.9" r="3.8" fill="rgba(255,255,255,0.3)"/><circle cx="743.5" cy="674.3" r="9" fill="#cc5577"/><circle cx="740.3" cy="671.2" r="3.1" fill="rgba(255,255,255,0.3)"/><circle cx="788.0" cy="190.5" r="10" fill="#aa3344"/><circle cx="784.5" cy="187.0" r="3.5" fill="rgba(255,255,255,0.3)"/><circle cx="632.7" cy="198.9" r="9" fill="#ff4444"/><circle cx="629.5" cy="195.7" r="3.1" fill="rgba(255,255,255,0.3)"/><circle cx="787.6" cy="464.9" r="9" fill="#ff4444"/><circle cx="784.5" cy="461.7" r="3.1" fill="rgba(255,255,255,0.3)"/><circle cx="867.5" cy="642.4" r="11" fill="#cc5577"/><circle cx="863.6" cy="638.5" r="3.8" fill="rgba(255,255,255,0.3)"/><circle cx="691.4" cy="186.2" r="9" fill="#ff6688"/><circle cx="688.2" cy="183.1" r="3.1" fill="rgba(255,255,255,0.3)"/><circle cx="734.0" cy="211.3" r="10" fill="#ff4444"/><circle cx="730.5" cy="207.8" r="3.5" fill="rgba(255,255,255,0.3)"/><circle cx="949.0" cy="103.8" r="12" fill="#cc5577"/><circle cx="944.8" cy="99.6" r="4.2" fill="rgba(255,255,255,0.3)"/><circle cx="716.7" cy="583.4" r="9" fill="#cc5577"/><circle cx="713.6" cy="580.2" r="3.1" fill="rgba(255,255,255,0.3)"/><circle cx="1011.7" cy="349.7" r="8" fill="#ff6688"/><circle cx="1008.9" cy="346.9" r="2.8" fill="rgba(255,255,255,0.3)"/><circle cx="793.3" cy="640.0" r="11" fill="#cc5577"/><circle cx="789.4" cy="636.1" r="3.8" fill="rgba(255,255,255,0.3)"/><circle cx="870.1" cy="334.9" r="12" fill="#cc5577"/><circle cx="865.9" cy="330.7" r="4.2" fill="rgba(255,255,255,0.3)"/><circle cx="855.0" cy="286.2" r="11" fill="#ff4444"/><circle cx="851.2" cy="282.3" r="3.8" fill="rgba(255,255,255,0.3)"/><circle cx="957.2" cy="359.1" r="8" fill="#aa3344"/><circle cx="954.4" cy="356.3" r="2.8" fill="rgba(255,255,255,0.3)"/><circle cx="1050.1" cy="682.4" r="12" fill="#cc5577"/><circle cx="1045.9" cy="678.2" r="4.2" fill="rgba(255,255,255,0.3)"/><circle cx="1043.6" cy="285.9" r="10" fill="#ff6688"/><circle cx="1040.1" cy="282.4" r="3.5" fill="rgba(255,255,255,0.3)"/><circle cx="818.2" cy="689.5" r="8" fill="#aa3344"/><circle cx="815.4" cy="686.7" r="2.8" fill="rgba(255,255,255,0.3)"/><circle cx="1031.6" cy="315.6" r="12" fill="#aa3344"/><circle cx="1027.4" cy="311.4" r="4.2" fill="rgba(255,255,255,0.3)"/><circle cx="634.3" cy="597.6" r="11" fill="#ff6688"/><circle cx="630.4" cy="593.8" r="3.8" fill="rgba(255,255,255,0.3)"/><circle cx="981.5" cy="87.3" r="11" fill="#cc5577"/><circle cx="977.7" cy="83.4" r="3.8" fill="rgba(255,255,255,0.3)"/><circle cx="710.0" cy="86.5" r="8" fill="#ff4444"/><circle cx="707.2" cy="83.7" r="2.8" fill="rgba(255,255,255,0.3)"/><circle cx="917.0" cy="480.7" r="10" fill="#ff6688"/><circle cx="913.5" cy="477.2" r="3.5" fill="rgba(255,255,255,0.3)"/><circle cx="757.8" cy="511.9" r="9" fill="#aa3344"/><circle cx="754.6" cy="508.7" r="3.1" fill="rgba(255,255,255,0.3)"/><circle cx="889.3" cy="476.2" r="12" fill="#ff4444"/><circle cx="885.1" cy="472.0" r="4.2" fill="rgba(255,255,255,0.3)"/><circle cx="809.2" cy="435.0" r="10" fill="#aa3344"/><circle cx="805.7" cy="431.5" r="3.5" fill="rgba(255,255,255,0.3)"/><circle cx="807.6" cy="650.0" r="12" fill="#ff4444"/><circle cx="803.4" cy="645.8" r="4.2" fill="rgba(255,255,255,0.3)"/><circle cx="1013.9" cy="578.5" r="11" fill="#ff6688"/><circle cx="1010.0" cy="574.7" r="3.8" fill="rgba(255,255,255,0.3)"/><circle cx="729.4" cy="507.4" r="12" fill="#ff4444"/><circle cx="725.2" cy="503.2" r="4.2" fill="rgba(255,255,255,0.3)"/><circle cx="772.5" cy="453.7" r="9" fill="#ff4444"/><circle cx="769.3" cy="450.5" r="3.1" fill="rgba(255,255,255,0.3)"/><circle cx="943.0" cy="646.0" r="10" fill="#ff6688"/><circle cx="939.5" cy="642.5" r="3.5" fill="rgba(255,255,255,0.3)"/><path d="M 620 394 q 90 -50 200 10" stroke="#ffe066" stroke-width="8" fill="none" stroke-linecap="round" opacity="0.92"/><path d="M 620 394 q 90 -50 200 10" stroke="#fff6c4" stroke-width="3" fill="none" stroke-linecap="round" opacity="0.95"/><circle cx="704.6" cy="366.0" r="6" fill="#c080ff"/><circle cx="691.3" cy="370.3" r="3" fill="#c080ff" opacity="0.5"/><circle cx="738.3" cy="421.9" r="6" fill="#c080ff"/><circle cx="724.4" cy="419.7" r="3" fill="#c080ff" opacity="0.5"/><circle cx="737.5" cy="499.9" r="6" fill="#c080ff"/><circle cx="726.2" cy="491.7" r="3" fill="#c080ff" opacity="0.5"/><circle cx="690.8" cy="578.2" r="6" fill="#c080ff"/><circle cx="684.4" cy="565.7" r="3" fill="#c080ff" opacity="0.5"/><circle cx="600.0" cy="630.0" r="6" fill="#c080ff"/><circle cx="600.0" cy="616.0" r="3" fill="#c080ff" opacity="0.5"/><circle cx="482.0" cy="631.7" r="6" fill="#c080ff"/><circle cx="488.3" cy="619.2" r="3" fill="#c080ff" opacity="0.5"/><circle cx="668.8" cy="421.3" r="7" fill="#88ddff"/><circle cx="668.8" cy="421.3" r="3" fill="#ffffff"/><circle cx="601.0" cy="472.0" r="7" fill="#88ddff"/><circle cx="601.0" cy="472.0" r="3" fill="#ffffff"/><circle cx="531.8" cy="423.2" r="7" fill="#88ddff"/><circle cx="531.8" cy="423.2" r="3" fill="#ffffff"/><circle cx="556.9" cy="342.4" r="7" fill="#88ddff"/><circle cx="556.9" cy="342.4" r="3" fill="#ffffff"/><circle cx="641.5" cy="341.2" r="7" fill="#88ddff"/><circle cx="641.5" cy="341.2" r="3" fill="#ffffff"/><line x1="474.6843150293856" y1="331.06812071247384" x2="483.0" y2="332.6" stroke="#ffe066" stroke-width="1.5" opacity="0.8"/><line x1="474.6843150293856" y1="331.06812071247384" x2="473.4" y2="338.1" stroke="#ffe066" stroke-width="1.5" opacity="0.8"/><line x1="474.6843150293856" y1="331.06812071247384" x2="464.4" y2="330.7" stroke="#ffe066" stroke-width="1.5" opacity="0.8"/><line x1="474.6843150293856" y1="331.06812071247384" x2="476.4" y2="323.6" stroke="#ffe066" stroke-width="1.5" opacity="0.8"/><line x1="820.3422041183159" y1="284.75062627096025" x2="829.8" y2="286.0" stroke="#ffe066" stroke-width="1.5" opacity="0.8"/><line x1="820.3422041183159" y1="284.75062627096025" x2="819.3" y2="294.7" stroke="#ffe066" stroke-width="1.5" opacity="0.8"/><line x1="820.3422041183159" y1="284.75062627096025" x2="809.5" y2="281.5" stroke="#ffe066" stroke-width="1.5" opacity="0.8"/><line x1="820.3422041183159" y1="284.75062627096025" x2="822.0" y2="276.9" stroke="#ffe066" stroke-width="1.5" opacity="0.8"/><line x1="736.0956635167856" y1="312.6872823260652" x2="743.2" y2="314.7" stroke="#ffe066" stroke-width="1.5" opacity="0.8"/><line x1="736.0956635167856" y1="312.6872823260652" x2="735.7" y2="320.6" stroke="#ffe066" stroke-width="1.5" opacity="0.8"/><line x1="736.0956635167856" y1="312.6872823260652" x2="727.5" y2="310.1" stroke="#ffe066" stroke-width="1.5" opacity="0.8"/><line x1="736.0956635167856" y1="312.6872823260652" x2="737.9" y2="306.8" stroke="#ffe066" stroke-width="1.5" opacity="0.8"/><line x1="495.4429065982802" y1="252.62451285648217" x2="502.6" y2="254.8" stroke="#ffe066" stroke-width="1.5" opacity="0.8"/><line x1="495.4429065982802" y1="252.62451285648217" x2="493.4" y2="259.7" stroke="#ffe066" stroke-width="1.5" opacity="0.8"/><line x1="495.4429065982802" y1="252.62451285648217" x2="487.9" y2="250.4" stroke="#ffe066" stroke-width="1.5" opacity="0.8"/><line x1="495.4429065982802" y1="252.62451285648217" x2="496.7" y2="244.4" stroke="#ffe066" stroke-width="1.5" opacity="0.8"/><line x1="624.278950824281" y1="515.0159219825646" x2="633.7" y2="517.7" stroke="#ffe066" stroke-width="1.5" opacity="0.8"/><line x1="624.278950824281" y1="515.0159219825646" x2="623.4" y2="524.0" stroke="#ffe066" stroke-width="1.5" opacity="0.8"/><line x1="624.278950824281" y1="515.0159219825646" x2="615.7" y2="514.1" stroke="#ffe066" stroke-width="1.5" opacity="0.8"/><line x1="624.278950824281" y1="515.0159219825646" x2="624.8" y2="505.6" stroke="#ffe066" stroke-width="1.5" opacity="0.8"/><line x1="755.0560323715667" y1="287.0671299415241" x2="766.2" y2="288.9" stroke="#ffe066" stroke-width="1.5" opacity="0.8"/><line x1="755.0560323715667" y1="287.0671299415241" x2="753.1" y2="298.0" stroke="#ffe066" stroke-width="1.5" opacity="0.8"/><line x1="755.0560323715667" y1="287.0671299415241" x2="745.4" y2="285.8" stroke="#ffe066" stroke-width="1.5" opacity="0.8"/><line x1="755.0560323715667" y1="287.0671299415241" x2="756.4" y2="277.6" stroke="#ffe066" stroke-width="1.5" opacity="0.8"/><line x1="501.09326214869395" y1="243.50401834793277" x2="508.1" y2="244.4" stroke="#ffe066" stroke-width="1.5" opacity="0.8"/><line x1="501.09326214869395" y1="243.50401834793277" x2="501.1" y2="253.8" stroke="#ffe066" stroke-width="1.5" opacity="0.8"/><line x1="501.09326214869395" y1="243.50401834793277" x2="493.2" y2="242.6" stroke="#ffe066" stroke-width="1.5" opacity="0.8"/><line x1="501.09326214869395" y1="243.50401834793277" x2="501.1" y2="236.8" stroke="#ffe066" stroke-width="1.5" opacity="0.8"/><line x1="531.1229905441194" y1="306.382785257771" x2="539.9" y2="306.5" stroke="#ffe066" stroke-width="1.5" opacity="0.8"/><line x1="531.1229905441194" y1="306.382785257771" x2="529.7" y2="313.1" stroke="#ffe066" stroke-width="1.5" opacity="0.8"/><line x1="531.1229905441194" y1="306.382785257771" x2="524.0" y2="304.8" stroke="#ffe066" stroke-width="1.5" opacity="0.8"/><line x1="531.1229905441194" y1="306.382785257771" x2="531.9" y2="296.7" stroke="#ffe066" stroke-width="1.5" opacity="0.8"/><line x1="530.2044609364051" y1="509.66911222329844" x2="538.9" y2="511.3" stroke="#ffe066" stroke-width="1.5" opacity="0.8"/><line x1="530.2044609364051" y1="509.66911222329844" x2="528.6" y2="516.0" stroke="#ffe066" stroke-width="1.5" opacity="0.8"/><line x1="530.2044609364051" y1="509.66911222329844" x2="522.1" y2="509.2" stroke="#ffe066" stroke-width="1.5" opacity="0.8"/><line x1="530.2044609364051" y1="509.66911222329844" x2="533.1" y2="498.9" stroke="#ffe066" stroke-width="1.5" opacity="0.8"/><line x1="746.4848675998641" y1="355.2900094819414" x2="756.4" y2="355.8" stroke="#ffe066" stroke-width="1.5" opacity="0.8"/><line x1="746.4848675998641" y1="355.2900094819414" x2="744.6" y2="365.6" stroke="#ffe066" stroke-width="1.5" opacity="0.8"/><line x1="746.4848675998641" y1="355.2900094819414" x2="738.4" y2="352.9" stroke="#ffe066" stroke-width="1.5" opacity="0.8"/><line x1="746.4848675998641" y1="355.2900094819414" x2="747.3" y2="348.4" stroke="#ffe066" stroke-width="1.5" opacity="0.8"/><line x1="742.4450913278008" y1="298.9208704597566" x2="748.6" y2="299.2" stroke="#ffe066" stroke-width="1.5" opacity="0.8"/><line x1="742.4450913278008" y1="298.9208704597566" x2="740.8" y2="305.3" stroke="#ffe066" stroke-width="1.5" opacity="0.8"/><line x1="742.4450913278008" y1="298.9208704597566" x2="733.4" y2="297.5" stroke="#ffe066" stroke-width="1.5" opacity="0.8"/><line x1="742.4450913278008" y1="298.9208704597566" x2="744.6" y2="287.3" stroke="#ffe066" stroke-width="1.5" opacity="0.8"/><line x1="407.5571736213238" y1="368.4450798480279" x2="418.8" y2="370.2" stroke="#ffe066" stroke-width="1.5" opacity="0.8"/><line x1="407.5571736213238" y1="368.4450798480279" x2="405.8" y2="374.7" stroke="#ffe066" stroke-width="1.5" opacity="0.8"/><line x1="407.5571736213238" y1="368.4450798480279" x2="396.1" y2="367.7" stroke="#ffe066" stroke-width="1.5" opacity="0.8"/><line x1="407.5571736213238" y1="368.4450798480279" x2="408.7" y2="358.3" stroke="#ffe066" stroke-width="1.5" opacity="0.8"/><line x1="455.6827115762803" y1="366.60718741012494" x2="463.9" y2="367.4" stroke="#ffe066" stroke-width="1.5" opacity="0.8"/><line x1="455.6827115762803" y1="366.60718741012494" x2="454.7" y2="376.4" stroke="#ffe066" stroke-width="1.5" opacity="0.8"/><line x1="455.6827115762803" y1="366.60718741012494" x2="444.8" y2="363.7" stroke="#ffe066" stroke-width="1.5" opacity="0.8"/><line x1="455.6827115762803" y1="366.60718741012494" x2="456.4" y2="357.1" stroke="#ffe066" stroke-width="1.5" opacity="0.8"/><line x1="436.840233784298" y1="407.7033975162791" x2="446.0" y2="409.7" stroke="#ffe066" stroke-width="1.5" opacity="0.8"/><line x1="436.840233784298" y1="407.7033975162791" x2="435.4" y2="419.6" stroke="#ffe066" stroke-width="1.5" opacity="0.8"/><line x1="436.840233784298" y1="407.7033975162791" x2="428.3" y2="407.1" stroke="#ffe066" stroke-width="1.5" opacity="0.8"/><line x1="436.840233784298" y1="407.7033975162791" x2="436.9" y2="400.8" stroke="#ffe066" stroke-width="1.5" opacity="0.8"/><circle cx="663.6102743261469" cy="419.95190056304136" r="5" fill="#7df4d3"/><circle cx="663.6102743261469" cy="419.95190056304136" r="10" fill="#7df4d3" opacity="0.2"/><circle cx="489.44818605920875" cy="576.7290440475414" r="5" fill="#7df4d3"/><circle cx="489.44818605920875" cy="576.7290440475414" r="10" fill="#7df4d3" opacity="0.2"/><circle cx="462.6880707546288" cy="376.4799066550281" r="5" fill="#7df4d3"/><circle cx="462.6880707546288" cy="376.4799066550281" r="10" fill="#7df4d3" opacity="0.2"/><circle cx="411.98072133775224" cy="578.6353357342467" r="5" fill="#7df4d3"/><circle cx="411.98072133775224" cy="578.6353357342467" r="10" fill="#7df4d3" opacity="0.2"/><circle cx="579.4482242151892" cy="265.0628347266678" r="5" fill="#7df4d3"/><circle cx="579.4482242151892" cy="265.0628347266678" r="10" fill="#7df4d3" opacity="0.2"/><circle cx="481.1200821920472" cy="566.8412661376933" r="5" fill="#7df4d3"/><circle cx="481.1200821920472" cy="566.8412661376933" r="10" fill="#7df4d3" opacity="0.2"/><circle cx="556.5293719573491" cy="562.8320991335064" r="5" fill="#7df4d3"/><circle cx="556.5293719573491" cy="562.8320991335064" r="10" fill="#7df4d3" opacity="0.2"/><circle cx="594.3237931058629" cy="464.5633060976841" r="5" fill="#7df4d3"/><circle cx="594.3237931058629" cy="464.5633060976841" r="10" fill="#7df4d3" opacity="0.2"/><circle cx="668.839762383667" cy="297.9145159993491" r="5" fill="#7df4d3"/><circle cx="668.839762383667" cy="297.9145159993491" r="10" fill="#7df4d3" opacity="0.2"/><circle cx="783.4146892280673" cy="567.8492076486816" r="5" fill="#7df4d3"/><circle cx="783.4146892280673" cy="567.8492076486816" r="10" fill="#7df4d3" opacity="0.2"/><circle cx="797.8204747459156" cy="455.69935692507096" r="5" fill="#7df4d3"/><circle cx="797.8204747459156" cy="455.69935692507096" r="10" fill="#7df4d3" opacity="0.2"/><circle cx="551.5475460394861" cy="375.2719926855764" r="5" fill="#7df4d3"/><circle cx="551.5475460394861" cy="375.2719926855764" r="10" fill="#7df4d3" opacity="0.2"/><circle cx="429.97751425475803" cy="241.07661634127308" r="5" fill="#7df4d3"/><circle cx="429.97751425475803" cy="241.07661634127308" r="10" fill="#7df4d3" opacity="0.2"/><circle cx="683.3089960139386" cy="609.4419864919804" r="5" fill="#7df4d3"/><circle cx="683.3089960139386" cy="609.4419864919804" r="10" fill="#7df4d3" opacity="0.2"/><circle cx="648.261872514728" cy="649.2210637850942" r="5" fill="#7df4d3"/><circle cx="648.261872514728" cy="649.2210637850942" r="10" fill="#7df4d3" opacity="0.2"/><circle cx="474.35070553605794" cy="439.9345013994185" r="5" fill="#7df4d3"/><circle cx="474.35070553605794" cy="439.9345013994185" r="10" fill="#7df4d3" opacity="0.2"/><circle cx="725.7661756660822" cy="416.6457094890849" r="5" fill="#7df4d3"/><circle cx="725.7661756660822" cy="416.6457094890849" r="10" fill="#7df4d3" opacity="0.2"/><circle cx="717.5272610559789" cy="440.2260418516656" r="5" fill="#7df4d3"/><circle cx="717.5272610559789" cy="440.2260418516656" r="10" fill="#7df4d3" opacity="0.2"/><circle cx="423.5" cy="424.6" r="6.2" fill="rgba(180,180,200,0.15446162719046697)"/><circle cx="412.7" cy="423.5" r="7.2" fill="rgba(180,180,200,0.23892753008287398)"/><circle cx="422.0" cy="426.3" r="15.8" fill="rgba(180,180,200,0.15688663167413325)"/><circle cx="538.5" cy="188.6" r="14.2" fill="rgba(180,180,200,0.24622814151691272)"/><circle cx="548.6" cy="191.7" r="15.1" fill="rgba(180,180,200,0.14031730270246043)"/><circle cx="548.9" cy="198.0" r="6.1" fill="rgba(180,180,200,0.21494818684179334)"/><circle cx="810.4" cy="525.5" r="12.9" fill="rgba(180,180,200,0.24711188751272856)"/><circle cx="806.6" cy="530.5" r="8.3" fill="rgba(180,180,200,0.13166612837696448)"/><circle cx="811.9" cy="539.2" r="8.7" fill="rgba(180,180,200,0.20351641078479588)"/><circle cx="618.0" cy="491.3" r="14.1" fill="rgba(180,180,200,0.1705645608413033)"/><circle cx="630.8" cy="489.1" r="15.5" fill="rgba(180,180,200,0.1421062842872925)"/><circle cx="621.4" cy="479.3" r="9.6" fill="rgba(180,180,200,0.2156897534779273)"/><circle cx="374.1" cy="329.7" r="12.6" fill="rgba(180,180,200,0.25237661645980547)"/><circle cx="374.6" cy="334.6" r="12.8" fill="rgba(180,180,200,0.24122422711690888)"/><circle cx="371.8" cy="330.2" r="8.2" fill="rgba(180,180,200,0.26080669231479986)"/><circle cx="645.5" cy="533.8" r="12.1" fill="rgba(180,180,200,0.1839905321295373)"/><circle cx="642.0" cy="531.9" r="10.1" fill="rgba(180,180,200,0.22864895037375388)"/><circle cx="645.7" cy="535.0" r="6.8" fill="rgba(180,180,200,0.2172726546926424)"/><circle cx="821.6" cy="185.5" r="10.9" fill="rgba(180,180,200,0.18884360485710203)"/><circle cx="816.3" cy="186.1" r="12.5" fill="rgba(180,180,200,0.266835885476321)"/><circle cx="816.8" cy="196.4" r="15.2" fill="rgba(180,180,200,0.255860429413151)"/><circle cx="768.4" cy="519.4" r="14.7" fill="rgba(180,180,200,0.23975345435785128)"/><circle cx="774.7" cy="517.5" r="9.4" fill="rgba(180,180,200,0.2635882740304805)"/><circle cx="777.9" cy="522.9" r="6.6" fill="rgba(180,180,200,0.18898838948691263)"/><circle cx="553.5" cy="539.1" r="9.7" fill="rgba(180,180,200,0.12444502680329605)"/><circle cx="551.9" cy="539.8" r="13.1" fill="rgba(180,180,200,0.12574137547519057)"/><circle cx="550.9" cy="546.5" r="14.0" fill="rgba(180,180,200,0.20242996546905487)"/><circle cx="441.3" cy="445.9" r="12.4" fill="rgba(180,180,200,0.23727491113124416)"/><circle cx="443.4" cy="451.0" r="14.7" fill="rgba(180,180,200,0.19221888945205134)"/><circle cx="441.4" cy="455.4" r="9.7" fill="rgba(180,180,200,0.1648094460647553)"/><text x="780" y="330" font-family="sans-serif" font-size="18" fill="#ffe066" font-weight="bold">12</text><text x="720" y="460" font-family="sans-serif" font-size="18" fill="#ffe066" font-weight="bold">18</text><text x="560" y="280" font-family="sans-serif" font-size="18" fill="#ffe066" font-weight="bold">9</text><text x="460" y="440" font-family="sans-serif" font-size="18" fill="#ffe066" font-weight="bold">CRIT 24!</text>

        <circle cx="600" cy="400" r="60" fill="url(#heroGlow)"/>
        <circle cx="600" cy="400" r="20" fill="#44aaff"/>
        <circle cx="600" cy="400" r="11" fill="#cfeaff"/>
        <circle cx="596" cy="396" r="3" fill="#ffffff"/>
<rect x="0" y="0" width="1200" height="56" fill="rgba(0,0,0,0.6)"/><text x="24" y="36" font-family="monospace" font-size="20" fill="#cfeaff">LV 7</text><text x="110" y="36" font-family="monospace" font-size="20" fill="#cfeaff">⏱ 03:42</text><text x="240" y="36" font-family="monospace" font-size="20" fill="#cfeaff">☠ 412</text><rect x="380" y="18" width="220" height="16" rx="4" fill="rgba(255,255,255,0.12)"/><rect x="380" y="18" width="130" height="16" rx="4" fill="url(#hpGrad)"/><text x="610" y="31" font-family="monospace" font-size="13" fill="#ffe6ec">HP 59/100</text><rect x="380" y="38" width="220" height="8" rx="3" fill="rgba(255,255,255,0.12)"/><rect x="380" y="38" width="92" height="8" rx="3" fill="url(#expGrad)"/><rect x="1080" y="14" width="96" height="30" rx="6" fill="rgba(0,0,0,0.5)" stroke="#2a3450"/><text x="1128" y="34" text-anchor="middle" font-family="monospace" font-size="14" fill="#7df4d3">60 fps</text><rect x="20" y="730" width="48" height="48" rx="8" fill="rgba(10,20,40,0.75)" stroke="#3a5dbb" stroke-width="1.5"/><text x="44" y="762" text-anchor="middle" font-family="sans-serif" font-size="22" fill="#ffe066">⚔</text><rect x="24" y="774" width="40" height="3" fill="#ffe066" opacity="0.8"/><rect x="74" y="730" width="48" height="48" rx="8" fill="rgba(10,20,40,0.75)" stroke="#3a5dbb" stroke-width="1.5"/><text x="98" y="762" text-anchor="middle" font-family="sans-serif" font-size="22" fill="#ffe066">✦</text><rect x="78" y="774" width="40" height="3" fill="#ffe066" opacity="0.8"/><rect x="128" y="730" width="48" height="48" rx="8" fill="rgba(10,20,40,0.75)" stroke="#3a5dbb" stroke-width="1.5"/><text x="152" y="762" text-anchor="middle" font-family="sans-serif" font-size="22" fill="#ffe066">❄</text><rect x="132" y="774" width="40" height="3" fill="#ffe066" opacity="0.8"/><rect x="182" y="730" width="48" height="48" rx="8" fill="rgba(10,20,40,0.75)" stroke="#3a5dbb" stroke-width="1.5"/><text x="206" y="762" text-anchor="middle" font-family="sans-serif" font-size="22" fill="#ffe066">↺</text><rect x="186" y="774" width="40" height="3" fill="#ffe066" opacity="0.8"/><rect x="1130" y="730" width="48" height="48" rx="8" fill="rgba(10,20,40,0.75)" stroke="#7d9aff" stroke-width="1.5"/><text x="1154" y="762" text-anchor="middle" font-family="sans-serif" font-size="22" fill="#9ecaff">♥</text><rect x="1076" y="730" width="48" height="48" rx="8" fill="rgba(10,20,40,0.75)" stroke="#7d9aff" stroke-width="1.5"/><text x="1100" y="762" text-anchor="middle" font-family="sans-serif" font-size="22" fill="#9ecaff">⚡</text><rect x="1022" y="730" width="48" height="48" rx="8" fill="rgba(10,20,40,0.75)" stroke="#7d9aff" stroke-width="1.5"/><text x="1046" y="762" text-anchor="middle" font-family="sans-serif" font-size="22" fill="#9ecaff">🧲</text><rect x="528" y="730" width="144" height="48" rx="6" fill="rgba(10,15,30,0.7)" stroke="#2a3450"/><circle cx="600" cy="754" r="4" fill="#44aaff"/><circle cx="541.4" cy="736.5" r="1.6" fill="#ff4466"/><circle cx="626.5" cy="767.9" r="1.6" fill="#ff4466"/><circle cx="635.6" cy="746.4" r="1.6" fill="#ff4466"/><circle cx="564.5" cy="746.6" r="1.6" fill="#ff4466"/><circle cx="563.1" cy="773.2" r="1.6" fill="#ff4466"/><circle cx="639.3" cy="770.5" r="1.6" fill="#ff4466"/><circle cx="628.2" cy="734.1" r="1.6" fill="#ff4466"/><circle cx="553.6" cy="753.5" r="1.6" fill="#ff4466"/><circle cx="581.1" cy="771.8" r="1.6" fill="#ff4466"/><circle cx="645.4" cy="755.4" r="1.6" fill="#ff4466"/><circle cx="604.2" cy="738.5" r="1.6" fill="#ff4466"/><circle cx="651.8" cy="748.2" r="1.6" fill="#ff4466"/><circle cx="572.7" cy="750.8" r="1.6" fill="#ff4466"/><circle cx="633.6" cy="744.0" r="1.6" fill="#ff4466"/><circle cx="613.1" cy="767.7" r="1.6" fill="#ff4466"/><circle cx="628.3" cy="766.1" r="1.6" fill="#ff4466"/><circle cx="568.9" cy="762.3" r="1.6" fill="#ff4466"/><circle cx="605.8" cy="749.8" r="1.6" fill="#ff4466"/><circle cx="650.8" cy="744.6" r="1.6" fill="#ff4466"/><circle cx="616.7" cy="742.8" r="1.6" fill="#ff4466"/><circle cx="581.0" cy="741.6" r="1.6" fill="#ff4466"/><circle cx="601.9" cy="769.7" r="1.6" fill="#ff4466"/><circle cx="587.4" cy="762.0" r="1.6" fill="#ff4466"/><circle cx="603.2" cy="738.2" r="1.6" fill="#ff4466"/><circle cx="642.5" cy="750.7" r="1.6" fill="#ff4466"/><circle cx="563.3" cy="771.0" r="1.6" fill="#ff4466"/><circle cx="558.3" cy="770.0" r="1.6" fill="#ff4466"/><circle cx="612.8" cy="748.7" r="1.6" fill="#ff4466"/><circle cx="649.4" cy="738.5" r="1.6" fill="#ff4466"/><circle cx="603.5" cy="763.9" r="1.6" fill="#ff4466"/>
<rect x="440" y="70" width="320" height="30" rx="6" fill="rgba(170,50,90,0.4)" stroke="#aa3366"/>
<text x="600" y="92" text-anchor="middle" font-family="monospace" font-size="15" fill="#ffcfe0" letter-spacing="2">WAVE 5 — ZOMBIE + BAT + SPITTER</text>
</svg>