<svg xmlns="http://www.w3.org/2000/svg" viewBox="0 0 1200 800" width="1200" height="800" >
<defs><radialGradient id="bg" cx="50%" cy="50%" r="65%">
        <stop offset="0%" stop-color="#16213e"/>
        <stop offset="100%" stop-color="#0a0e27"/>
    </radialGradient></defs>
<rect width="1200" height="800" fill="url(#bg)"/>
<line x1="0" y1="0" x2="0" y2="800" stroke="#1b2235" stroke-width="1" opacity="0.4"/><line x1="50" y1="0" x2="50" y2="800" stroke="#1b2235" stroke-width="1" opacity="0.4"/><line x1="100" y1="0" x2="100" y2="800" stroke="#1b2235" stroke-width="1" opacity="0.4"/><line x1="150" y1="0" x2="150" y2="800" stroke="#1b2235" stroke-width="1" opacity="0.4"/><line x1="200" y1="0" x2="200" y2="800" stroke="#1b2235" stroke-width="1" opacity="0.4"/><line x1="250" y1="0" x2="250" y2="800" stroke="#1b2235" stroke-width="1" opacity="0.4"/><line x1="300" y1="0" x2="300" y2="800" stroke="#1b2235" stroke-width="1" opacity="0.4"/><line x1="350" y1="0" x2="350" y2="800" stroke="#1b2235" stroke-width="1" opacity="0.4"/><line x1="400" y1="0" x2="400" y2="800" stroke="#1b2235" stroke-width="1" opacity="0.4"/><line x1="450" y1="0" x2="450" y2="800" stroke="#1b2235" stroke-width="1" opacity="0.4"/><line x1="500" y1="0" x2="500" y2="800" stroke="#1b2235" stroke-width="1" opacity="0.4"/><line x1="550" y1="0" x2="550" y2="800" stroke="#1b2235" stroke-width="1" opacity="0.4"/><line x1="600" y1="0" x2="600" y2="800" stroke="#1b2235" stroke-width="1" opacity="0.4"/><line x1="650" y1="0" x2="650" y2="800" stroke="#1b2235" stroke-width="1" opacity="0.4"/><line x1="700" y1="0" x2="700" y2="800" stroke="#1b2235" stroke-width="1" opacity="0.4"/><line x1="750" y1="0" x2="750" y2="800" stroke="#1b2235" stroke-width="1" opacity="0.4"/><line x1="800" y1="0" x2="800" y2="800" stroke="#1b2235" stroke-width="1" opacity="0.4"/><line x1="850" y1="0" x2="850" y2="800" stroke="#1b2235" stroke-width="1" opacity="0.4"/><line x1="900" y1="0" x2="900" y2="800" stroke="#1b2235" stroke-width="1" opacity="0.4"/><line x1="950" y1="0" x2="950" y2="800" stroke="#1b2235" stroke-width="1" opacity="0.4"/><line x1="1000" y1="0" x2="1000" y2="800" stroke="#1b2235" stroke-width="1" opacity="0.4"/><line x1="1050" y1="0" x2="1050" y2="800" stroke="#1b2235" stroke-width="1" opacity="0.4"/><line x1="1100" y1="0" x2="1100" y2="800" stroke="#1b2235" stroke-width="1" opacity="0.4"/><line x1="1150" y1="0" x2="1150" y2="800" stroke="#1b2235" stroke-width="1" opacity="0.4"/><line x1="1200" y1="0" x2="1200" y2="800" stroke="#1b2235" stroke-width="1" opacity="0.4"/><line x1="0" y1="0" x2="1200" y2="0" stroke="#1b2235" stroke-width="1" opacity="0.4"/><line x1="0" y1="50" x2="1200" y2="50" stroke="#1b2235" stroke-width="1" opacity="0.4"/><line x1="0" y1="100" x2="1200" y2="100" stroke="#1b2235" stroke-width="1" opacity="0.4"/><line x1="0" y1="150" x2="1200" y2="150" stroke="#1b2235" stroke-width="1" opacity="0.4"/><line x1="0" y1="200" x2="1200" y2="200" stroke="#1b2235" stroke-width="1" opacity="0.4"/><line x1="0" y1="250" x2="1200" y2="250" stroke="#1b2235" stroke-width="1" opacity="0.4"/><line x1="0" y1="300" x2="1200" y2="300" stroke="#1b2235" stroke-width="1" opacity="0.4"/><line x1="0" y1="350" x2="1200" y2="350" stroke="#1b2235" stroke-width="1" opacity="0.4"/><line x1="0" y1="400" x2="1200" y2="400" stroke="#1b2235" stroke-width="1" opacity="0.4"/><line x1="0" y1="450" x2="1200" y2="450" stroke="#1b2235" stroke-width="1" opacity="0.4"/><line x1="0" y1="500" x2="1200" y2="500" stroke="#1b2235" stroke-width="1" opacity="0.4"/><line x1="0" y1="550" x2="1200" y2="550" stroke="#1b2235" stroke-width="1" opacity="0.4"/><line x1="0" y1="600" x2="1200" y2="600" stroke="#1b2235" stroke-width="1" opacity="0.4"/><line x1="0" y1="650" x2="1200" y2="650" stroke="#1b2235" stroke-width="1" opacity="0.4"/><line x1="0" y1="700" x2="1200" y2="700" stroke="#1b2235" stroke-width="1" opacity="0.4"/><line x1="0" y1="750" x2="1200" y2="750" stroke="#1b2235" stroke-width="1" opacity="0.4"/><line x1="0" y1="800" x2="1200" y2="800" stroke="#1b2235" stroke-width="1" opacity="0.4"/>
<rect width="1200" height="800" fill="rgba(0,0,0,0.55)"/>
<text x="600" y="200" text-anchor="middle" font-family="Impact, sans-serif" font-size="56" fill="#ffe066">LEVEL UP!</text>
<text x="600" y="240" text-anchor="middle" font-family="sans-serif" font-size="20" fill="#cfeaff">Choose an upgrade</text>

                <rect x="180" y="320" width="260" height="280" rx="12" fill="#1d2a4a" stroke="#ffe066" stroke-width="2"/>
                <circle cx="310" cy="400" r="40" fill="#3a5dbb"/>
                <text x="310" y="410" text-anchor="middle" font-family="sans-serif" font-size="32" fill="#cfeaff">★</text>
                <text x="310" y="490" text-anchor="middle" font-family="sans-serif" font-size="22" fill="#ffe066">Whip</text>
                <text x="310" y="520" text-anchor="middle" font-family="monospace" font-size="14" fill="#7d9aff">Lv 3</text>
                <text x="310" y="558" text-anchor="middle" font-family="sans-serif" font-size="14" fill="#cfeaff">Damage +25%</text>

                <rect x="470" y="320" width="260" height="280" rx="12" fill="#1d2a4a" stroke="#ffe066" stroke-width="2"/>
                <circle cx="600" cy="400" r="40" fill="#3a5dbb"/>
                <text x="600" y="410" text-anchor="middle" font-family="sans-serif" font-size="32" fill="#cfeaff">★</text>
                <text x="600" y="490" text-anchor="middle" font-family="sans-serif" font-size="22" fill="#ffe066">Frost Nova</text>
                <text x="600" y="520" text-anchor="middle" font-family="monospace" font-size="14" fill="#7d9aff">Lv 1</text>
                <text x="600" y="558" text-anchor="middle" font-family="sans-serif" font-size="14" fill="#cfeaff">New weapon</text>

                <rect x="760" y="320" width="260" height="280" rx="12" fill="#1d2a4a" stroke="#ffe066" stroke-width="2"/>
                <circle cx="890" cy="400" r="40" fill="#3a5dbb"/>
                <text x="890" y="410" text-anchor="middle" font-family="sans-serif" font-size="32" fill="#cfeaff">★</text>
                <text x="890" y="490" text-anchor="middle" font-family="sans-serif" font-size="22" fill="#ffe066">Magnet</text>
                <text x="890" y="520" text-anchor="middle" font-family="monospace" font-size="14" fill="#7d9aff">Lv 2</text>
                <text x="890" y="558" text-anchor="middle" font-family="sans-serif" font-size="14" fill="#cfeaff">Pickup range +30%</text>
</svg>