<svg xmlns="http://www.w3.org/2000/svg" viewBox="0 0 1200 800" width="1200" height="800" >
<defs><radialGradient id="bg" cx="50%" cy="50%" r="65%">
        <stop offset="0%" stop-color="#16213e"/>
        <stop offset="100%" stop-color="#0a0e27"/>
    </radialGradient></defs>
<rect width="1200" height="800" fill="url(#bg)"/>
<line x1="0" y1="0" x2="0" y2="800" stroke="#1b2235" stroke-width="1" opacity="0.4"/><line x1="50" y1="0" x2="50" y2="800" stroke="#1b2235" stroke-width="1" opacity="0.4"/><line x1="100" y1="0" x2="100" y2="800" stroke="#1b2235" stroke-width="1" opacity="0.4"/><line x1="150" y1="0" x2="150" y2="800" stroke="#1b2235" stroke-width="1" opacity="0.4"/><line x1="200" y1="0" x2="200" y2="800" stroke="#1b2235" stroke-width="1" opacity="0.4"/><line x1="250" y1="0" x2="250" y2="800" stroke="#1b2235" stroke-width="1" opacity="0.4"/><line x1="300" y1="0" x2="300" y2="800" stroke="#1b2235" stroke-width="1" opacity="0.4"/><line x1="350" y1="0" x2="350" y2="800" stroke="#1b2235" stroke-width="1" opacity="0.4"/><line x1="400" y1="0" x2="400" y2="800" stroke="#1b2235" stroke-width="1" opacity="0.4"/><line x1="450" y1="0" x2="450" y2="800" stroke="#1b2235" stroke-width="1" opacity="0.4"/><line x1="500" y1="0" x2="500" y2="800" stroke="#1b2235" stroke-width="1" opacity="0.4"/><line x1="550" y1="0" x2="550" y2="800" stroke="#1b2235" stroke-width="1" opacity="0.4"/><line x1="600" y1="0" x2="600" y2="800" stroke="#1b2235" stroke-width="1" opacity="0.4"/><line x1="650" y1="0" x2="650" y2="800" stroke="#1b2235" stroke-width="1" opacity="0.4"/><line x1="700" y1="0" x2="700" y2="800" stroke="#1b2235" stroke-width="1" opacity="0.4"/><line x1="750" y1="0" x2="750" y2="800" stroke="#1b2235" stroke-width="1" opacity="0.4"/><line x1="800" y1="0" x2="800" y2="800" stroke="#1b2235" stroke-width="1" opacity="0.4"/><line x1="850" y1="0" x2="850" y2="800" stroke="#1b2235" stroke-width="1" opacity="0.4"/><line x1="900" y1="0" x2="900" y2="800" stroke="#1b2235" stroke-width="1" opacity="0.4"/><line x1="950" y1="0" x2="950" y2="800" stroke="#1b2235" stroke-width="1" opacity="0.4"/><line x1="1000" y1="0" x2="1000" y2="800" stroke="#1b2235" stroke-width="1" opacity="0.4"/><line x1="1050" y1="0" x2="1050" y2="800" stroke="#1b2235" stroke-width="1" opacity="0.4"/><line x1="1100" y1="0" x2="1100" y2="800" stroke="#1b2235" stroke-width="1" opacity="0.4"/><line x1="1150" y1="0" x2="1150" y2="800" stroke="#1b2235" stroke-width="1" opacity="0.4"/><line x1="1200" y1="0" x2="1200" y2="800" stroke="#1b2235" stroke-width="1" opacity="0.4"/><line x1="0" y1="0" x2="1200" y2="0" stroke="#1b2235" stroke-width="1" opacity="0.4"/><line x1="0" y1="50" x2="1200" y2="50" stroke="#1b2235" stroke-width="1" opacity="0.4"/><line x1="0" y1="100" x2="1200" y2="100" stroke="#1b2235" stroke-width="1" opacity="0.4"/><line x1="0" y1="150" x2="1200" y2="150" stroke="#1b2235" stroke-width="1" opacity="0.4"/><line x1="0" y1="200" x2="1200" y2="200" stroke="#1b2235" stroke-width="1" opacity="0.4"/><line x1="0" y1="250" x2="1200" y2="250" stroke="#1b2235" stroke-width="1" opacity="0.4"/><line x1="0" y1="300" x2="1200" y2="300" stroke="#1b2235" stroke-width="1" opacity="0.4"/><line x1="0" y1="350" x2="1200" y2="350" stroke="#1b2235" stroke-width="1" opacity="0.4"/><line x1="0" y1="400" x2="1200" y2="400" stroke="#1b2235" stroke-width="1" opacity="0.4"/><line x1="0" y1="450" x2="1200" y2="450" stroke="#1b2235" stroke-width="1" opacity="0.4"/><line x1="0" y1="500" x2="1200" y2="500" stroke="#1b2235" stroke-width="1" opacity="0.4"/><line x1="0" y1="550" x2="1200" y2="550" stroke="#1b2235" stroke-width="1" opacity="0.4"/><line x1="0" y1="600" x2="1200" y2="600" stroke="#1b2235" stroke-width="1" opacity="0.4"/><line x1="0" y1="650" x2="1200" y2="650" stroke="#1b2235" stroke-width="1" opacity="0.4"/><line x1="0" y1="700" x2="1200" y2="700" stroke="#1b2235" stroke-width="1" opacity="0.4"/><line x1="0" y1="750" x2="1200" y2="750" stroke="#1b2235" stroke-width="1" opacity="0.4"/><line x1="0" y1="800" x2="1200" y2="800" stroke="#1b2235" stroke-width="1" opacity="0.4"/>
<text x="600" y="220" text-anchor="middle" font-family="Impact, sans-serif" font-size="120" fill="#cfeaff" letter-spacing="6">SURVIVOR</text>
<text x="600" y="270" text-anchor="middle" font-family="monospace" font-size="20" fill="#7d9aff" letter-spacing="2">vampire-survivors style roguelite · zero deps</text>

                <rect x="420" y="360" width="360" height="54" rx="10" fill="#1d2a4a" stroke="#3a5dbb"/>
                <text x="600" y="395" text-anchor="middle" font-family="sans-serif" font-size="22" fill="#cfeaff">Start Run</text>

                <rect x="420" y="430" width="360" height="54" rx="10" fill="#1d2a4a" stroke="#3a5dbb"/>
                <text x="600" y="465" text-anchor="middle" font-family="sans-serif" font-size="22" fill="#cfeaff">Speedrun</text>

                <rect x="420" y="500" width="360" height="54" rx="10" fill="#1d2a4a" stroke="#3a5dbb"/>
                <text x="600" y="535" text-anchor="middle" font-family="sans-serif" font-size="22" fill="#cfeaff">Leaderboard</text>

                <rect x="420" y="570" width="360" height="54" rx="10" fill="#1d2a4a" stroke="#3a5dbb"/>
                <text x="600" y="605" text-anchor="middle" font-family="sans-serif" font-size="22" fill="#cfeaff">Achievements</text>

                <rect x="420" y="640" width="360" height="54" rx="10" fill="#1d2a4a" stroke="#3a5dbb"/>
                <text x="600" y="675" text-anchor="middle" font-family="sans-serif" font-size="22" fill="#cfeaff">Settings</text>
<text x="600" y="776" text-anchor="middle" font-family="monospace" font-size="14" fill="#506080">v2.5.0 · MIT · github.com/Ricardo-M-L/canvas-vampire-survivors</text>
</svg>