<svg xmlns="http://www.w3.org/2000/svg" viewBox="0 0 1200 800" width="1200" height="800" >
<defs>
        <radialGradient id="bgCool" cx="50%" cy="50%" r="70%">
            <stop offset="0%" stop-color="#1a2344"/>
            <stop offset="100%" stop-color="#05070f"/>
        </radialGradient>
        <radialGradient id="bgWarm" cx="50%" cy="50%" r="70%">
            <stop offset="0%" stop-color="#3a0e1c"/>
            <stop offset="100%" stop-color="#0a0510"/>
        </radialGradient>
        <radialGradient id="heroGlow" cx="50%" cy="50%" r="50%">
            <stop offset="0%" stop-color="#9cd6ff" stop-opacity="0.7"/>
            <stop offset="60%" stop-color="#44aaff" stop-opacity="0.25"/>
            <stop offset="100%" stop-color="#44aaff" stop-opacity="0"/>
        </radialGradient>
        <radialGradient id="frostRing" cx="50%" cy="50%" r="50%">
            <stop offset="0%" stop-color="#aefbff" stop-opacity="0"/>
            <stop offset="78%" stop-color="#aefbff" stop-opacity="0.9"/>
            <stop offset="100%" stop-color="#aefbff" stop-opacity="0"/>
        </radialGradient>
        <linearGradient id="hpGrad" x1="0" x2="1">
            <stop offset="0%" stop-color="#ff7d9c"/>
            <stop offset="100%" stop-color="#ff3355"/>
        </linearGradient>
        <linearGradient id="expGrad" x1="0" x2="1">
            <stop offset="0%" stop-color="#7df4d3"/>
            <stop offset="100%" stop-color="#3ad0aa"/>
        </linearGradient>
        <filter id="soft" x="-20%" y="-20%" width="140%" height="140%">
            <feGaussianBlur stdDeviation="2.2"/>
        </filter>
        
    </defs>
<rect width="1200" height="800" fill="url(#bgCool)"/>
<line x1="0" y1="0" x2="0" y2="800" stroke="#1b2235" stroke-width="1" opacity="0.35"/><line x1="50" y1="0" x2="50" y2="800" stroke="#1b2235" stroke-width="1" opacity="0.35"/><line x1="100" y1="0" x2="100" y2="800" stroke="#1b2235" stroke-width="1" opacity="0.35"/><line x1="150" y1="0" x2="150" y2="800" stroke="#1b2235" stroke-width="1" opacity="0.35"/><line x1="200" y1="0" x2="200" y2="800" stroke="#1b2235" stroke-width="1" opacity="0.35"/><line x1="250" y1="0" x2="250" y2="800" stroke="#1b2235" stroke-width="1" opacity="0.35"/><line x1="300" y1="0" x2="300" y2="800" stroke="#1b2235" stroke-width="1" opacity="0.35"/><line x1="350" y1="0" x2="350" y2="800" stroke="#1b2235" stroke-width="1" opacity="0.35"/><line x1="400" y1="0" x2="400" y2="800" stroke="#1b2235" stroke-width="1" opacity="0.35"/><line x1="450" y1="0" x2="450" y2="800" stroke="#1b2235" stroke-width="1" opacity="0.35"/><line x1="500" y1="0" x2="500" y2="800" stroke="#1b2235" stroke-width="1" opacity="0.35"/><line x1="550" y1="0" x2="550" y2="800" stroke="#1b2235" stroke-width="1" opacity="0.35"/><line x1="600" y1="0" x2="600" y2="800" stroke="#1b2235" stroke-width="1" opacity="0.35"/><line x1="650" y1="0" x2="650" y2="800" stroke="#1b2235" stroke-width="1" opacity="0.35"/><line x1="700" y1="0" x2="700" y2="800" stroke="#1b2235" stroke-width="1" opacity="0.35"/><line x1="750" y1="0" x2="750" y2="800" stroke="#1b2235" stroke-width="1" opacity="0.35"/><line x1="800" y1="0" x2="800" y2="800" stroke="#1b2235" stroke-width="1" opacity="0.35"/><line x1="850" y1="0" x2="850" y2="800" stroke="#1b2235" stroke-width="1" opacity="0.35"/><line x1="900" y1="0" x2="900" y2="800" stroke="#1b2235" stroke-width="1" opacity="0.35"/><line x1="950" y1="0" x2="950" y2="800" stroke="#1b2235" stroke-width="1" opacity="0.35"/><line x1="1000" y1="0" x2="1000" y2="800" stroke="#1b2235" stroke-width="1" opacity="0.35"/><line x1="1050" y1="0" x2="1050" y2="800" stroke="#1b2235" stroke-width="1" opacity="0.35"/><line x1="1100" y1="0" x2="1100" y2="800" stroke="#1b2235" stroke-width="1" opacity="0.35"/><line x1="1150" y1="0" x2="1150" y2="800" stroke="#1b2235" stroke-width="1" opacity="0.35"/><line x1="1200" y1="0" x2="1200" y2="800" stroke="#1b2235" stroke-width="1" opacity="0.35"/><line x1="0" y1="0" x2="1200" y2="0" stroke="#1b2235" stroke-width="1" opacity="0.35"/><line x1="0" y1="50" x2="1200" y2="50" stroke="#1b2235" stroke-width="1" opacity="0.35"/><line x1="0" y1="100" x2="1200" y2="100" stroke="#1b2235" stroke-width="1" opacity="0.35"/><line x1="0" y1="150" x2="1200" y2="150" stroke="#1b2235" stroke-width="1" opacity="0.35"/><line x1="0" y1="200" x2="1200" y2="200" stroke="#1b2235" stroke-width="1" opacity="0.35"/><line x1="0" y1="250" x2="1200" y2="250" stroke="#1b2235" stroke-width="1" opacity="0.35"/><line x1="0" y1="300" x2="1200" y2="300" stroke="#1b2235" stroke-width="1" opacity="0.35"/><line x1="0" y1="350" x2="1200" y2="350" stroke="#1b2235" stroke-width="1" opacity="0.35"/><line x1="0" y1="400" x2="1200" y2="400" stroke="#1b2235" stroke-width="1" opacity="0.35"/><line x1="0" y1="450" x2="1200" y2="450" stroke="#1b2235" stroke-width="1" opacity="0.35"/><line x1="0" y1="500" x2="1200" y2="500" stroke="#1b2235" stroke-width="1" opacity="0.35"/><line x1="0" y1="550" x2="1200" y2="550" stroke="#1b2235" stroke-width="1" opacity="0.35"/><line x1="0" y1="600" x2="1200" y2="600" stroke="#1b2235" stroke-width="1" opacity="0.35"/><line x1="0" y1="650" x2="1200" y2="650" stroke="#1b2235" stroke-width="1" opacity="0.35"/><line x1="0" y1="700" x2="1200" y2="700" stroke="#1b2235" stroke-width="1" opacity="0.35"/><line x1="0" y1="750" x2="1200" y2="750" stroke="#1b2235" stroke-width="1" opacity="0.35"/><line x1="0" y1="800" x2="1200" y2="800" stroke="#1b2235" stroke-width="1" opacity="0.35"/>
<rect width="1200" height="800" fill="rgba(0,0,0,0.55)"/>
<text x="600" y="88" text-anchor="middle" font-family="Impact, sans-serif" font-size="44" fill="#ffe066" letter-spacing="4">ACHIEVEMENTS · 7 / 12</text>
<rect x="400" y="108" width="400" height="8" rx="3" fill="rgba(255,255,255,0.1)"/>
<rect x="400" y="108" width="233" height="8" rx="3" fill="#ffe066"/>

                <rect x="90" y="170" width="228" height="168" rx="14" fill="#1d2a4a" stroke="#ffe066" stroke-width="2"/>
                <circle cx="204" cy="224" r="30" fill="rgba(255,224,102,0.14)"/>
                <text x="204" y="236" text-anchor="middle" font-family="sans-serif" font-size="36" fill="#ffe066">🩸</text>
                <text x="204" y="276" text-anchor="middle" font-family="sans-serif" font-size="16" fill="#cfeaff" font-weight="bold">First Blood</text>
                <text x="204" y="296" text-anchor="middle" font-family="sans-serif" font-size="12" fill="#7d9aff">Defeat 1 enemy</text>
                <text x="204" y="320" text-anchor="middle" font-family="monospace" font-size="10" fill="#7df4d3">UNLOCKED</text>

                <rect x="348" y="170" width="228" height="168" rx="14" fill="#1d2a4a" stroke="#ffe066" stroke-width="2"/>
                <circle cx="462" cy="224" r="30" fill="rgba(255,224,102,0.14)"/>
                <text x="462" y="236" text-anchor="middle" font-family="sans-serif" font-size="36" fill="#ffe066">⚔</text>
                <text x="462" y="276" text-anchor="middle" font-family="sans-serif" font-size="16" fill="#cfeaff" font-weight="bold">Centurion</text>
                <text x="462" y="296" text-anchor="middle" font-family="sans-serif" font-size="12" fill="#7d9aff">Defeat 100 enemies</text>
                <text x="462" y="320" text-anchor="middle" font-family="monospace" font-size="10" fill="#7df4d3">UNLOCKED</text>

                <rect x="606" y="170" width="228" height="168" rx="14" fill="#1d2a4a" stroke="#ffe066" stroke-width="2"/>
                <circle cx="720" cy="224" r="30" fill="rgba(255,224,102,0.14)"/>
                <text x="720" y="236" text-anchor="middle" font-family="sans-serif" font-size="36" fill="#ffe066">👑</text>
                <text x="720" y="276" text-anchor="middle" font-family="sans-serif" font-size="16" fill="#cfeaff" font-weight="bold">Boss Slayer</text>
                <text x="720" y="296" text-anchor="middle" font-family="sans-serif" font-size="12" fill="#7d9aff">Kill a boss</text>
                <text x="720" y="320" text-anchor="middle" font-family="monospace" font-size="10" fill="#7df4d3">UNLOCKED</text>

                <rect x="864" y="170" width="228" height="168" rx="14" fill="#1d2a4a" stroke="#ffe066" stroke-width="2"/>
                <circle cx="978" cy="224" r="30" fill="rgba(255,224,102,0.14)"/>
                <text x="978" y="236" text-anchor="middle" font-family="sans-serif" font-size="36" fill="#ffe066">🌪</text>
                <text x="978" y="276" text-anchor="middle" font-family="sans-serif" font-size="16" fill="#cfeaff" font-weight="bold">Storm Survivor</text>
                <text x="978" y="296" text-anchor="middle" font-family="sans-serif" font-size="12" fill="#7d9aff">Survive 10 minutes</text>
                <text x="978" y="320" text-anchor="middle" font-family="monospace" font-size="10" fill="#7df4d3">UNLOCKED</text>

                <rect x="90" y="360" width="228" height="168" rx="14" fill="#1d2a4a" stroke="#ffe066" stroke-width="2"/>
                <circle cx="204" cy="414" r="30" fill="rgba(255,224,102,0.14)"/>
                <text x="204" y="426" text-anchor="middle" font-family="sans-serif" font-size="36" fill="#ffe066">⏱</text>
                <text x="204" y="466" text-anchor="middle" font-family="sans-serif" font-size="16" fill="#cfeaff" font-weight="bold">5 Minutes</text>
                <text x="204" y="486" text-anchor="middle" font-family="sans-serif" font-size="12" fill="#7d9aff">Reach 5:00</text>
                <text x="204" y="510" text-anchor="middle" font-family="monospace" font-size="10" fill="#7df4d3">UNLOCKED</text>

                <rect x="348" y="360" width="228" height="168" rx="14" fill="#13182a" stroke="#2a3450" stroke-width="2"/>
                <circle cx="462" cy="414" r="30" fill="rgba(80,96,128,0.1)"/>
                <text x="462" y="426" text-anchor="middle" font-family="sans-serif" font-size="36" fill="#3a4560">🔒</text>
                <text x="462" y="466" text-anchor="middle" font-family="sans-serif" font-size="16" fill="#5a6a85" font-weight="bold">???</text>
                <text x="462" y="486" text-anchor="middle" font-family="sans-serif" font-size="12" fill="#3a4560">Locked</text>
                <text x="462" y="510" text-anchor="middle" font-family="monospace" font-size="10" fill="#3a4560">LOCKED</text>

                <rect x="606" y="360" width="228" height="168" rx="14" fill="#13182a" stroke="#2a3450" stroke-width="2"/>
                <circle cx="720" cy="414" r="30" fill="rgba(80,96,128,0.1)"/>
                <text x="720" y="426" text-anchor="middle" font-family="sans-serif" font-size="36" fill="#3a4560">🔒</text>
                <text x="720" y="466" text-anchor="middle" font-family="sans-serif" font-size="16" fill="#5a6a85" font-weight="bold">???</text>
                <text x="720" y="486" text-anchor="middle" font-family="sans-serif" font-size="12" fill="#3a4560">Locked</text>
                <text x="720" y="510" text-anchor="middle" font-family="monospace" font-size="10" fill="#3a4560">LOCKED</text>

                <rect x="864" y="360" width="228" height="168" rx="14" fill="#13182a" stroke="#2a3450" stroke-width="2"/>
                <circle cx="978" cy="414" r="30" fill="rgba(80,96,128,0.1)"/>
                <text x="978" y="426" text-anchor="middle" font-family="sans-serif" font-size="36" fill="#3a4560">🔒</text>
                <text x="978" y="466" text-anchor="middle" font-family="sans-serif" font-size="16" fill="#5a6a85" font-weight="bold">???</text>
                <text x="978" y="486" text-anchor="middle" font-family="sans-serif" font-size="12" fill="#3a4560">Locked</text>
                <text x="978" y="510" text-anchor="middle" font-family="monospace" font-size="10" fill="#3a4560">LOCKED</text>

                <rect x="90" y="550" width="228" height="168" rx="14" fill="#1d2a4a" stroke="#ffe066" stroke-width="2"/>
                <circle cx="204" cy="604" r="30" fill="rgba(255,224,102,0.14)"/>
                <text x="204" y="616" text-anchor="middle" font-family="sans-serif" font-size="36" fill="#ffe066">⚡</text>
                <text x="204" y="656" text-anchor="middle" font-family="sans-serif" font-size="16" fill="#cfeaff" font-weight="bold">Speed Demon</text>
                <text x="204" y="676" text-anchor="middle" font-family="sans-serif" font-size="12" fill="#7d9aff">Finish Speedrun < 15m</text>
                <text x="204" y="700" text-anchor="middle" font-family="monospace" font-size="10" fill="#7df4d3">UNLOCKED</text>

                <rect x="348" y="550" width="228" height="168" rx="14" fill="#13182a" stroke="#2a3450" stroke-width="2"/>
                <circle cx="462" cy="604" r="30" fill="rgba(80,96,128,0.1)"/>
                <text x="462" y="616" text-anchor="middle" font-family="sans-serif" font-size="36" fill="#3a4560">🔒</text>
                <text x="462" y="656" text-anchor="middle" font-family="sans-serif" font-size="16" fill="#5a6a85" font-weight="bold">???</text>
                <text x="462" y="676" text-anchor="middle" font-family="sans-serif" font-size="12" fill="#3a4560">Locked</text>
                <text x="462" y="700" text-anchor="middle" font-family="monospace" font-size="10" fill="#3a4560">LOCKED</text>

                <rect x="606" y="550" width="228" height="168" rx="14" fill="#1d2a4a" stroke="#ffe066" stroke-width="2"/>
                <circle cx="720" cy="604" r="30" fill="rgba(255,224,102,0.14)"/>
                <text x="720" y="616" text-anchor="middle" font-family="sans-serif" font-size="36" fill="#ffe066">🔱</text>
                <text x="720" y="656" text-anchor="middle" font-family="sans-serif" font-size="16" fill="#cfeaff" font-weight="bold">Early Evolve</text>
                <text x="720" y="676" text-anchor="middle" font-family="sans-serif" font-size="12" fill="#7d9aff">Evolve before 7:00</text>
                <text x="720" y="700" text-anchor="middle" font-family="monospace" font-size="10" fill="#7df4d3">UNLOCKED</text>

                <rect x="864" y="550" width="228" height="168" rx="14" fill="#13182a" stroke="#2a3450" stroke-width="2"/>
                <circle cx="978" cy="604" r="30" fill="rgba(80,96,128,0.1)"/>
                <text x="978" y="616" text-anchor="middle" font-family="sans-serif" font-size="36" fill="#3a4560">🔒</text>
                <text x="978" y="656" text-anchor="middle" font-family="sans-serif" font-size="16" fill="#5a6a85" font-weight="bold">???</text>
                <text x="978" y="676" text-anchor="middle" font-family="sans-serif" font-size="12" fill="#3a4560">Locked</text>
                <text x="978" y="700" text-anchor="middle" font-family="monospace" font-size="10" fill="#3a4560">LOCKED</text>
<text x="600" y="770" text-anchor="middle" font-family="monospace" font-size="13" fill="#7d9aff">Esc to return · L to toggle language</text>
</svg>