<svg xmlns="http://www.w3.org/2000/svg" viewBox="0 0 1200 800" width="1200" height="800" >
<defs>
        <radialGradient id="bgCool" cx="50%" cy="50%" r="70%">
            <stop offset="0%" stop-color="#1a2344"/>
            <stop offset="100%" stop-color="#05070f"/>
        </radialGradient>
        <radialGradient id="bgWarm" cx="50%" cy="50%" r="70%">
            <stop offset="0%" stop-color="#3a0e1c"/>
            <stop offset="100%" stop-color="#0a0510"/>
        </radialGradient>
        <radialGradient id="heroGlow" cx="50%" cy="50%" r="50%">
            <stop offset="0%" stop-color="#9cd6ff" stop-opacity="0.7"/>
            <stop offset="60%" stop-color="#44aaff" stop-opacity="0.25"/>
            <stop offset="100%" stop-color="#44aaff" stop-opacity="0"/>
        </radialGradient>
        <radialGradient id="frostRing" cx="50%" cy="50%" r="50%">
            <stop offset="0%" stop-color="#aefbff" stop-opacity="0"/>
            <stop offset="78%" stop-color="#aefbff" stop-opacity="0.9"/>
            <stop offset="100%" stop-color="#aefbff" stop-opacity="0"/>
        </radialGradient>
        <linearGradient id="hpGrad" x1="0" x2="1">
            <stop offset="0%" stop-color="#ff7d9c"/>
            <stop offset="100%" stop-color="#ff3355"/>
        </linearGradient>
        <linearGradient id="expGrad" x1="0" x2="1">
            <stop offset="0%" stop-color="#7df4d3"/>
            <stop offset="100%" stop-color="#3ad0aa"/>
        </linearGradient>
        <filter id="soft" x="-20%" y="-20%" width="140%" height="140%">
            <feGaussianBlur stdDeviation="2.2"/>
        </filter>
        
    </defs>
<rect width="1200" height="800" fill="url(#bgWarm)"/>
<line x1="0" y1="0" x2="0" y2="800" stroke="#2a0e18" stroke-width="1" opacity="0.35"/><line x1="50" y1="0" x2="50" y2="800" stroke="#2a0e18" stroke-width="1" opacity="0.35"/><line x1="100" y1="0" x2="100" y2="800" stroke="#2a0e18" stroke-width="1" opacity="0.35"/><line x1="150" y1="0" x2="150" y2="800" stroke="#2a0e18" stroke-width="1" opacity="0.35"/><line x1="200" y1="0" x2="200" y2="800" stroke="#2a0e18" stroke-width="1" opacity="0.35"/><line x1="250" y1="0" x2="250" y2="800" stroke="#2a0e18" stroke-width="1" opacity="0.35"/><line x1="300" y1="0" x2="300" y2="800" stroke="#2a0e18" stroke-width="1" opacity="0.35"/><line x1="350" y1="0" x2="350" y2="800" stroke="#2a0e18" stroke-width="1" opacity="0.35"/><line x1="400" y1="0" x2="400" y2="800" stroke="#2a0e18" stroke-width="1" opacity="0.35"/><line x1="450" y1="0" x2="450" y2="800" stroke="#2a0e18" stroke-width="1" opacity="0.35"/><line x1="500" y1="0" x2="500" y2="800" stroke="#2a0e18" stroke-width="1" opacity="0.35"/><line x1="550" y1="0" x2="550" y2="800" stroke="#2a0e18" stroke-width="1" opacity="0.35"/><line x1="600" y1="0" x2="600" y2="800" stroke="#2a0e18" stroke-width="1" opacity="0.35"/><line x1="650" y1="0" x2="650" y2="800" stroke="#2a0e18" stroke-width="1" opacity="0.35"/><line x1="700" y1="0" x2="700" y2="800" stroke="#2a0e18" stroke-width="1" opacity="0.35"/><line x1="750" y1="0" x2="750" y2="800" stroke="#2a0e18" stroke-width="1" opacity="0.35"/><line x1="800" y1="0" x2="800" y2="800" stroke="#2a0e18" stroke-width="1" opacity="0.35"/><line x1="850" y1="0" x2="850" y2="800" stroke="#2a0e18" stroke-width="1" opacity="0.35"/><line x1="900" y1="0" x2="900" y2="800" stroke="#2a0e18" stroke-width="1" opacity="0.35"/><line x1="950" y1="0" x2="950" y2="800" stroke="#2a0e18" stroke-width="1" opacity="0.35"/><line x1="1000" y1="0" x2="1000" y2="800" stroke="#2a0e18" stroke-width="1" opacity="0.35"/><line x1="1050" y1="0" x2="1050" y2="800" stroke="#2a0e18" stroke-width="1" opacity="0.35"/><line x1="1100" y1="0" x2="1100" y2="800" stroke="#2a0e18" stroke-width="1" opacity="0.35"/><line x1="1150" y1="0" x2="1150" y2="800" stroke="#2a0e18" stroke-width="1" opacity="0.35"/><line x1="1200" y1="0" x2="1200" y2="800" stroke="#2a0e18" stroke-width="1" opacity="0.35"/><line x1="0" y1="0" x2="1200" y2="0" stroke="#2a0e18" stroke-width="1" opacity="0.35"/><line x1="0" y1="50" x2="1200" y2="50" stroke="#2a0e18" stroke-width="1" opacity="0.35"/><line x1="0" y1="100" x2="1200" y2="100" stroke="#2a0e18" stroke-width="1" opacity="0.35"/><line x1="0" y1="150" x2="1200" y2="150" stroke="#2a0e18" stroke-width="1" opacity="0.35"/><line x1="0" y1="200" x2="1200" y2="200" stroke="#2a0e18" stroke-width="1" opacity="0.35"/><line x1="0" y1="250" x2="1200" y2="250" stroke="#2a0e18" stroke-width="1" opacity="0.35"/><line x1="0" y1="300" x2="1200" y2="300" stroke="#2a0e18" stroke-width="1" opacity="0.35"/><line x1="0" y1="350" x2="1200" y2="350" stroke="#2a0e18" stroke-width="1" opacity="0.35"/><line x1="0" y1="400" x2="1200" y2="400" stroke="#2a0e18" stroke-width="1" opacity="0.35"/><line x1="0" y1="450" x2="1200" y2="450" stroke="#2a0e18" stroke-width="1" opacity="0.35"/><line x1="0" y1="500" x2="1200" y2="500" stroke="#2a0e18" stroke-width="1" opacity="0.35"/><line x1="0" y1="550" x2="1200" y2="550" stroke="#2a0e18" stroke-width="1" opacity="0.35"/><line x1="0" y1="600" x2="1200" y2="600" stroke="#2a0e18" stroke-width="1" opacity="0.35"/><line x1="0" y1="650" x2="1200" y2="650" stroke="#2a0e18" stroke-width="1" opacity="0.35"/><line x1="0" y1="700" x2="1200" y2="700" stroke="#2a0e18" stroke-width="1" opacity="0.35"/><line x1="0" y1="750" x2="1200" y2="750" stroke="#2a0e18" stroke-width="1" opacity="0.35"/><line x1="0" y1="800" x2="1200" y2="800" stroke="#2a0e18" stroke-width="1" opacity="0.35"/>
<circle cx="974.5" cy="455.4" r="8" fill="#aa3344"/><circle cx="971.7" cy="452.6" r="2.8" fill="rgba(255,255,255,0.3)"/><circle cx="367.4" cy="191.4" r="9" fill="#aa3344"/><circle cx="364.3" cy="188.3" r="3.1" fill="rgba(255,255,255,0.3)"/><circle cx="514.6" cy="702.8" r="8" fill="#aa3344"/><circle cx="511.8" cy="700.0" r="2.8" fill="rgba(255,255,255,0.3)"/><circle cx="757.7" cy="405.9" r="8" fill="#aa3344"/><circle cx="754.9" cy="403.1" r="2.8" fill="rgba(255,255,255,0.3)"/><circle cx="448.0" cy="703.7" r="10" fill="#aa3344"/><circle cx="444.5" cy="700.2" r="3.5" fill="rgba(255,255,255,0.3)"/><circle cx="551.5" cy="118.9" r="9" fill="#aa3344"/><circle cx="548.4" cy="115.8" r="3.1" fill="rgba(255,255,255,0.3)"/><circle cx="881.2" cy="441.6" r="10" fill="#aa3344"/><circle cx="877.7" cy="438.1" r="3.5" fill="rgba(255,255,255,0.3)"/><circle cx="93.2" cy="466.1" r="9" fill="#aa3344"/><circle cx="90.1" cy="462.9" r="3.1" fill="rgba(255,255,255,0.3)"/><circle cx="549.8" cy="229.3" r="8" fill="#aa3344"/><circle cx="547.0" cy="226.5" r="2.8" fill="rgba(255,255,255,0.3)"/><circle cx="309.3" cy="243.6" r="7" fill="#aa3344"/><circle cx="306.9" cy="241.2" r="2.4" fill="rgba(255,255,255,0.3)"/><circle cx="554.2" cy="281.0" r="9" fill="#aa3344"/><circle cx="551.1" cy="277.8" r="3.1" fill="rgba(255,255,255,0.3)"/><circle cx="1054.8" cy="489.0" r="9" fill="#aa3344"/><circle cx="1051.7" cy="485.9" r="3.1" fill="rgba(255,255,255,0.3)"/><circle cx="166.4" cy="692.8" r="8" fill="#aa3344"/><circle cx="163.6" cy="690.0" r="2.8" fill="rgba(255,255,255,0.3)"/><circle cx="324.7" cy="535.7" r="8" fill="#aa3344"/><circle cx="321.9" cy="532.9" r="2.8" fill="rgba(255,255,255,0.3)"/><circle cx="739.1" cy="290.2" r="9" fill="#aa3344"/><circle cx="736.0" cy="287.1" r="3.1" fill="rgba(255,255,255,0.3)"/><circle cx="642.4" cy="243.3" r="7" fill="#aa3344"/><circle cx="639.9" cy="240.9" r="2.4" fill="rgba(255,255,255,0.3)"/><circle cx="242.6" cy="391.7" r="7" fill="#aa3344"/><circle cx="240.2" cy="389.2" r="2.4" fill="rgba(255,255,255,0.3)"/><circle cx="91.3" cy="511.7" r="9" fill="#aa3344"/><circle cx="88.2" cy="508.6" r="3.1" fill="rgba(255,255,255,0.3)"/><circle cx="743.9" cy="106.5" r="7" fill="#aa3344"/><circle cx="741.5" cy="104.1" r="2.4" fill="rgba(255,255,255,0.3)"/><circle cx="848.0" cy="448.7" r="10" fill="#aa3344"/><circle cx="844.5" cy="445.2" r="3.5" fill="rgba(255,255,255,0.3)"/><circle cx="411.3" cy="216.3" r="10" fill="#aa3344"/><circle cx="407.8" cy="212.8" r="3.5" fill="rgba(255,255,255,0.3)"/><circle cx="916.9" cy="588.4" r="8" fill="#aa3344"/><circle cx="914.1" cy="585.6" r="2.8" fill="rgba(255,255,255,0.3)"/><circle cx="807.3" cy="425.2" r="7" fill="#aa3344"/><circle cx="804.8" cy="422.8" r="2.4" fill="rgba(255,255,255,0.3)"/><circle cx="888.5" cy="635.4" r="9" fill="#aa3344"/><circle cx="885.3" cy="632.2" r="3.1" fill="rgba(255,255,255,0.3)"/><circle cx="256.3" cy="637.6" r="10" fill="#aa3344"/><circle cx="252.8" cy="634.1" r="3.5" fill="rgba(255,255,255,0.3)"/><circle cx="298.7" cy="324.9" r="7" fill="#aa3344"/><circle cx="296.2" cy="322.4" r="2.4" fill="rgba(255,255,255,0.3)"/><circle cx="871.9" cy="599.7" r="10" fill="#aa3344"/><circle cx="868.4" cy="596.2" r="3.5" fill="rgba(255,255,255,0.3)"/><circle cx="255.2" cy="566.1" r="10" fill="#aa3344"/><circle cx="251.7" cy="562.6" r="3.5" fill="rgba(255,255,255,0.3)"/><circle cx="347.2" cy="396.6" r="9" fill="#aa3344"/><circle cx="344.1" cy="393.5" r="3.1" fill="rgba(255,255,255,0.3)"/><circle cx="480.6" cy="111.5" r="9" fill="#aa3344"/><circle cx="477.4" cy="108.4" r="3.1" fill="rgba(255,255,255,0.3)"/><circle cx="172.1" cy="433.5" r="7" fill="#aa3344"/><circle cx="169.6" cy="431.0" r="2.4" fill="rgba(255,255,255,0.3)"/><circle cx="718.4" cy="484.1" r="10" fill="#aa3344"/><circle cx="714.9" cy="480.6" r="3.5" fill="rgba(255,255,255,0.3)"/><circle cx="240.5" cy="540.2" r="7" fill="#aa3344"/><circle cx="238.0" cy="537.7" r="2.4" fill="rgba(255,255,255,0.3)"/><circle cx="239.1" cy="442.9" r="10" fill="#aa3344"/><circle cx="235.6" cy="439.4" r="3.5" fill="rgba(255,255,255,0.3)"/><circle cx="823.1" cy="704.1" r="8" fill="#aa3344"/><circle cx="820.3" cy="701.3" r="2.8" fill="rgba(255,255,255,0.3)"/><circle cx="260.5" cy="327.2" r="9" fill="#aa3344"/><circle cx="257.3" cy="324.1" r="3.1" fill="rgba(255,255,255,0.3)"/><circle cx="332.0" cy="584.2" r="9" fill="#aa3344"/><circle cx="328.8" cy="581.0" r="3.1" fill="rgba(255,255,255,0.3)"/><circle cx="965.4" cy="615.8" r="8" fill="#aa3344"/><circle cx="962.6" cy="613.0" r="2.8" fill="rgba(255,255,255,0.3)"/><circle cx="969.6" cy="602.6" r="10" fill="#aa3344"/><circle cx="966.1" cy="599.1" r="3.5" fill="rgba(255,255,255,0.3)"/><circle cx="380.8" cy="625.6" r="7" fill="#aa3344"/><circle cx="378.3" cy="623.1" r="2.4" fill="rgba(255,255,255,0.3)"/><circle cx="464.2" cy="211.7" r="10" fill="#aa3344"/><circle cx="460.7" cy="208.2" r="3.5" fill="rgba(255,255,255,0.3)"/><circle cx="381.2" cy="245.5" r="8" fill="#aa3344"/><circle cx="378.4" cy="242.7" r="2.8" fill="rgba(255,255,255,0.3)"/><circle cx="720.7" cy="180.5" r="10" fill="#aa3344"/><circle cx="717.2" cy="177.0" r="3.5" fill="rgba(255,255,255,0.3)"/><circle cx="524.3" cy="683.1" r="10" fill="#aa3344"/><circle cx="520.8" cy="679.6" r="3.5" fill="rgba(255,255,255,0.3)"/><circle cx="212.0" cy="338.2" r="10" fill="#aa3344"/><circle cx="208.5" cy="334.7" r="3.5" fill="rgba(255,255,255,0.3)"/><circle cx="362.2" cy="570.3" r="8" fill="#aa3344"/><circle cx="359.4" cy="567.5" r="2.8" fill="rgba(255,255,255,0.3)"/><circle cx="848.4" cy="161.3" r="9" fill="#aa3344"/><circle cx="845.2" cy="158.2" r="3.1" fill="rgba(255,255,255,0.3)"/><circle cx="587.5" cy="161.8" r="10" fill="#aa3344"/><circle cx="584.0" cy="158.3" r="3.5" fill="rgba(255,255,255,0.3)"/><circle cx="103.9" cy="702.9" r="9" fill="#aa3344"/><circle cx="100.8" cy="699.8" r="3.1" fill="rgba(255,255,255,0.3)"/><circle cx="487.2" cy="207.5" r="8" fill="#aa3344"/><circle cx="484.4" cy="204.7" r="2.8" fill="rgba(255,255,255,0.3)"/><circle cx="190.7" cy="583.3" r="10" fill="#aa3344"/><circle cx="187.2" cy="579.8" r="3.5" fill="rgba(255,255,255,0.3)"/><circle cx="740.2" cy="393.9" r="7" fill="#aa3344"/><circle cx="737.8" cy="391.5" r="2.4" fill="rgba(255,255,255,0.3)"/><circle cx="88.7" cy="372.4" r="7" fill="#aa3344"/><circle cx="86.2" cy="370.0" r="2.4" fill="rgba(255,255,255,0.3)"/><circle cx="624.2" cy="190.0" r="9" fill="#aa3344"/><circle cx="621.1" cy="186.8" r="3.1" fill="rgba(255,255,255,0.3)"/><circle cx="371.4" cy="339.5" r="8" fill="#aa3344"/><circle cx="368.6" cy="336.7" r="2.8" fill="rgba(255,255,255,0.3)"/><circle cx="766.5" cy="315.0" r="10" fill="#aa3344"/><circle cx="763.0" cy="311.5" r="3.5" fill="rgba(255,255,255,0.3)"/><circle cx="295.9" cy="419.6" r="10" fill="#aa3344"/><circle cx="292.4" cy="416.1" r="3.5" fill="rgba(255,255,255,0.3)"/><circle cx="833.5" cy="416.6" r="7" fill="#aa3344"/><circle cx="831.0" cy="414.2" r="2.4" fill="rgba(255,255,255,0.3)"/><circle cx="668.1" cy="178.7" r="9" fill="#aa3344"/><circle cx="665.0" cy="175.6" r="3.1" fill="rgba(255,255,255,0.3)"/><circle cx="995.6" cy="419.6" r="7" fill="#aa3344"/><circle cx="993.1" cy="417.2" r="2.4" fill="rgba(255,255,255,0.3)"/><circle cx="94.0" cy="346.6" r="7" fill="#aa3344"/><circle cx="91.6" cy="344.2" r="2.4" fill="rgba(255,255,255,0.3)"/><circle cx="628.7" cy="591.6" r="7" fill="#aa3344"/><circle cx="626.3" cy="589.2" r="2.4" fill="rgba(255,255,255,0.3)"/><circle cx="290.3" cy="546.0" r="9" fill="#aa3344"/><circle cx="287.2" cy="542.8" r="3.1" fill="rgba(255,255,255,0.3)"/><circle cx="221.9" cy="636.5" r="8" fill="#aa3344"/><circle cx="219.1" cy="633.7" r="2.8" fill="rgba(255,255,255,0.3)"/><circle cx="469.0" cy="254.1" r="8" fill="#aa3344"/><circle cx="466.2" cy="251.3" r="2.8" fill="rgba(255,255,255,0.3)"/><circle cx="298.4" cy="469.1" r="10" fill="#aa3344"/><circle cx="294.9" cy="465.6" r="3.5" fill="rgba(255,255,255,0.3)"/><circle cx="210.7" cy="498.7" r="9" fill="#aa3344"/><circle cx="207.5" cy="495.5" r="3.1" fill="rgba(255,255,255,0.3)"/><circle cx="421.8" cy="597.9" r="8" fill="#aa3344"/><circle cx="419.0" cy="595.1" r="2.8" fill="rgba(255,255,255,0.3)"/><circle cx="935.5" cy="545.7" r="9" fill="#aa3344"/><circle cx="932.4" cy="542.6" r="3.1" fill="rgba(255,255,255,0.3)"/><circle cx="484.3" cy="150.2" r="10" fill="#aa3344"/><circle cx="480.8" cy="146.7" r="3.5" fill="rgba(255,255,255,0.3)"/><circle cx="368.1" cy="172.4" r="7" fill="#aa3344"/><circle cx="365.6" cy="169.9" r="2.4" fill="rgba(255,255,255,0.3)"/><circle cx="938.2" cy="382.4" r="7" fill="#aa3344"/><circle cx="935.8" cy="380.0" r="2.4" fill="rgba(255,255,255,0.3)"/><circle cx="811.6" cy="284.1" r="10" fill="#aa3344"/><circle cx="808.1" cy="280.6" r="3.5" fill="rgba(255,255,255,0.3)"/><circle cx="212.1" cy="284.1" r="10" fill="#aa3344"/><circle cx="208.6" cy="280.6" r="3.5" fill="rgba(255,255,255,0.3)"/><circle cx="882.2" cy="300.6" r="10" fill="#aa3344"/><circle cx="878.7" cy="297.1" r="3.5" fill="rgba(255,255,255,0.3)"/><circle cx="687.9" cy="470.7" r="9" fill="#aa3344"/><circle cx="684.8" cy="467.6" r="3.1" fill="rgba(255,255,255,0.3)"/><circle cx="834.9" cy="322.1" r="9" fill="#aa3344"/><circle cx="831.7" cy="318.9" r="3.1" fill="rgba(255,255,255,0.3)"/><circle cx="974.5" cy="704.9" r="9" fill="#aa3344"/><circle cx="971.3" cy="701.7" r="3.1" fill="rgba(255,255,255,0.3)"/><circle cx="837.5" cy="395.3" r="9" fill="#aa3344"/><circle cx="834.3" cy="392.2" r="3.1" fill="rgba(255,255,255,0.3)"/><circle cx="637.7" cy="321.7" r="7" fill="#aa3344"/><circle cx="635.2" cy="319.3" r="2.4" fill="rgba(255,255,255,0.3)"/><circle cx="226.1" cy="524.8" r="7" fill="#aa3344"/><circle cx="223.7" cy="522.3" r="2.4" fill="rgba(255,255,255,0.3)"/><circle cx="765.6" cy="674.4" r="8" fill="#aa3344"/><circle cx="762.8" cy="671.6" r="2.8" fill="rgba(255,255,255,0.3)"/><circle cx="715.6" cy="165.8" r="9" fill="#aa3344"/><circle cx="712.5" cy="162.6" r="3.1" fill="rgba(255,255,255,0.3)"/><circle cx="558.7" cy="101.5" r="9" fill="#aa3344"/><circle cx="555.6" cy="98.4" r="3.1" fill="rgba(255,255,255,0.3)"/><circle cx="717.4" cy="142.4" r="9" fill="#aa3344"/><circle cx="714.3" cy="139.3" r="3.1" fill="rgba(255,255,255,0.3)"/><circle cx="565.4" cy="293.0" r="9" fill="#aa3344"/><circle cx="562.2" cy="289.9" r="3.1" fill="rgba(255,255,255,0.3)"/><circle cx="292.3" cy="164.6" r="7" fill="#aa3344"/><circle cx="289.9" cy="162.2" r="2.4" fill="rgba(255,255,255,0.3)"/><circle cx="414.7" cy="325.2" r="8" fill="#aa3344"/><circle cx="411.9" cy="322.4" r="2.8" fill="rgba(255,255,255,0.3)"/><circle cx="844.1" cy="186.2" r="10" fill="#aa3344"/><circle cx="840.6" cy="182.7" r="3.5" fill="rgba(255,255,255,0.3)"/><circle cx="907.1" cy="351.5" r="8" fill="#aa3344"/><circle cx="904.3" cy="348.7" r="2.8" fill="rgba(255,255,255,0.3)"/><circle cx="417.8" cy="714.4" r="7" fill="#aa3344"/><circle cx="415.4" cy="711.9" r="2.4" fill="rgba(255,255,255,0.3)"/><circle cx="887.4" cy="505.2" r="7" fill="#aa3344"/><circle cx="884.9" cy="502.7" r="2.4" fill="rgba(255,255,255,0.3)"/><circle cx="673.1" cy="558.5" r="8" fill="#aa3344"/><circle cx="670.3" cy="555.7" r="2.8" fill="rgba(255,255,255,0.3)"/><circle cx="994.6" cy="517.1" r="8" fill="#aa3344"/><circle cx="991.8" cy="514.3" r="2.8" fill="rgba(255,255,255,0.3)"/><circle cx="130.4" cy="693.7" r="10" fill="#aa3344"/><circle cx="126.9" cy="690.2" r="3.5" fill="rgba(255,255,255,0.3)"/><circle cx="836.0" cy="609.2" r="7" fill="#aa3344"/><circle cx="833.5" cy="606.8" r="2.4" fill="rgba(255,255,255,0.3)"/><circle cx="453.6" cy="62.3" r="7" fill="#aa3344"/><circle cx="451.2" cy="59.9" r="2.4" fill="rgba(255,255,255,0.3)"/><circle cx="809.5" cy="648.2" r="8" fill="#aa3344"/><circle cx="806.7" cy="645.4" r="2.8" fill="rgba(255,255,255,0.3)"/><circle cx="861.5" cy="322.5" r="8" fill="#aa3344"/><circle cx="858.7" cy="319.7" r="2.8" fill="rgba(255,255,255,0.3)"/><circle cx="375.2" cy="604.1" r="7" fill="#aa3344"/><circle cx="372.8" cy="601.6" r="2.4" fill="rgba(255,255,255,0.3)"/><circle cx="520" cy="460" r="140" fill="none" stroke="url(#frostRing)" stroke-width="16" opacity="0.8"/><circle cx="520" cy="460" r="140" fill="none" stroke="#aefbff" stroke-width="2" opacity="0.9"/><circle cx="660.0" cy="460.0" r="3" fill="#ffffff" opacity="0.9"/><circle cx="651.6" cy="507.9" r="3" fill="#ffffff" opacity="0.9"/><circle cx="627.2" cy="550.0" r="3" fill="#ffffff" opacity="0.9"/><circle cx="590.0" cy="581.2" r="3" fill="#ffffff" opacity="0.9"/><circle cx="544.3" cy="597.9" r="3" fill="#ffffff" opacity="0.9"/><circle cx="495.7" cy="597.9" r="3" fill="#ffffff" opacity="0.9"/><circle cx="450.0" cy="581.2" r="3" fill="#ffffff" opacity="0.9"/><circle cx="412.8" cy="550.0" r="3" fill="#ffffff" opacity="0.9"/><circle cx="388.4" cy="507.9" r="3" fill="#ffffff" opacity="0.9"/><circle cx="380.0" cy="460.0" r="3" fill="#ffffff" opacity="0.9"/><circle cx="388.4" cy="412.1" r="3" fill="#ffffff" opacity="0.9"/><circle cx="412.8" cy="370.0" r="3" fill="#ffffff" opacity="0.9"/><circle cx="450.0" cy="338.8" r="3" fill="#ffffff" opacity="0.9"/><circle cx="495.7" cy="322.1" r="3" fill="#ffffff" opacity="0.9"/><circle cx="544.3" cy="322.1" r="3" fill="#ffffff" opacity="0.9"/><circle cx="590.0" cy="338.8" r="3" fill="#ffffff" opacity="0.9"/><circle cx="627.2" cy="370.0" r="3" fill="#ffffff" opacity="0.9"/><circle cx="651.6" cy="412.1" r="3" fill="#ffffff" opacity="0.9"/><path d="M 540 440 q 140 -120 260 -10 q 80 40 -40 80" stroke="#ffaa55" stroke-width="3" fill="none" opacity="0.7" stroke-dasharray="4 6"/><circle cx="740" cy="370" r="9" fill="#ff9944"/><circle cx="980.0" cy="350.0" r="6" fill="#ffdd66"/><circle cx="953.3" cy="432.3" r="6" fill="#ffdd66"/><circle cx="883.3" cy="483.1" r="6" fill="#ffdd66"/><circle cx="796.7" cy="483.1" r="6" fill="#ffdd66"/><circle cx="726.7" cy="432.3" r="6" fill="#ffdd66"/><circle cx="700.0" cy="350.0" r="6" fill="#ffdd66"/><circle cx="726.7" cy="267.7" r="6" fill="#ffdd66"/><circle cx="796.7" cy="216.9" r="6" fill="#ffdd66"/><circle cx="883.3" cy="216.9" r="6" fill="#ffdd66"/><circle cx="953.3" cy="267.7" r="6" fill="#ffdd66"/><circle cx="576.6" cy="507.7" r="7" fill="#88ddff"/><circle cx="507.0" cy="532.9" r="7" fill="#88ddff"/><circle cx="450.4" cy="485.2" r="7" fill="#88ddff"/><circle cx="463.4" cy="412.3" r="7" fill="#88ddff"/><circle cx="533.0" cy="387.1" r="7" fill="#88ddff"/><circle cx="589.6" cy="434.8" r="7" fill="#88ddff"/><line x1="908.8096050341261" y1="257.38579603259143" x2="920.1" y2="260.5" stroke="#ffe066" stroke-width="1.5" opacity="0.8"/><line x1="908.8096050341261" y1="257.38579603259143" x2="907.7" y2="265.5" stroke="#ffe066" stroke-width="1.5" opacity="0.8"/><line x1="908.8096050341261" y1="257.38579603259143" x2="899.5" y2="255.1" stroke="#ffe066" stroke-width="1.5" opacity="0.8"/><line x1="908.8096050341261" y1="257.38579603259143" x2="909.8" y2="247.2" stroke="#ffe066" stroke-width="1.5" opacity="0.8"/><line x1="862.8243324908676" y1="297.3704799238472" x2="873.3" y2="299.1" stroke="#ffe066" stroke-width="1.5" opacity="0.8"/><line x1="862.8243324908676" y1="297.3704799238472" x2="862.8" y2="308.1" stroke="#ffe066" stroke-width="1.5" opacity="0.8"/><line x1="862.8243324908676" y1="297.3704799238472" x2="852.0" y2="297.0" stroke="#ffe066" stroke-width="1.5" opacity="0.8"/><line x1="862.8243324908676" y1="297.3704799238472" x2="865.7" y2="288.2" stroke="#ffe066" stroke-width="1.5" opacity="0.8"/><line x1="886.7572398519799" y1="416.3678219643713" x2="896.9" y2="418.8" stroke="#ffe066" stroke-width="1.5" opacity="0.8"/><line x1="886.7572398519799" y1="416.3678219643713" x2="885.3" y2="424.5" stroke="#ffe066" stroke-width="1.5" opacity="0.8"/><line x1="886.7572398519799" y1="416.3678219643713" x2="875.9" y2="415.9" stroke="#ffe066" stroke-width="1.5" opacity="0.8"/><line x1="886.7572398519799" y1="416.3678219643713" x2="888.0" y2="407.4" stroke="#ffe066" stroke-width="1.5" opacity="0.8"/><line x1="830.5878550120084" y1="260.07808560393744" x2="840.9" y2="262.7" stroke="#ffe066" stroke-width="1.5" opacity="0.8"/><line x1="830.5878550120084" y1="260.07808560393744" x2="829.6" y2="271.8" stroke="#ffe066" stroke-width="1.5" opacity="0.8"/><line x1="830.5878550120084" y1="260.07808560393744" x2="819.2" y2="258.3" stroke="#ffe066" stroke-width="1.5" opacity="0.8"/><line x1="830.5878550120084" y1="260.07808560393744" x2="830.7" y2="253.5" stroke="#ffe066" stroke-width="1.5" opacity="0.8"/><line x1="786.179267342429" y1="356.1342159919072" x2="797.2" y2="358.4" stroke="#ffe066" stroke-width="1.5" opacity="0.8"/><line x1="786.179267342429" y1="356.1342159919072" x2="783.8" y2="366.3" stroke="#ffe066" stroke-width="1.5" opacity="0.8"/><line x1="786.179267342429" y1="356.1342159919072" x2="774.4" y2="354.7" stroke="#ffe066" stroke-width="1.5" opacity="0.8"/><line x1="786.179267342429" y1="356.1342159919072" x2="788.4" y2="345.6" stroke="#ffe066" stroke-width="1.5" opacity="0.8"/><line x1="827.2786615166981" y1="231.21600888888065" x2="836.9" y2="234.1" stroke="#ffe066" stroke-width="1.5" opacity="0.8"/><line x1="827.2786615166981" y1="231.21600888888065" x2="825.5" y2="240.2" stroke="#ffe066" stroke-width="1.5" opacity="0.8"/><line x1="827.2786615166981" y1="231.21600888888065" x2="820.7" y2="231.0" stroke="#ffe066" stroke-width="1.5" opacity="0.8"/><line x1="827.2786615166981" y1="231.21600888888065" x2="828.7" y2="222.5" stroke="#ffe066" stroke-width="1.5" opacity="0.8"/><line x1="705.9815578603607" y1="409.16934464292007" x2="714.9" y2="411.2" stroke="#ffe066" stroke-width="1.5" opacity="0.8"/><line x1="705.9815578603607" y1="409.16934464292007" x2="705.8" y2="420.7" stroke="#ffe066" stroke-width="1.5" opacity="0.8"/><line x1="705.9815578603607" y1="409.16934464292007" x2="698.1" y2="409.1" stroke="#ffe066" stroke-width="1.5" opacity="0.8"/><line x1="705.9815578603607" y1="409.16934464292007" x2="707.3" y2="397.4" stroke="#ffe066" stroke-width="1.5" opacity="0.8"/><line x1="777.7349648563578" y1="391.1799331211548" x2="787.5" y2="393.9" stroke="#ffe066" stroke-width="1.5" opacity="0.8"/><line x1="777.7349648563578" y1="391.1799331211548" x2="775.7" y2="398.6" stroke="#ffe066" stroke-width="1.5" opacity="0.8"/><line x1="777.7349648563578" y1="391.1799331211548" x2="770.9" y2="391.2" stroke="#ffe066" stroke-width="1.5" opacity="0.8"/><line x1="777.7349648563578" y1="391.1799331211548" x2="779.0" y2="380.5" stroke="#ffe066" stroke-width="1.5" opacity="0.8"/><line x1="947.4156356022357" y1="386.94787883381264" x2="954.6" y2="387.9" stroke="#ffe066" stroke-width="1.5" opacity="0.8"/><line x1="947.4156356022357" y1="386.94787883381264" x2="947.2" y2="398.5" stroke="#ffe066" stroke-width="1.5" opacity="0.8"/><line x1="947.4156356022357" y1="386.94787883381264" x2="941.0" y2="385.2" stroke="#ffe066" stroke-width="1.5" opacity="0.8"/><line x1="947.4156356022357" y1="386.94787883381264" x2="949.9" y2="378.3" stroke="#ffe066" stroke-width="1.5" opacity="0.8"/><line x1="791.9901603903854" y1="352.7736327803775" x2="800.7" y2="354.0" stroke="#ffe066" stroke-width="1.5" opacity="0.8"/><line x1="791.9901603903854" y1="352.7736327803775" x2="790.8" y2="361.2" stroke="#ffe066" stroke-width="1.5" opacity="0.8"/><line x1="791.9901603903854" y1="352.7736327803775" x2="782.9" y2="352.6" stroke="#ffe066" stroke-width="1.5" opacity="0.8"/><line x1="791.9901603903854" y1="352.7736327803775" x2="792.2" y2="343.7" stroke="#ffe066" stroke-width="1.5" opacity="0.8"/><line x1="870.6527795187808" y1="265.3384613844213" x2="882.1" y2="268.3" stroke="#ffe066" stroke-width="1.5" opacity="0.8"/><line x1="870.6527795187808" y1="265.3384613844213" x2="869.4" y2="271.3" stroke="#ffe066" stroke-width="1.5" opacity="0.8"/><line x1="870.6527795187808" y1="265.3384613844213" x2="864.0" y2="263.4" stroke="#ffe066" stroke-width="1.5" opacity="0.8"/><line x1="870.6527795187808" y1="265.3384613844213" x2="872.2" y2="258.8" stroke="#ffe066" stroke-width="1.5" opacity="0.8"/><line x1="853.8028809563268" y1="465.8215740018687" x2="864.0" y2="467.9" stroke="#ffe066" stroke-width="1.5" opacity="0.8"/><line x1="853.8028809563268" y1="465.8215740018687" x2="853.0" y2="475.0" stroke="#ffe066" stroke-width="1.5" opacity="0.8"/><line x1="853.8028809563268" y1="465.8215740018687" x2="847.6" y2="465.2" stroke="#ffe066" stroke-width="1.5" opacity="0.8"/><line x1="853.8028809563268" y1="465.8215740018687" x2="854.8" y2="457.5" stroke="#ffe066" stroke-width="1.5" opacity="0.8"/><line x1="758.2264060080615" y1="406.50093809782146" x2="768.5" y2="407.3" stroke="#ffe066" stroke-width="1.5" opacity="0.8"/><line x1="758.2264060080615" y1="406.50093809782146" x2="757.1" y2="414.9" stroke="#ffe066" stroke-width="1.5" opacity="0.8"/><line x1="758.2264060080615" y1="406.50093809782146" x2="749.8" y2="405.7" stroke="#ffe066" stroke-width="1.5" opacity="0.8"/><line x1="758.2264060080615" y1="406.50093809782146" x2="759.5" y2="399.2" stroke="#ffe066" stroke-width="1.5" opacity="0.8"/><line x1="897.166147705635" y1="479.5046222657358" x2="908.1" y2="481.8" stroke="#ffe066" stroke-width="1.5" opacity="0.8"/><line x1="897.166147705635" y1="479.5046222657358" x2="896.1" y2="488.9" stroke="#ffe066" stroke-width="1.5" opacity="0.8"/><line x1="897.166147705635" y1="479.5046222657358" x2="888.5" y2="479.1" stroke="#ffe066" stroke-width="1.5" opacity="0.8"/><line x1="897.166147705635" y1="479.5046222657358" x2="898.6" y2="469.4" stroke="#ffe066" stroke-width="1.5" opacity="0.8"/><line x1="816.561347610231" y1="311.2255834187055" x2="822.9" y2="311.8" stroke="#ffe066" stroke-width="1.5" opacity="0.8"/><line x1="816.561347610231" y1="311.2255834187055" x2="815.4" y2="319.8" stroke="#ffe066" stroke-width="1.5" opacity="0.8"/><line x1="816.561347610231" y1="311.2255834187055" x2="809.0" y2="309.4" stroke="#ffe066" stroke-width="1.5" opacity="0.8"/><line x1="816.561347610231" y1="311.2255834187055" x2="818.2" y2="299.6" stroke="#ffe066" stroke-width="1.5" opacity="0.8"/><line x1="750.3803906360622" y1="292.3057925909944" x2="759.9" y2="294.2" stroke="#ffe066" stroke-width="1.5" opacity="0.8"/><line x1="750.3803906360622" y1="292.3057925909944" x2="749.9" y2="298.5" stroke="#ffe066" stroke-width="1.5" opacity="0.8"/><line x1="750.3803906360622" y1="292.3057925909944" x2="742.0" y2="291.2" stroke="#ffe066" stroke-width="1.5" opacity="0.8"/><line x1="750.3803906360622" y1="292.3057925909944" x2="751.9" y2="284.4" stroke="#ffe066" stroke-width="1.5" opacity="0.8"/><line x1="799.1046615826514" y1="433.9269074923925" x2="809.4" y2="434.2" stroke="#ffe066" stroke-width="1.5" opacity="0.8"/><line x1="799.1046615826514" y1="433.9269074923925" x2="799.0" y2="444.9" stroke="#ffe066" stroke-width="1.5" opacity="0.8"/><line x1="799.1046615826514" y1="433.9269074923925" x2="791.6" y2="433.3" stroke="#ffe066" stroke-width="1.5" opacity="0.8"/><line x1="799.1046615826514" y1="433.9269074923925" x2="801.2" y2="422.2" stroke="#ffe066" stroke-width="1.5" opacity="0.8"/><line x1="751.3830029212745" y1="459.0052302173926" x2="760.5" y2="460.9" stroke="#ffe066" stroke-width="1.5" opacity="0.8"/><line x1="751.3830029212745" y1="459.0052302173926" x2="749.5" y2="469.0" stroke="#ffe066" stroke-width="1.5" opacity="0.8"/><line x1="751.3830029212745" y1="459.0052302173926" x2="739.7" y2="458.6" stroke="#ffe066" stroke-width="1.5" opacity="0.8"/><line x1="751.3830029212745" y1="459.0052302173926" x2="752.1" y2="447.9" stroke="#ffe066" stroke-width="1.5" opacity="0.8"/><line x1="906.4487754979317" y1="490.2905768160181" x2="916.0" y2="491.4" stroke="#ffe066" stroke-width="1.5" opacity="0.8"/><line x1="906.4487754979317" y1="490.2905768160181" x2="905.6" y2="497.3" stroke="#ffe066" stroke-width="1.5" opacity="0.8"/><line x1="906.4487754979317" y1="490.2905768160181" x2="895.4" y2="488.6" stroke="#ffe066" stroke-width="1.5" opacity="0.8"/><line x1="906.4487754979317" y1="490.2905768160181" x2="908.5" y2="479.9" stroke="#ffe066" stroke-width="1.5" opacity="0.8"/><line x1="824.0003226734252" y1="435.7287735461424" x2="832.4" y2="436.6" stroke="#ffe066" stroke-width="1.5" opacity="0.8"/><line x1="824.0003226734252" y1="435.7287735461424" x2="822.4" y2="444.1" stroke="#ffe066" stroke-width="1.5" opacity="0.8"/><line x1="824.0003226734252" y1="435.7287735461424" x2="817.9" y2="434.0" stroke="#ffe066" stroke-width="1.5" opacity="0.8"/><line x1="824.0003226734252" y1="435.7287735461424" x2="825.3" y2="424.8" stroke="#ffe066" stroke-width="1.5" opacity="0.8"/><line x1="890.6306298936647" y1="363.1997818902047" x2="897.2" y2="363.9" stroke="#ffe066" stroke-width="1.5" opacity="0.8"/><line x1="890.6306298936647" y1="363.1997818902047" x2="888.6" y2="373.4" stroke="#ffe066" stroke-width="1.5" opacity="0.8"/><line x1="890.6306298936647" y1="363.1997818902047" x2="880.7" y2="361.4" stroke="#ffe066" stroke-width="1.5" opacity="0.8"/><line x1="890.6306298936647" y1="363.1997818902047" x2="891.2" y2="357.2" stroke="#ffe066" stroke-width="1.5" opacity="0.8"/><line x1="799.9680009954006" y1="252.24509411087118" x2="808.3" y2="253.1" stroke="#ffe066" stroke-width="1.5" opacity="0.8"/><line x1="799.9680009954006" y1="252.24509411087118" x2="799.9" y2="259.6" stroke="#ffe066" stroke-width="1.5" opacity="0.8"/><line x1="799.9680009954006" y1="252.24509411087118" x2="789.0" y2="250.0" stroke="#ffe066" stroke-width="1.5" opacity="0.8"/><line x1="799.9680009954006" y1="252.24509411087118" x2="800.9" y2="240.9" stroke="#ffe066" stroke-width="1.5" opacity="0.8"/><circle cx="763.4" cy="333.4" r="8.4" fill="rgba(180,180,200,0.24939452896825967)"/><circle cx="762.2" cy="335.0" r="15.6" fill="rgba(180,180,200,0.12377744666766374)"/><circle cx="759.5" cy="324.6" r="9.8" fill="rgba(180,180,200,0.23968149372842162)"/><circle cx="657.3" cy="443.1" r="12.9" fill="rgba(180,180,200,0.18362599020358172)"/><circle cx="663.4" cy="438.1" r="13.2" fill="rgba(180,180,200,0.1925457886699587)"/><circle cx="652.6" cy="441.2" r="15.5" fill="rgba(180,180,200,0.15634929513791576)"/><circle cx="723.1" cy="256.1" r="10.0" fill="rgba(180,180,200,0.25819330336991697)"/><circle cx="717.3" cy="254.6" r="8.3" fill="rgba(180,180,200,0.1580500570172444)"/><circle cx="725.4" cy="259.6" r="15.8" fill="rgba(180,180,200,0.2211250597424805)"/><circle cx="999.1" cy="242.2" r="7.4" fill="rgba(180,180,200,0.22339038544334472)"/><circle cx="997.2" cy="237.4" r="9.8" fill="rgba(180,180,200,0.14056169339921326)"/><circle cx="988.5" cy="238.7" r="13.2" fill="rgba(180,180,200,0.17328719577519222)"/><circle cx="708.9" cy="385.3" r="12.3" fill="rgba(180,180,200,0.1847021251847036)"/><circle cx="713.7" cy="384.4" r="15.8" fill="rgba(180,180,200,0.2235136076621711)"/><circle cx="700.8" cy="380.5" r="12.3" fill="rgba(180,180,200,0.2201740100677125)"/><circle cx="823.7" cy="231.7" r="12.2" fill="rgba(180,180,200,0.1739483302971348)"/><circle cx="822.8" cy="234.5" r="10.7" fill="rgba(180,180,200,0.15550519030541182)"/><circle cx="829.9" cy="228.6" r="6.7" fill="rgba(180,180,200,0.13511089639971033)"/><circle cx="727.2" cy="544.1" r="15.4" fill="rgba(180,180,200,0.1273877411778085)"/><circle cx="736.0" cy="543.8" r="14.5" fill="rgba(180,180,200,0.176324689113535)"/><circle cx="727.9" cy="535.5" r="13.9" fill="rgba(180,180,200,0.24344661840470505)"/><circle cx="905.4" cy="477.4" r="10.0" fill="rgba(180,180,200,0.1372003012499772)"/><circle cx="912.3" cy="474.9" r="11.7" fill="rgba(180,180,200,0.18083583530271424)"/><circle cx="907.2" cy="482.4" r="10.6" fill="rgba(180,180,200,0.13123297254089267)"/><circle cx="885.1" cy="403.6" r="8.2" fill="rgba(180,180,200,0.2617928766226396)"/><circle cx="888.0" cy="405.7" r="15.9" fill="rgba(180,180,200,0.17565348865929992)"/><circle cx="889.1" cy="406.8" r="15.7" fill="rgba(180,180,200,0.2604685572255403)"/><circle cx="924.0" cy="427.2" r="15.5" fill="rgba(180,180,200,0.16321165652945638)"/><circle cx="924.1" cy="426.9" r="10.0" fill="rgba(180,180,200,0.1733269737730734)"/><circle cx="929.3" cy="436.6" r="9.0" fill="rgba(180,180,200,0.25725519709987565)"/><circle cx="791.3" cy="180.6" r="8.1" fill="rgba(180,180,200,0.15424791331635787)"/><circle cx="783.6" cy="176.3" r="7.4" fill="rgba(180,180,200,0.1926788958418183)"/><circle cx="781.9" cy="185.6" r="14.3" fill="rgba(180,180,200,0.18740080799208952)"/><circle cx="941.6" cy="369.6" r="15.8" fill="rgba(180,180,200,0.1943380186613649)"/><circle cx="944.4" cy="380.3" r="12.9" fill="rgba(180,180,200,0.22213433360913767)"/><circle cx="950.0" cy="372.0" r="9.1" fill="rgba(180,180,200,0.22991112120682372)"/><text x="830" y="270" font-family="sans-serif" font-size="22" fill="#ff7777" font-weight="bold">CRIT 184!</text>

        <circle cx="840" cy="350" r="110" fill="#330000" opacity="0.45"/>
        <circle cx="840" cy="350" r="70" fill="#aa0033"/>
        <circle cx="840" cy="350" r="40" fill="#ff5577"/>
        <circle cx="832" cy="342" r="18" fill="#ffccd9"/>
        <circle cx="860" cy="336" r="6" fill="#ffffff"/>
        <circle cx="818" cy="356" r="6" fill="#ffffff"/>

        <circle cx="520" cy="460" r="60" fill="url(#heroGlow)"/>
        <circle cx="520" cy="460" r="20" fill="#44aaff"/>
        <circle cx="520" cy="460" r="11" fill="#cfeaff"/>
        <circle cx="516" cy="456" r="3" fill="#ffffff"/>
<rect x="0" y="90" width="1200" height="60" fill="rgba(170,0,40,0.65)"/>
<rect x="0" y="88" width="1200" height="2" fill="#ff4477"/>
<rect x="0" y="150" width="1200" height="2" fill="#ff4477"/>
<text x="600" y="130" text-anchor="middle" font-family="Impact, sans-serif" font-size="34" fill="#ffe6ec" letter-spacing="6">A BOSS APPROACHES — VOID LORD</text>
<rect x="380" y="650" width="440" height="18" rx="4" fill="rgba(0,0,0,0.6)" stroke="#552233"/>
<rect x="382" y="652" width="273" height="14" rx="3" fill="url(#hpGrad)"/>
<text x="600" y="688" text-anchor="middle" font-family="monospace" font-size="14" fill="#ffcfe0">VOID LORD — 620 / 1000</text>
<rect x="0" y="0" width="1200" height="56" fill="rgba(0,0,0,0.6)"/><text x="24" y="36" font-family="monospace" font-size="20" fill="#cfeaff">LV 14</text><text x="110" y="36" font-family="monospace" font-size="20" fill="#cfeaff">⏱ 05:07</text><text x="240" y="36" font-family="monospace" font-size="20" fill="#cfeaff">☠ 1284</text><rect x="380" y="18" width="220" height="16" rx="4" fill="rgba(255,255,255,0.12)"/><rect x="380" y="18" width="77" height="16" rx="4" fill="url(#hpGrad)"/><text x="610" y="31" font-family="monospace" font-size="13" fill="#ffe6ec">HP 42/120</text><rect x="380" y="38" width="220" height="8" rx="3" fill="rgba(255,255,255,0.12)"/><rect x="380" y="38" width="172" height="8" rx="3" fill="url(#expGrad)"/><rect x="1080" y="14" width="96" height="30" rx="6" fill="rgba(0,0,0,0.5)" stroke="#2a3450"/><text x="1128" y="34" text-anchor="middle" font-family="monospace" font-size="14" fill="#7df4d3">60 fps</text><rect x="20" y="730" width="48" height="48" rx="8" fill="rgba(10,20,40,0.75)" stroke="#3a5dbb" stroke-width="1.5"/><text x="44" y="762" text-anchor="middle" font-family="sans-serif" font-size="22" fill="#ffe066">⚔</text><rect x="24" y="774" width="40" height="3" fill="#ffe066" opacity="0.8"/><rect x="74" y="730" width="48" height="48" rx="8" fill="rgba(10,20,40,0.75)" stroke="#3a5dbb" stroke-width="1.5"/><text x="98" y="762" text-anchor="middle" font-family="sans-serif" font-size="22" fill="#ffe066">✦</text><rect x="78" y="774" width="40" height="3" fill="#ffe066" opacity="0.8"/><rect x="128" y="730" width="48" height="48" rx="8" fill="rgba(10,20,40,0.75)" stroke="#3a5dbb" stroke-width="1.5"/><text x="152" y="762" text-anchor="middle" font-family="sans-serif" font-size="22" fill="#ffe066">❄</text><rect x="132" y="774" width="40" height="3" fill="#ffe066" opacity="0.8"/><rect x="182" y="730" width="48" height="48" rx="8" fill="rgba(10,20,40,0.75)" stroke="#3a5dbb" stroke-width="1.5"/><text x="206" y="762" text-anchor="middle" font-family="sans-serif" font-size="22" fill="#ffe066">↺</text><rect x="186" y="774" width="40" height="3" fill="#ffe066" opacity="0.8"/><rect x="236" y="730" width="48" height="48" rx="8" fill="rgba(10,20,40,0.75)" stroke="#3a5dbb" stroke-width="1.5"/><text x="260" y="762" text-anchor="middle" font-family="sans-serif" font-size="22" fill="#ffe066">⊙</text><rect x="240" y="774" width="40" height="3" fill="#ffe066" opacity="0.8"/><rect x="1130" y="730" width="48" height="48" rx="8" fill="rgba(10,20,40,0.75)" stroke="#7d9aff" stroke-width="1.5"/><text x="1154" y="762" text-anchor="middle" font-family="sans-serif" font-size="22" fill="#9ecaff">♥</text><rect x="1076" y="730" width="48" height="48" rx="8" fill="rgba(10,20,40,0.75)" stroke="#7d9aff" stroke-width="1.5"/><text x="1100" y="762" text-anchor="middle" font-family="sans-serif" font-size="22" fill="#9ecaff">⚡</text><rect x="1022" y="730" width="48" height="48" rx="8" fill="rgba(10,20,40,0.75)" stroke="#7d9aff" stroke-width="1.5"/><text x="1046" y="762" text-anchor="middle" font-family="sans-serif" font-size="22" fill="#9ecaff">🧲</text><rect x="968" y="730" width="48" height="48" rx="8" fill="rgba(10,20,40,0.75)" stroke="#7d9aff" stroke-width="1.5"/><text x="992" y="762" text-anchor="middle" font-family="sans-serif" font-size="22" fill="#9ecaff">🛡</text><rect x="528" y="730" width="144" height="48" rx="6" fill="rgba(10,15,30,0.7)" stroke="#2a3450"/><circle cx="600" cy="754" r="4" fill="#44aaff"/><circle cx="541.4" cy="736.5" r="1.6" fill="#ff4466"/><circle cx="626.5" cy="767.9" r="1.6" fill="#ff4466"/><circle cx="635.6" cy="746.4" r="1.6" fill="#ff4466"/><circle cx="564.5" cy="746.6" r="1.6" fill="#ff4466"/><circle cx="563.1" cy="773.2" r="1.6" fill="#ff4466"/><circle cx="639.3" cy="770.5" r="1.6" fill="#ff4466"/><circle cx="628.2" cy="734.1" r="1.6" fill="#ff4466"/><circle cx="553.6" cy="753.5" r="1.6" fill="#ff4466"/><circle cx="581.1" cy="771.8" r="1.6" fill="#ff4466"/><circle cx="645.4" cy="755.4" r="1.6" fill="#ff4466"/><circle cx="604.2" cy="738.5" r="1.6" fill="#ff4466"/><circle cx="651.8" cy="748.2" r="1.6" fill="#ff4466"/><circle cx="572.7" cy="750.8" r="1.6" fill="#ff4466"/><circle cx="633.6" cy="744.0" r="1.6" fill="#ff4466"/><circle cx="613.1" cy="767.7" r="1.6" fill="#ff4466"/><circle cx="628.3" cy="766.1" r="1.6" fill="#ff4466"/><circle cx="568.9" cy="762.3" r="1.6" fill="#ff4466"/><circle cx="605.8" cy="749.8" r="1.6" fill="#ff4466"/><circle cx="650.8" cy="744.6" r="1.6" fill="#ff4466"/><circle cx="616.7" cy="742.8" r="1.6" fill="#ff4466"/><circle cx="581.0" cy="741.6" r="1.6" fill="#ff4466"/><circle cx="601.9" cy="769.7" r="1.6" fill="#ff4466"/><circle cx="587.4" cy="762.0" r="1.6" fill="#ff4466"/><circle cx="603.2" cy="738.2" r="1.6" fill="#ff4466"/><circle cx="642.5" cy="750.7" r="1.6" fill="#ff4466"/><circle cx="563.3" cy="771.0" r="1.6" fill="#ff4466"/><circle cx="558.3" cy="770.0" r="1.6" fill="#ff4466"/><circle cx="612.8" cy="748.7" r="1.6" fill="#ff4466"/><circle cx="649.4" cy="738.5" r="1.6" fill="#ff4466"/><circle cx="603.5" cy="763.9" r="1.6" fill="#ff4466"/>
</svg>