<svg xmlns="http://www.w3.org/2000/svg" viewBox="0 0 1200 800" width="1200" height="800" >
<defs>
        <radialGradient id="bgCool" cx="50%" cy="50%" r="70%">
            <stop offset="0%" stop-color="#1a2344"/>
            <stop offset="100%" stop-color="#05070f"/>
        </radialGradient>
        <radialGradient id="bgWarm" cx="50%" cy="50%" r="70%">
            <stop offset="0%" stop-color="#3a0e1c"/>
            <stop offset="100%" stop-color="#0a0510"/>
        </radialGradient>
        <radialGradient id="heroGlow" cx="50%" cy="50%" r="50%">
            <stop offset="0%" stop-color="#9cd6ff" stop-opacity="0.7"/>
            <stop offset="60%" stop-color="#44aaff" stop-opacity="0.25"/>
            <stop offset="100%" stop-color="#44aaff" stop-opacity="0"/>
        </radialGradient>
        <radialGradient id="frostRing" cx="50%" cy="50%" r="50%">
            <stop offset="0%" stop-color="#aefbff" stop-opacity="0"/>
            <stop offset="78%" stop-color="#aefbff" stop-opacity="0.9"/>
            <stop offset="100%" stop-color="#aefbff" stop-opacity="0"/>
        </radialGradient>
        <linearGradient id="hpGrad" x1="0" x2="1">
            <stop offset="0%" stop-color="#ff7d9c"/>
            <stop offset="100%" stop-color="#ff3355"/>
        </linearGradient>
        <linearGradient id="expGrad" x1="0" x2="1">
            <stop offset="0%" stop-color="#7df4d3"/>
            <stop offset="100%" stop-color="#3ad0aa"/>
        </linearGradient>
        <filter id="soft" x="-20%" y="-20%" width="140%" height="140%">
            <feGaussianBlur stdDeviation="2.2"/>
        </filter>
        
    </defs>
<rect width="1200" height="800" fill="url(#bgWarm)"/>
<line x1="0" y1="0" x2="0" y2="800" stroke="#2a0e18" stroke-width="1" opacity="0.3"/><line x1="50" y1="0" x2="50" y2="800" stroke="#2a0e18" stroke-width="1" opacity="0.3"/><line x1="100" y1="0" x2="100" y2="800" stroke="#2a0e18" stroke-width="1" opacity="0.3"/><line x1="150" y1="0" x2="150" y2="800" stroke="#2a0e18" stroke-width="1" opacity="0.3"/><line x1="200" y1="0" x2="200" y2="800" stroke="#2a0e18" stroke-width="1" opacity="0.3"/><line x1="250" y1="0" x2="250" y2="800" stroke="#2a0e18" stroke-width="1" opacity="0.3"/><line x1="300" y1="0" x2="300" y2="800" stroke="#2a0e18" stroke-width="1" opacity="0.3"/><line x1="350" y1="0" x2="350" y2="800" stroke="#2a0e18" stroke-width="1" opacity="0.3"/><line x1="400" y1="0" x2="400" y2="800" stroke="#2a0e18" stroke-width="1" opacity="0.3"/><line x1="450" y1="0" x2="450" y2="800" stroke="#2a0e18" stroke-width="1" opacity="0.3"/><line x1="500" y1="0" x2="500" y2="800" stroke="#2a0e18" stroke-width="1" opacity="0.3"/><line x1="550" y1="0" x2="550" y2="800" stroke="#2a0e18" stroke-width="1" opacity="0.3"/><line x1="600" y1="0" x2="600" y2="800" stroke="#2a0e18" stroke-width="1" opacity="0.3"/><line x1="650" y1="0" x2="650" y2="800" stroke="#2a0e18" stroke-width="1" opacity="0.3"/><line x1="700" y1="0" x2="700" y2="800" stroke="#2a0e18" stroke-width="1" opacity="0.3"/><line x1="750" y1="0" x2="750" y2="800" stroke="#2a0e18" stroke-width="1" opacity="0.3"/><line x1="800" y1="0" x2="800" y2="800" stroke="#2a0e18" stroke-width="1" opacity="0.3"/><line x1="850" y1="0" x2="850" y2="800" stroke="#2a0e18" stroke-width="1" opacity="0.3"/><line x1="900" y1="0" x2="900" y2="800" stroke="#2a0e18" stroke-width="1" opacity="0.3"/><line x1="950" y1="0" x2="950" y2="800" stroke="#2a0e18" stroke-width="1" opacity="0.3"/><line x1="1000" y1="0" x2="1000" y2="800" stroke="#2a0e18" stroke-width="1" opacity="0.3"/><line x1="1050" y1="0" x2="1050" y2="800" stroke="#2a0e18" stroke-width="1" opacity="0.3"/><line x1="1100" y1="0" x2="1100" y2="800" stroke="#2a0e18" stroke-width="1" opacity="0.3"/><line x1="1150" y1="0" x2="1150" y2="800" stroke="#2a0e18" stroke-width="1" opacity="0.3"/><line x1="1200" y1="0" x2="1200" y2="800" stroke="#2a0e18" stroke-width="1" opacity="0.3"/><line x1="0" y1="0" x2="1200" y2="0" stroke="#2a0e18" stroke-width="1" opacity="0.3"/><line x1="0" y1="50" x2="1200" y2="50" stroke="#2a0e18" stroke-width="1" opacity="0.3"/><line x1="0" y1="100" x2="1200" y2="100" stroke="#2a0e18" stroke-width="1" opacity="0.3"/><line x1="0" y1="150" x2="1200" y2="150" stroke="#2a0e18" stroke-width="1" opacity="0.3"/><line x1="0" y1="200" x2="1200" y2="200" stroke="#2a0e18" stroke-width="1" opacity="0.3"/><line x1="0" y1="250" x2="1200" y2="250" stroke="#2a0e18" stroke-width="1" opacity="0.3"/><line x1="0" y1="300" x2="1200" y2="300" stroke="#2a0e18" stroke-width="1" opacity="0.3"/><line x1="0" y1="350" x2="1200" y2="350" stroke="#2a0e18" stroke-width="1" opacity="0.3"/><line x1="0" y1="400" x2="1200" y2="400" stroke="#2a0e18" stroke-width="1" opacity="0.3"/><line x1="0" y1="450" x2="1200" y2="450" stroke="#2a0e18" stroke-width="1" opacity="0.3"/><line x1="0" y1="500" x2="1200" y2="500" stroke="#2a0e18" stroke-width="1" opacity="0.3"/><line x1="0" y1="550" x2="1200" y2="550" stroke="#2a0e18" stroke-width="1" opacity="0.3"/><line x1="0" y1="600" x2="1200" y2="600" stroke="#2a0e18" stroke-width="1" opacity="0.3"/><line x1="0" y1="650" x2="1200" y2="650" stroke="#2a0e18" stroke-width="1" opacity="0.3"/><line x1="0" y1="700" x2="1200" y2="700" stroke="#2a0e18" stroke-width="1" opacity="0.3"/><line x1="0" y1="750" x2="1200" y2="750" stroke="#2a0e18" stroke-width="1" opacity="0.3"/><line x1="0" y1="800" x2="1200" y2="800" stroke="#2a0e18" stroke-width="1" opacity="0.3"/>
<circle cx="357.1" cy="-57.1" r="6" fill="#3a1a20"/><circle cx="355.0" cy="-59.2" r="2.1" fill="rgba(255,255,255,0.3)"/><circle cx="599.5" cy="181.4" r="6" fill="#3a1a20"/><circle cx="597.4" cy="179.3" r="2.1" fill="rgba(255,255,255,0.3)"/><circle cx="313.0" cy="565.5" r="6" fill="#3a1a20"/><circle cx="310.9" cy="563.4" r="2.1" fill="rgba(255,255,255,0.3)"/><circle cx="1093.2" cy="652.3" r="6" fill="#3a1a20"/><circle cx="1091.1" cy="650.2" r="2.1" fill="rgba(255,255,255,0.3)"/><circle cx="773.0" cy="-17.8" r="6" fill="#3a1a20"/><circle cx="770.9" cy="-19.9" r="2.1" fill="rgba(255,255,255,0.3)"/><circle cx="395.5" cy="831.5" r="6" fill="#3a1a20"/><circle cx="393.4" cy="829.4" r="2.1" fill="rgba(255,255,255,0.3)"/><circle cx="276.6" cy="241.1" r="6" fill="#3a1a20"/><circle cx="274.5" cy="239.0" r="2.1" fill="rgba(255,255,255,0.3)"/><circle cx="558.1" cy="186.0" r="6" fill="#3a1a20"/><circle cx="556.0" cy="183.9" r="2.1" fill="rgba(255,255,255,0.3)"/><circle cx="490.2" cy="-76.4" r="6" fill="#3a1a20"/><circle cx="488.1" cy="-78.5" r="2.1" fill="rgba(255,255,255,0.3)"/><circle cx="772.3" cy="145.0" r="6" fill="#3a1a20"/><circle cx="770.2" cy="142.9" r="2.1" fill="rgba(255,255,255,0.3)"/><circle cx="976.0" cy="45.7" r="6" fill="#3a1a20"/><circle cx="973.9" cy="43.6" r="2.1" fill="rgba(255,255,255,0.3)"/><circle cx="670.7" cy="-100.5" r="6" fill="#3a1a20"/><circle cx="668.6" cy="-102.6" r="2.1" fill="rgba(255,255,255,0.3)"/><circle cx="1032.6" cy="280.2" r="6" fill="#3a1a20"/><circle cx="1030.5" cy="278.1" r="2.1" fill="rgba(255,255,255,0.3)"/><circle cx="458.7" cy="240.2" r="6" fill="#3a1a20"/><circle cx="456.6" cy="238.1" r="2.1" fill="rgba(255,255,255,0.3)"/><circle cx="724.8" cy="637.4" r="6" fill="#3a1a20"/><circle cx="722.7" cy="635.3" r="2.1" fill="rgba(255,255,255,0.3)"/><circle cx="511.3" cy="107.2" r="6" fill="#3a1a20"/><circle cx="509.2" cy="105.1" r="2.1" fill="rgba(255,255,255,0.3)"/><circle cx="521.5" cy="849.2" r="6" fill="#3a1a20"/><circle cx="519.4" cy="847.1" r="2.1" fill="rgba(255,255,255,0.3)"/><circle cx="261.1" cy="-62.7" r="6" fill="#3a1a20"/><circle cx="259.0" cy="-64.8" r="2.1" fill="rgba(255,255,255,0.3)"/><circle cx="815.8" cy="-69.7" r="6" fill="#3a1a20"/><circle cx="813.7" cy="-71.8" r="2.1" fill="rgba(255,255,255,0.3)"/><circle cx="842.5" cy="182.4" r="6" fill="#3a1a20"/><circle cx="840.4" cy="180.3" r="2.1" fill="rgba(255,255,255,0.3)"/><circle cx="345.3" cy="628.4" r="6" fill="#3a1a20"/><circle cx="343.2" cy="626.3" r="2.1" fill="rgba(255,255,255,0.3)"/><circle cx="1070.6" cy="614.9" r="6" fill="#3a1a20"/><circle cx="1068.5" cy="612.8" r="2.1" fill="rgba(255,255,255,0.3)"/><circle cx="954.0" cy="417.9" r="6" fill="#3a1a20"/><circle cx="951.9" cy="415.8" r="2.1" fill="rgba(255,255,255,0.3)"/><circle cx="955.9" cy="504.2" r="6" fill="#3a1a20"/><circle cx="953.8" cy="502.1" r="2.1" fill="rgba(255,255,255,0.3)"/><circle cx="1032.6" cy="28.6" r="6" fill="#3a1a20"/><circle cx="1030.5" cy="26.5" r="2.1" fill="rgba(255,255,255,0.3)"/><circle cx="314.3" cy="-23.1" r="6" fill="#3a1a20"/><circle cx="312.2" cy="-25.2" r="2.1" fill="rgba(255,255,255,0.3)"/><circle cx="263.3" cy="317.8" r="6" fill="#3a1a20"/><circle cx="261.2" cy="315.7" r="2.1" fill="rgba(255,255,255,0.3)"/><circle cx="931.6" cy="855.7" r="6" fill="#3a1a20"/><circle cx="929.5" cy="853.6" r="2.1" fill="rgba(255,255,255,0.3)"/><circle cx="511.5" cy="-158.8" r="6" fill="#3a1a20"/><circle cx="509.4" cy="-160.9" r="2.1" fill="rgba(255,255,255,0.3)"/><circle cx="721.2" cy="122.9" r="6" fill="#3a1a20"/><circle cx="719.1" cy="120.8" r="2.1" fill="rgba(255,255,255,0.3)"/><circle cx="709.6" cy="62.3" r="6" fill="#3a1a20"/><circle cx="707.5" cy="60.2" r="2.1" fill="rgba(255,255,255,0.3)"/><circle cx="944.7" cy="34.6" r="6" fill="#3a1a20"/><circle cx="942.6" cy="32.5" r="2.1" fill="rgba(255,255,255,0.3)"/><circle cx="933.8" cy="219.6" r="6" fill="#3a1a20"/><circle cx="931.7" cy="217.5" r="2.1" fill="rgba(255,255,255,0.3)"/><circle cx="238.5" cy="785.8" r="6" fill="#3a1a20"/><circle cx="236.4" cy="783.7" r="2.1" fill="rgba(255,255,255,0.3)"/><circle cx="680.4" cy="888.9" r="6" fill="#3a1a20"/><circle cx="678.3" cy="886.8" r="2.1" fill="rgba(255,255,255,0.3)"/><circle cx="230.0" cy="747.6" r="6" fill="#3a1a20"/><circle cx="227.9" cy="745.5" r="2.1" fill="rgba(255,255,255,0.3)"/><circle cx="1027.4" cy="749.5" r="6" fill="#3a1a20"/><circle cx="1025.3" cy="747.4" r="2.1" fill="rgba(255,255,255,0.3)"/><circle cx="878.8" cy="837.6" r="6" fill="#3a1a20"/><circle cx="876.7" cy="835.5" r="2.1" fill="rgba(255,255,255,0.3)"/><circle cx="57.0" cy="285.1" r="6" fill="#3a1a20"/><circle cx="54.9" cy="283.0" r="2.1" fill="rgba(255,255,255,0.3)"/><circle cx="225.5" cy="442.5" r="6" fill="#3a1a20"/><circle cx="223.4" cy="440.4" r="2.1" fill="rgba(255,255,255,0.3)"/><circle cx="276.3" cy="438.0" r="6" fill="#3a1a20"/><circle cx="274.2" cy="435.9" r="2.1" fill="rgba(255,255,255,0.3)"/><circle cx="914.8" cy="691.3" r="6" fill="#3a1a20"/><circle cx="912.7" cy="689.2" r="2.1" fill="rgba(255,255,255,0.3)"/><circle cx="213.8" cy="487.8" r="6" fill="#3a1a20"/><circle cx="211.7" cy="485.7" r="2.1" fill="rgba(255,255,255,0.3)"/><circle cx="184.9" cy="394.9" r="6" fill="#3a1a20"/><circle cx="182.8" cy="392.8" r="2.1" fill="rgba(255,255,255,0.3)"/><circle cx="766.4" cy="767.7" r="6" fill="#3a1a20"/><circle cx="764.3" cy="765.6" r="2.1" fill="rgba(255,255,255,0.3)"/><circle cx="866.4" cy="133.8" r="6" fill="#3a1a20"/><circle cx="864.3" cy="131.7" r="2.1" fill="rgba(255,255,255,0.3)"/><circle cx="116.7" cy="544.4" r="6" fill="#3a1a20"/><circle cx="114.6" cy="542.3" r="2.1" fill="rgba(255,255,255,0.3)"/><circle cx="388.7" cy="277.9" r="6" fill="#3a1a20"/><circle cx="386.6" cy="275.8" r="2.1" fill="rgba(255,255,255,0.3)"/><circle cx="474.8" cy="637.8" r="6" fill="#3a1a20"/><circle cx="472.7" cy="635.7" r="2.1" fill="rgba(255,255,255,0.3)"/><circle cx="889.6" cy="224.1" r="6" fill="#3a1a20"/><circle cx="887.5" cy="222.0" r="2.1" fill="rgba(255,255,255,0.3)"/><circle cx="920.8" cy="460.1" r="6" fill="#3a1a20"/><circle cx="918.7" cy="458.0" r="2.1" fill="rgba(255,255,255,0.3)"/><circle cx="319.2" cy="167.5" r="6" fill="#3a1a20"/><circle cx="317.1" cy="165.4" r="2.1" fill="rgba(255,255,255,0.3)"/><circle cx="399.3" cy="533.3" r="6" fill="#3a1a20"/><circle cx="397.2" cy="531.2" r="2.1" fill="rgba(255,255,255,0.3)"/><circle cx="1019.9" cy="604.6" r="6" fill="#3a1a20"/><circle cx="1017.8" cy="602.5" r="2.1" fill="rgba(255,255,255,0.3)"/><circle cx="184.3" cy="428.4" r="6" fill="#3a1a20"/><circle cx="182.2" cy="426.3" r="2.1" fill="rgba(255,255,255,0.3)"/><circle cx="265.6" cy="495.7" r="6" fill="#3a1a20"/><circle cx="263.5" cy="493.6" r="2.1" fill="rgba(255,255,255,0.3)"/><circle cx="1005.8" cy="246.1" r="6" fill="#3a1a20"/><circle cx="1003.7" cy="244.0" r="2.1" fill="rgba(255,255,255,0.3)"/><circle cx="273.6" cy="461.6" r="6" fill="#3a1a20"/><circle cx="271.5" cy="459.5" r="2.1" fill="rgba(255,255,255,0.3)"/><circle cx="1019.2" cy="210.3" r="6" fill="#3a1a20"/><circle cx="1017.1" cy="208.2" r="2.1" fill="rgba(255,255,255,0.3)"/><circle cx="1055.7" cy="419.4" r="6" fill="#3a1a20"/><circle cx="1053.6" cy="417.3" r="2.1" fill="rgba(255,255,255,0.3)"/><circle cx="740.4" cy="898.9" r="6" fill="#3a1a20"/><circle cx="738.3" cy="896.8" r="2.1" fill="rgba(255,255,255,0.3)"/><circle cx="130.5" cy="420.2" r="6" fill="#3a1a20"/><circle cx="128.4" cy="418.1" r="2.1" fill="rgba(255,255,255,0.3)"/><circle cx="349.9" cy="568.3" r="6" fill="#3a1a20"/><circle cx="347.8" cy="566.2" r="2.1" fill="rgba(255,255,255,0.3)"/><circle cx="771.2" cy="787.7" r="6" fill="#3a1a20"/><circle cx="769.1" cy="785.6" r="2.1" fill="rgba(255,255,255,0.3)"/><circle cx="794.6" cy="472.7" r="6" fill="#3a1a20"/><circle cx="792.5" cy="470.6" r="2.1" fill="rgba(255,255,255,0.3)"/><circle cx="380.5" cy="25.2" r="6" fill="#3a1a20"/><circle cx="378.4" cy="23.1" r="2.1" fill="rgba(255,255,255,0.3)"/><circle cx="686.3" cy="927.9" r="6" fill="#3a1a20"/><circle cx="684.2" cy="925.8" r="2.1" fill="rgba(255,255,255,0.3)"/><circle cx="656.7" cy="26.5" r="6" fill="#3a1a20"/><circle cx="654.6" cy="24.4" r="2.1" fill="rgba(255,255,255,0.3)"/><circle cx="808.5" cy="418.6" r="6" fill="#3a1a20"/><circle cx="806.4" cy="416.5" r="2.1" fill="rgba(255,255,255,0.3)"/><circle cx="592.5" cy="697.4" r="6" fill="#3a1a20"/><circle cx="590.4" cy="695.3" r="2.1" fill="rgba(255,255,255,0.3)"/><circle cx="371.2" cy="245.7" r="6" fill="#3a1a20"/><circle cx="369.1" cy="243.6" r="2.1" fill="rgba(255,255,255,0.3)"/><circle cx="1058.6" cy="54.7" r="6" fill="#3a1a20"/><circle cx="1056.5" cy="52.6" r="2.1" fill="rgba(255,255,255,0.3)"/><circle cx="317.7" cy="572.5" r="6" fill="#3a1a20"/><circle cx="315.6" cy="570.4" r="2.1" fill="rgba(255,255,255,0.3)"/><circle cx="29.7" cy="456.5" r="6" fill="#3a1a20"/><circle cx="27.6" cy="454.4" r="2.1" fill="rgba(255,255,255,0.3)"/><circle cx="824.6" cy="746.0" r="6" fill="#3a1a20"/><circle cx="822.5" cy="743.9" r="2.1" fill="rgba(255,255,255,0.3)"/><circle cx="278.6" cy="684.5" r="6" fill="#3a1a20"/><circle cx="276.5" cy="682.4" r="2.1" fill="rgba(255,255,255,0.3)"/><circle cx="543.8" cy="-81.3" r="6" fill="#3a1a20"/><circle cx="541.7" cy="-83.4" r="2.1" fill="rgba(255,255,255,0.3)"/><circle cx="508.8" cy="614.2" r="6" fill="#3a1a20"/><circle cx="506.7" cy="612.1" r="2.1" fill="rgba(255,255,255,0.3)"/><circle cx="347.9" cy="392.0" r="6" fill="#3a1a20"/><circle cx="345.8" cy="389.9" r="2.1" fill="rgba(255,255,255,0.3)"/><circle cx="87.5" cy="445.9" r="6" fill="#3a1a20"/><circle cx="85.4" cy="443.8" r="2.1" fill="rgba(255,255,255,0.3)"/>
<rect width="1200" height="800" fill="rgba(0,0,0,0.6)"/>
<text x="600" y="180" text-anchor="middle" font-family="Impact, sans-serif" font-size="110" fill="#ff4444" letter-spacing="8">YOU DIED</text>
<text x="600" y="220" text-anchor="middle" font-family="sans-serif" font-size="18" fill="#cfeaff">— final rank #3 on this build —</text>
<rect x="340" y="260" width="520" height="320" rx="14" fill="#1d2a4a" stroke="#3a5dbb" stroke-width="2"/>

                <text x="370" y="308" font-family="sans-serif" font-size="18" fill="#7d9aff">Survived</text>
                <text x="830" y="308" text-anchor="end" font-family="monospace" font-size="20" fill="#cfeaff">08:42</text>

                <text x="370" y="356" font-family="sans-serif" font-size="18" fill="#7d9aff">Kills</text>
                <text x="830" y="356" text-anchor="end" font-family="monospace" font-size="20" fill="#cfeaff">1,284</text>

                <text x="370" y="404" font-family="sans-serif" font-size="18" fill="#7d9aff">Level</text>
                <text x="830" y="404" text-anchor="end" font-family="monospace" font-size="20" fill="#cfeaff">23</text>

                <text x="370" y="452" font-family="sans-serif" font-size="18" fill="#7d9aff">Damage dealt</text>
                <text x="830" y="452" text-anchor="end" font-family="monospace" font-size="20" fill="#cfeaff">284,512</text>

                <text x="370" y="500" font-family="sans-serif" font-size="18" fill="#7d9aff">Best build</text>
                <text x="830" y="500" text-anchor="end" font-family="monospace" font-size="20" fill="#cfeaff">Whip · Orbit · Frost Nova</text>
<text x="600" y="562" text-anchor="middle" font-family="monospace" font-size="14" fill="#7df4d3">★ NO-HIT RUN · ★ EARLY EVOLVE · +2 achievements unlocked</text>
<rect x="340" y="598" width="520" height="60" rx="10" fill="rgba(0,0,0,0.4)" stroke="#2a3450"/>
<text x="360" y="620" font-family="monospace" font-size="12" fill="#506080">SPLITS</text>

                <text x="380" y="644" font-family="monospace" font-size="13" fill="#7df4d3">1:00</text>
                <text x="380" y="664" font-family="monospace" font-size="11" fill="#cfeaff">✓</text>

                <text x="490" y="644" font-family="monospace" font-size="13" fill="#7df4d3">3:00</text>
                <text x="490" y="664" font-family="monospace" font-size="11" fill="#cfeaff">✓</text>

                <text x="600" y="644" font-family="monospace" font-size="13" fill="#7df4d3">5:00</text>
                <text x="600" y="664" font-family="monospace" font-size="11" fill="#cfeaff">✓</text>

                <text x="710" y="644" font-family="monospace" font-size="13" fill="#7df4d3">7:30</text>
                <text x="710" y="664" font-family="monospace" font-size="11" fill="#cfeaff">✓</text>

                <text x="820" y="644" font-family="monospace" font-size="13" fill="#506080">10:00</text>
                <text x="820" y="664" font-family="monospace" font-size="11" fill="#3a4560">—</text>
<rect x="400" y="690" width="180" height="54" rx="10" fill="#3a5dbb"/>
<text x="490" y="725" text-anchor="middle" font-family="sans-serif" font-size="20" fill="#ffffff" font-weight="bold">Retry</text>
<rect x="620" y="690" width="180" height="54" rx="10" fill="#1d2a4a" stroke="#3a5dbb" stroke-width="2"/>
<text x="710" y="725" text-anchor="middle" font-family="sans-serif" font-size="20" fill="#cfeaff">Main Menu</text>
</svg>