<svg xmlns="http://www.w3.org/2000/svg" viewBox="0 0 1200 800" width="1200" height="800" >
<defs>
        <radialGradient id="bgCool" cx="50%" cy="50%" r="70%">
            <stop offset="0%" stop-color="#1a2344"/>
            <stop offset="100%" stop-color="#05070f"/>
        </radialGradient>
        <radialGradient id="bgWarm" cx="50%" cy="50%" r="70%">
            <stop offset="0%" stop-color="#3a0e1c"/>
            <stop offset="100%" stop-color="#0a0510"/>
        </radialGradient>
        <radialGradient id="heroGlow" cx="50%" cy="50%" r="50%">
            <stop offset="0%" stop-color="#9cd6ff" stop-opacity="0.7"/>
            <stop offset="60%" stop-color="#44aaff" stop-opacity="0.25"/>
            <stop offset="100%" stop-color="#44aaff" stop-opacity="0"/>
        </radialGradient>
        <radialGradient id="frostRing" cx="50%" cy="50%" r="50%">
            <stop offset="0%" stop-color="#aefbff" stop-opacity="0"/>
            <stop offset="78%" stop-color="#aefbff" stop-opacity="0.9"/>
            <stop offset="100%" stop-color="#aefbff" stop-opacity="0"/>
        </radialGradient>
        <linearGradient id="hpGrad" x1="0" x2="1">
            <stop offset="0%" stop-color="#ff7d9c"/>
            <stop offset="100%" stop-color="#ff3355"/>
        </linearGradient>
        <linearGradient id="expGrad" x1="0" x2="1">
            <stop offset="0%" stop-color="#7df4d3"/>
            <stop offset="100%" stop-color="#3ad0aa"/>
        </linearGradient>
        <filter id="soft" x="-20%" y="-20%" width="140%" height="140%">
            <feGaussianBlur stdDeviation="2.2"/>
        </filter>
        
    </defs>
<rect width="1200" height="800" fill="url(#bgCool)"/>
<line x1="0" y1="0" x2="0" y2="800" stroke="#1b2235" stroke-width="1" opacity="0.35"/><line x1="50" y1="0" x2="50" y2="800" stroke="#1b2235" stroke-width="1" opacity="0.35"/><line x1="100" y1="0" x2="100" y2="800" stroke="#1b2235" stroke-width="1" opacity="0.35"/><line x1="150" y1="0" x2="150" y2="800" stroke="#1b2235" stroke-width="1" opacity="0.35"/><line x1="200" y1="0" x2="200" y2="800" stroke="#1b2235" stroke-width="1" opacity="0.35"/><line x1="250" y1="0" x2="250" y2="800" stroke="#1b2235" stroke-width="1" opacity="0.35"/><line x1="300" y1="0" x2="300" y2="800" stroke="#1b2235" stroke-width="1" opacity="0.35"/><line x1="350" y1="0" x2="350" y2="800" stroke="#1b2235" stroke-width="1" opacity="0.35"/><line x1="400" y1="0" x2="400" y2="800" stroke="#1b2235" stroke-width="1" opacity="0.35"/><line x1="450" y1="0" x2="450" y2="800" stroke="#1b2235" stroke-width="1" opacity="0.35"/><line x1="500" y1="0" x2="500" y2="800" stroke="#1b2235" stroke-width="1" opacity="0.35"/><line x1="550" y1="0" x2="550" y2="800" stroke="#1b2235" stroke-width="1" opacity="0.35"/><line x1="600" y1="0" x2="600" y2="800" stroke="#1b2235" stroke-width="1" opacity="0.35"/><line x1="650" y1="0" x2="650" y2="800" stroke="#1b2235" stroke-width="1" opacity="0.35"/><line x1="700" y1="0" x2="700" y2="800" stroke="#1b2235" stroke-width="1" opacity="0.35"/><line x1="750" y1="0" x2="750" y2="800" stroke="#1b2235" stroke-width="1" opacity="0.35"/><line x1="800" y1="0" x2="800" y2="800" stroke="#1b2235" stroke-width="1" opacity="0.35"/><line x1="850" y1="0" x2="850" y2="800" stroke="#1b2235" stroke-width="1" opacity="0.35"/><line x1="900" y1="0" x2="900" y2="800" stroke="#1b2235" stroke-width="1" opacity="0.35"/><line x1="950" y1="0" x2="950" y2="800" stroke="#1b2235" stroke-width="1" opacity="0.35"/><line x1="1000" y1="0" x2="1000" y2="800" stroke="#1b2235" stroke-width="1" opacity="0.35"/><line x1="1050" y1="0" x2="1050" y2="800" stroke="#1b2235" stroke-width="1" opacity="0.35"/><line x1="1100" y1="0" x2="1100" y2="800" stroke="#1b2235" stroke-width="1" opacity="0.35"/><line x1="1150" y1="0" x2="1150" y2="800" stroke="#1b2235" stroke-width="1" opacity="0.35"/><line x1="1200" y1="0" x2="1200" y2="800" stroke="#1b2235" stroke-width="1" opacity="0.35"/><line x1="0" y1="0" x2="1200" y2="0" stroke="#1b2235" stroke-width="1" opacity="0.35"/><line x1="0" y1="50" x2="1200" y2="50" stroke="#1b2235" stroke-width="1" opacity="0.35"/><line x1="0" y1="100" x2="1200" y2="100" stroke="#1b2235" stroke-width="1" opacity="0.35"/><line x1="0" y1="150" x2="1200" y2="150" stroke="#1b2235" stroke-width="1" opacity="0.35"/><line x1="0" y1="200" x2="1200" y2="200" stroke="#1b2235" stroke-width="1" opacity="0.35"/><line x1="0" y1="250" x2="1200" y2="250" stroke="#1b2235" stroke-width="1" opacity="0.35"/><line x1="0" y1="300" x2="1200" y2="300" stroke="#1b2235" stroke-width="1" opacity="0.35"/><line x1="0" y1="350" x2="1200" y2="350" stroke="#1b2235" stroke-width="1" opacity="0.35"/><line x1="0" y1="400" x2="1200" y2="400" stroke="#1b2235" stroke-width="1" opacity="0.35"/><line x1="0" y1="450" x2="1200" y2="450" stroke="#1b2235" stroke-width="1" opacity="0.35"/><line x1="0" y1="500" x2="1200" y2="500" stroke="#1b2235" stroke-width="1" opacity="0.35"/><line x1="0" y1="550" x2="1200" y2="550" stroke="#1b2235" stroke-width="1" opacity="0.35"/><line x1="0" y1="600" x2="1200" y2="600" stroke="#1b2235" stroke-width="1" opacity="0.35"/><line x1="0" y1="650" x2="1200" y2="650" stroke="#1b2235" stroke-width="1" opacity="0.35"/><line x1="0" y1="700" x2="1200" y2="700" stroke="#1b2235" stroke-width="1" opacity="0.35"/><line x1="0" y1="750" x2="1200" y2="750" stroke="#1b2235" stroke-width="1" opacity="0.35"/><line x1="0" y1="800" x2="1200" y2="800" stroke="#1b2235" stroke-width="1" opacity="0.35"/>
<circle cx="763.1" cy="412.0" r="8" fill="#553344"/><circle cx="760.3" cy="409.2" r="2.8" fill="rgba(255,255,255,0.3)"/><circle cx="1001.4" cy="341.4" r="8" fill="#553344"/><circle cx="998.6" cy="338.6" r="2.8" fill="rgba(255,255,255,0.3)"/><circle cx="308.6" cy="360.5" r="8" fill="#553344"/><circle cx="305.8" cy="357.7" r="2.8" fill="rgba(255,255,255,0.3)"/><circle cx="374.0" cy="448.7" r="8" fill="#553344"/><circle cx="371.2" cy="445.9" r="2.8" fill="rgba(255,255,255,0.3)"/><circle cx="205.9" cy="262.8" r="8" fill="#553344"/><circle cx="203.1" cy="260.0" r="2.8" fill="rgba(255,255,255,0.3)"/><circle cx="590.2" cy="599.0" r="8" fill="#553344"/><circle cx="587.4" cy="596.2" r="2.8" fill="rgba(255,255,255,0.3)"/><circle cx="629.8" cy="64.3" r="8" fill="#553344"/><circle cx="627.0" cy="61.5" r="2.8" fill="rgba(255,255,255,0.3)"/><circle cx="691.2" cy="664.5" r="8" fill="#553344"/><circle cx="688.4" cy="661.7" r="2.8" fill="rgba(255,255,255,0.3)"/><circle cx="670.7" cy="581.3" r="8" fill="#553344"/><circle cx="667.9" cy="578.5" r="2.8" fill="rgba(255,255,255,0.3)"/><circle cx="741.3" cy="606.9" r="8" fill="#553344"/><circle cx="738.5" cy="604.1" r="2.8" fill="rgba(255,255,255,0.3)"/><circle cx="189.8" cy="272.7" r="8" fill="#553344"/><circle cx="187.0" cy="269.9" r="2.8" fill="rgba(255,255,255,0.3)"/><circle cx="1034.5" cy="619.7" r="8" fill="#553344"/><circle cx="1031.7" cy="616.9" r="2.8" fill="rgba(255,255,255,0.3)"/><circle cx="245.0" cy="275.4" r="8" fill="#553344"/><circle cx="242.2" cy="272.6" r="2.8" fill="rgba(255,255,255,0.3)"/><circle cx="672.7" cy="262.9" r="8" fill="#553344"/><circle cx="669.9" cy="260.1" r="2.8" fill="rgba(255,255,255,0.3)"/><circle cx="725.2" cy="645.6" r="8" fill="#553344"/><circle cx="722.4" cy="642.8" r="2.8" fill="rgba(255,255,255,0.3)"/><circle cx="468.3" cy="466.8" r="8" fill="#553344"/><circle cx="465.5" cy="464.0" r="2.8" fill="rgba(255,255,255,0.3)"/><circle cx="967.3" cy="627.0" r="8" fill="#553344"/><circle cx="964.5" cy="624.2" r="2.8" fill="rgba(255,255,255,0.3)"/><circle cx="394.6" cy="621.6" r="8" fill="#553344"/><circle cx="391.8" cy="618.8" r="2.8" fill="rgba(255,255,255,0.3)"/><circle cx="110.1" cy="497.7" r="8" fill="#553344"/><circle cx="107.3" cy="494.9" r="2.8" fill="rgba(255,255,255,0.3)"/><circle cx="466.3" cy="640.8" r="8" fill="#553344"/><circle cx="463.5" cy="638.0" r="2.8" fill="rgba(255,255,255,0.3)"/><circle cx="722.6" cy="546.0" r="8" fill="#553344"/><circle cx="719.8" cy="543.2" r="2.8" fill="rgba(255,255,255,0.3)"/><circle cx="824.3" cy="263.6" r="8" fill="#553344"/><circle cx="821.5" cy="260.8" r="2.8" fill="rgba(255,255,255,0.3)"/><circle cx="518.8" cy="533.9" r="8" fill="#553344"/><circle cx="516.0" cy="531.1" r="2.8" fill="rgba(255,255,255,0.3)"/><circle cx="166.3" cy="265.5" r="8" fill="#553344"/><circle cx="163.5" cy="262.7" r="2.8" fill="rgba(255,255,255,0.3)"/><circle cx="853.2" cy="629.0" r="8" fill="#553344"/><circle cx="850.4" cy="626.2" r="2.8" fill="rgba(255,255,255,0.3)"/><circle cx="1044.4" cy="287.4" r="8" fill="#553344"/><circle cx="1041.6" cy="284.6" r="2.8" fill="rgba(255,255,255,0.3)"/><circle cx="179.9" cy="117.5" r="8" fill="#553344"/><circle cx="177.1" cy="114.7" r="2.8" fill="rgba(255,255,255,0.3)"/><circle cx="941.2" cy="329.4" r="8" fill="#553344"/><circle cx="938.4" cy="326.6" r="2.8" fill="rgba(255,255,255,0.3)"/><circle cx="659.3" cy="270.8" r="8" fill="#553344"/><circle cx="656.5" cy="268.0" r="2.8" fill="rgba(255,255,255,0.3)"/><circle cx="336.7" cy="373.3" r="8" fill="#553344"/><circle cx="333.9" cy="370.5" r="2.8" fill="rgba(255,255,255,0.3)"/><circle cx="176.5" cy="239.8" r="8" fill="#553344"/><circle cx="173.7" cy="237.0" r="2.8" fill="rgba(255,255,255,0.3)"/><circle cx="252.5" cy="563.6" r="8" fill="#553344"/><circle cx="249.7" cy="560.8" r="2.8" fill="rgba(255,255,255,0.3)"/><circle cx="512.1" cy="612.6" r="8" fill="#553344"/><circle cx="509.3" cy="609.8" r="2.8" fill="rgba(255,255,255,0.3)"/><circle cx="748.9" cy="408.7" r="8" fill="#553344"/><circle cx="746.1" cy="405.9" r="2.8" fill="rgba(255,255,255,0.3)"/><circle cx="1028.1" cy="241.0" r="8" fill="#553344"/><circle cx="1025.3" cy="238.2" r="2.8" fill="rgba(255,255,255,0.3)"/><circle cx="500.8" cy="293.6" r="8" fill="#553344"/><circle cx="498.0" cy="290.8" r="2.8" fill="rgba(255,255,255,0.3)"/><circle cx="331.4" cy="151.3" r="8" fill="#553344"/><circle cx="328.6" cy="148.5" r="2.8" fill="rgba(255,255,255,0.3)"/><circle cx="276.7" cy="79.2" r="8" fill="#553344"/><circle cx="273.9" cy="76.4" r="2.8" fill="rgba(255,255,255,0.3)"/><circle cx="244.9" cy="384.5" r="8" fill="#553344"/><circle cx="242.1" cy="381.7" r="2.8" fill="rgba(255,255,255,0.3)"/><circle cx="754.3" cy="646.2" r="8" fill="#553344"/><circle cx="751.5" cy="643.4" r="2.8" fill="rgba(255,255,255,0.3)"/><circle cx="870.7" cy="79.3" r="8" fill="#553344"/><circle cx="867.9" cy="76.5" r="2.8" fill="rgba(255,255,255,0.3)"/><circle cx="275.3" cy="133.8" r="8" fill="#553344"/><circle cx="272.5" cy="131.0" r="2.8" fill="rgba(255,255,255,0.3)"/><circle cx="913.2" cy="309.8" r="8" fill="#553344"/><circle cx="910.4" cy="307.0" r="2.8" fill="rgba(255,255,255,0.3)"/><circle cx="263.6" cy="447.4" r="8" fill="#553344"/><circle cx="260.8" cy="444.6" r="2.8" fill="rgba(255,255,255,0.3)"/><circle cx="699.9" cy="613.0" r="8" fill="#553344"/><circle cx="697.1" cy="610.2" r="2.8" fill="rgba(255,255,255,0.3)"/><circle cx="301.9" cy="520.3" r="8" fill="#553344"/><circle cx="299.1" cy="517.5" r="2.8" fill="rgba(255,255,255,0.3)"/><circle cx="667.4" cy="524.1" r="8" fill="#553344"/><circle cx="664.6" cy="521.3" r="2.8" fill="rgba(255,255,255,0.3)"/><circle cx="669.3" cy="532.1" r="8" fill="#553344"/><circle cx="666.5" cy="529.3" r="2.8" fill="rgba(255,255,255,0.3)"/><circle cx="969.6" cy="695.1" r="8" fill="#553344"/><circle cx="966.8" cy="692.3" r="2.8" fill="rgba(255,255,255,0.3)"/><circle cx="761.9" cy="382.5" r="8" fill="#553344"/><circle cx="759.1" cy="379.7" r="2.8" fill="rgba(255,255,255,0.3)"/><circle cx="734.3" cy="661.4" r="8" fill="#553344"/><circle cx="731.5" cy="658.6" r="2.8" fill="rgba(255,255,255,0.3)"/><circle cx="181.7" cy="402.6" r="8" fill="#553344"/><circle cx="178.9" cy="399.8" r="2.8" fill="rgba(255,255,255,0.3)"/><circle cx="412.7" cy="603.9" r="8" fill="#553344"/><circle cx="409.9" cy="601.1" r="2.8" fill="rgba(255,255,255,0.3)"/><circle cx="705.7" cy="75.4" r="8" fill="#553344"/><circle cx="702.9" cy="72.6" r="2.8" fill="rgba(255,255,255,0.3)"/><circle cx="688.7" cy="116.9" r="8" fill="#553344"/><circle cx="685.9" cy="114.1" r="2.8" fill="rgba(255,255,255,0.3)"/><circle cx="368.0" cy="303.7" r="8" fill="#553344"/><circle cx="365.2" cy="300.9" r="2.8" fill="rgba(255,255,255,0.3)"/><circle cx="171.3" cy="325.8" r="8" fill="#553344"/><circle cx="168.5" cy="323.0" r="2.8" fill="rgba(255,255,255,0.3)"/><circle cx="806.7" cy="513.6" r="8" fill="#553344"/><circle cx="803.9" cy="510.8" r="2.8" fill="rgba(255,255,255,0.3)"/><circle cx="646.8" cy="100.3" r="8" fill="#553344"/><circle cx="644.0" cy="97.5" r="2.8" fill="rgba(255,255,255,0.3)"/><circle cx="597.7" cy="677.3" r="8" fill="#553344"/><circle cx="594.9" cy="674.5" r="2.8" fill="rgba(255,255,255,0.3)"/><circle cx="149.2" cy="465.7" r="8" fill="#553344"/><circle cx="146.4" cy="462.9" r="2.8" fill="rgba(255,255,255,0.3)"/><circle cx="179.7" cy="689.4" r="8" fill="#553344"/><circle cx="176.9" cy="686.6" r="2.8" fill="rgba(255,255,255,0.3)"/><circle cx="309.9" cy="303.2" r="8" fill="#553344"/><circle cx="307.1" cy="300.4" r="2.8" fill="rgba(255,255,255,0.3)"/><circle cx="418.3" cy="692.2" r="8" fill="#553344"/><circle cx="415.5" cy="689.4" r="2.8" fill="rgba(255,255,255,0.3)"/><circle cx="137.4" cy="174.3" r="8" fill="#553344"/><circle cx="134.6" cy="171.5" r="2.8" fill="rgba(255,255,255,0.3)"/><circle cx="777.7" cy="123.9" r="8" fill="#553344"/><circle cx="774.9" cy="121.1" r="2.8" fill="rgba(255,255,255,0.3)"/><circle cx="226.4" cy="556.7" r="8" fill="#553344"/><circle cx="223.6" cy="553.9" r="2.8" fill="rgba(255,255,255,0.3)"/><circle cx="917.0" cy="253.4" r="8" fill="#553344"/><circle cx="914.2" cy="250.6" r="2.8" fill="rgba(255,255,255,0.3)"/><circle cx="489.1" cy="231.5" r="8" fill="#553344"/><circle cx="486.3" cy="228.7" r="2.8" fill="rgba(255,255,255,0.3)"/><circle cx="499.4" cy="129.6" r="8" fill="#553344"/><circle cx="496.6" cy="126.8" r="2.8" fill="rgba(255,255,255,0.3)"/><circle cx="241.0" cy="104.1" r="8" fill="#553344"/><circle cx="238.2" cy="101.3" r="2.8" fill="rgba(255,255,255,0.3)"/><circle cx="412.0" cy="568.2" r="8" fill="#553344"/><circle cx="409.2" cy="565.4" r="2.8" fill="rgba(255,255,255,0.3)"/><circle cx="936.8" cy="615.3" r="8" fill="#553344"/><circle cx="934.0" cy="612.5" r="2.8" fill="rgba(255,255,255,0.3)"/>

        <circle cx="600" cy="400" r="60" fill="url(#heroGlow)"/>
        <circle cx="600" cy="400" r="20" fill="#44aaff"/>
        <circle cx="600" cy="400" r="11" fill="#cfeaff"/>
        <circle cx="596" cy="396" r="3" fill="#ffffff"/>
<rect width="1200" height="800" fill="rgba(0,0,0,0.7)"/>
<text x="600" y="180" text-anchor="middle" font-family="Impact, sans-serif" font-size="68" fill="#ffe066" letter-spacing="4">LEVEL UP!</text>
<text x="600" y="220" text-anchor="middle" font-family="sans-serif" font-size="20" fill="#cfeaff">Choose an upgrade — ↑↓ / click / tap</text>

                <rect x="170" y="300" width="260" height="320" rx="14" fill="#1d2a4a" stroke="#3a5dbb" stroke-width="2"/>
                <rect x="190" y="320" width="80" height="22" rx="4" fill="#3a5dbb"/>
                <text x="230" y="337" text-anchor="middle" font-family="monospace" font-size="13" fill="#cfeaff">WEAPON</text>
                <circle cx="300" cy="420" r="50" fill="#3a5dbb"/>
                <text x="300" y="438" text-anchor="middle" font-family="sans-serif" font-size="46" fill="#ffe066">⚔</text>
                <text x="300" y="510" text-anchor="middle" font-family="sans-serif" font-size="24" fill="#ffe066" font-weight="bold">Whip</text>
                <text x="300" y="538" text-anchor="middle" font-family="monospace" font-size="14" fill="#7d9aff">Lv 3 → 4</text>
                <text x="300" y="574" text-anchor="middle" font-family="sans-serif" font-size="15" fill="#cfeaff">Damage +25%</text>
                <rect x="210" y="590" width="180" height="14" rx="3" fill="rgba(255,255,255,0.08)"/>
                <rect x="210" y="590" width="40" height="14" rx="3" fill="#7df4d3"/>

                <rect x="470" y="300" width="260" height="320" rx="14" fill="#2a2450" stroke="#ffe066" stroke-width="3"/>
                <rect x="490" y="320" width="80" height="22" rx="4" fill="#3a5dbb"/>
                <text x="530" y="337" text-anchor="middle" font-family="monospace" font-size="13" fill="#cfeaff">WEAPON</text>
                <circle cx="600" cy="420" r="50" fill="#3a5dbb"/>
                <text x="600" y="438" text-anchor="middle" font-family="sans-serif" font-size="46" fill="#ffe066">❄</text>
                <text x="600" y="510" text-anchor="middle" font-family="sans-serif" font-size="24" fill="#ffe066" font-weight="bold">Frost Nova</text>
                <text x="600" y="538" text-anchor="middle" font-family="monospace" font-size="14" fill="#7d9aff">NEW</text>
                <text x="600" y="574" text-anchor="middle" font-family="sans-serif" font-size="15" fill="#cfeaff">New weapon — AoE + slow</text>
                <rect x="510" y="590" width="180" height="14" rx="3" fill="rgba(255,255,255,0.08)"/>
                <rect x="510" y="590" width="79" height="14" rx="3" fill="#7df4d3"/>

                <rect x="770" y="300" width="260" height="320" rx="14" fill="#1d2a4a" stroke="#3a5dbb" stroke-width="2"/>
                <rect x="790" y="320" width="80" height="22" rx="4" fill="#6b4a8c"/>
                <text x="830" y="337" text-anchor="middle" font-family="monospace" font-size="13" fill="#cfeaff">PASSIVE</text>
                <circle cx="900" cy="420" r="50" fill="#3a5dbb"/>
                <text x="900" y="438" text-anchor="middle" font-family="sans-serif" font-size="46" fill="#ffe066">🧲</text>
                <text x="900" y="510" text-anchor="middle" font-family="sans-serif" font-size="24" fill="#ffe066" font-weight="bold">Magnet</text>
                <text x="900" y="538" text-anchor="middle" font-family="monospace" font-size="14" fill="#7d9aff">Lv 2 → 3</text>
                <text x="900" y="574" text-anchor="middle" font-family="sans-serif" font-size="15" fill="#cfeaff">Pickup range +30%</text>
                <rect x="810" y="590" width="180" height="14" rx="3" fill="rgba(255,255,255,0.08)"/>
                <rect x="810" y="590" width="119" height="14" rx="3" fill="#7df4d3"/>
<text x="600" y="680" text-anchor="middle" font-family="monospace" font-size="13" fill="#7d9aff">press [1] [2] [3] or click a card · [R] to reroll (1 left)</text>
</svg>