<svg xmlns="http://www.w3.org/2000/svg" viewBox="0 0 1200 800" width="1200" height="800" >
<defs>
        <radialGradient id="bgCool" cx="50%" cy="50%" r="70%">
            <stop offset="0%" stop-color="#1a2344"/>
            <stop offset="100%" stop-color="#05070f"/>
        </radialGradient>
        <radialGradient id="bgWarm" cx="50%" cy="50%" r="70%">
            <stop offset="0%" stop-color="#3a0e1c"/>
            <stop offset="100%" stop-color="#0a0510"/>
        </radialGradient>
        <radialGradient id="heroGlow" cx="50%" cy="50%" r="50%">
            <stop offset="0%" stop-color="#9cd6ff" stop-opacity="0.7"/>
            <stop offset="60%" stop-color="#44aaff" stop-opacity="0.25"/>
            <stop offset="100%" stop-color="#44aaff" stop-opacity="0"/>
        </radialGradient>
        <radialGradient id="frostRing" cx="50%" cy="50%" r="50%">
            <stop offset="0%" stop-color="#aefbff" stop-opacity="0"/>
            <stop offset="78%" stop-color="#aefbff" stop-opacity="0.9"/>
            <stop offset="100%" stop-color="#aefbff" stop-opacity="0"/>
        </radialGradient>
        <linearGradient id="hpGrad" x1="0" x2="1">
            <stop offset="0%" stop-color="#ff7d9c"/>
            <stop offset="100%" stop-color="#ff3355"/>
        </linearGradient>
        <linearGradient id="expGrad" x1="0" x2="1">
            <stop offset="0%" stop-color="#7df4d3"/>
            <stop offset="100%" stop-color="#3ad0aa"/>
        </linearGradient>
        <filter id="soft" x="-20%" y="-20%" width="140%" height="140%">
            <feGaussianBlur stdDeviation="2.2"/>
        </filter>
        
    </defs>
<rect width="1200" height="800" fill="url(#bgCool)"/>
<line x1="0" y1="0" x2="0" y2="800" stroke="#1b2235" stroke-width="1" opacity="0.35"/><line x1="50" y1="0" x2="50" y2="800" stroke="#1b2235" stroke-width="1" opacity="0.35"/><line x1="100" y1="0" x2="100" y2="800" stroke="#1b2235" stroke-width="1" opacity="0.35"/><line x1="150" y1="0" x2="150" y2="800" stroke="#1b2235" stroke-width="1" opacity="0.35"/><line x1="200" y1="0" x2="200" y2="800" stroke="#1b2235" stroke-width="1" opacity="0.35"/><line x1="250" y1="0" x2="250" y2="800" stroke="#1b2235" stroke-width="1" opacity="0.35"/><line x1="300" y1="0" x2="300" y2="800" stroke="#1b2235" stroke-width="1" opacity="0.35"/><line x1="350" y1="0" x2="350" y2="800" stroke="#1b2235" stroke-width="1" opacity="0.35"/><line x1="400" y1="0" x2="400" y2="800" stroke="#1b2235" stroke-width="1" opacity="0.35"/><line x1="450" y1="0" x2="450" y2="800" stroke="#1b2235" stroke-width="1" opacity="0.35"/><line x1="500" y1="0" x2="500" y2="800" stroke="#1b2235" stroke-width="1" opacity="0.35"/><line x1="550" y1="0" x2="550" y2="800" stroke="#1b2235" stroke-width="1" opacity="0.35"/><line x1="600" y1="0" x2="600" y2="800" stroke="#1b2235" stroke-width="1" opacity="0.35"/><line x1="650" y1="0" x2="650" y2="800" stroke="#1b2235" stroke-width="1" opacity="0.35"/><line x1="700" y1="0" x2="700" y2="800" stroke="#1b2235" stroke-width="1" opacity="0.35"/><line x1="750" y1="0" x2="750" y2="800" stroke="#1b2235" stroke-width="1" opacity="0.35"/><line x1="800" y1="0" x2="800" y2="800" stroke="#1b2235" stroke-width="1" opacity="0.35"/><line x1="850" y1="0" x2="850" y2="800" stroke="#1b2235" stroke-width="1" opacity="0.35"/><line x1="900" y1="0" x2="900" y2="800" stroke="#1b2235" stroke-width="1" opacity="0.35"/><line x1="950" y1="0" x2="950" y2="800" stroke="#1b2235" stroke-width="1" opacity="0.35"/><line x1="1000" y1="0" x2="1000" y2="800" stroke="#1b2235" stroke-width="1" opacity="0.35"/><line x1="1050" y1="0" x2="1050" y2="800" stroke="#1b2235" stroke-width="1" opacity="0.35"/><line x1="1100" y1="0" x2="1100" y2="800" stroke="#1b2235" stroke-width="1" opacity="0.35"/><line x1="1150" y1="0" x2="1150" y2="800" stroke="#1b2235" stroke-width="1" opacity="0.35"/><line x1="1200" y1="0" x2="1200" y2="800" stroke="#1b2235" stroke-width="1" opacity="0.35"/><line x1="0" y1="0" x2="1200" y2="0" stroke="#1b2235" stroke-width="1" opacity="0.35"/><line x1="0" y1="50" x2="1200" y2="50" stroke="#1b2235" stroke-width="1" opacity="0.35"/><line x1="0" y1="100" x2="1200" y2="100" stroke="#1b2235" stroke-width="1" opacity="0.35"/><line x1="0" y1="150" x2="1200" y2="150" stroke="#1b2235" stroke-width="1" opacity="0.35"/><line x1="0" y1="200" x2="1200" y2="200" stroke="#1b2235" stroke-width="1" opacity="0.35"/><line x1="0" y1="250" x2="1200" y2="250" stroke="#1b2235" stroke-width="1" opacity="0.35"/><line x1="0" y1="300" x2="1200" y2="300" stroke="#1b2235" stroke-width="1" opacity="0.35"/><line x1="0" y1="350" x2="1200" y2="350" stroke="#1b2235" stroke-width="1" opacity="0.35"/><line x1="0" y1="400" x2="1200" y2="400" stroke="#1b2235" stroke-width="1" opacity="0.35"/><line x1="0" y1="450" x2="1200" y2="450" stroke="#1b2235" stroke-width="1" opacity="0.35"/><line x1="0" y1="500" x2="1200" y2="500" stroke="#1b2235" stroke-width="1" opacity="0.35"/><line x1="0" y1="550" x2="1200" y2="550" stroke="#1b2235" stroke-width="1" opacity="0.35"/><line x1="0" y1="600" x2="1200" y2="600" stroke="#1b2235" stroke-width="1" opacity="0.35"/><line x1="0" y1="650" x2="1200" y2="650" stroke="#1b2235" stroke-width="1" opacity="0.35"/><line x1="0" y1="700" x2="1200" y2="700" stroke="#1b2235" stroke-width="1" opacity="0.35"/><line x1="0" y1="750" x2="1200" y2="750" stroke="#1b2235" stroke-width="1" opacity="0.35"/><line x1="0" y1="800" x2="1200" y2="800" stroke="#1b2235" stroke-width="1" opacity="0.35"/>
<circle cx="752.5" cy="2.2" r="1.14" fill="#cfeaff" opacity="0.69"/><circle cx="1162.1" cy="224.9" r="1.26" fill="#cfeaff" opacity="0.56"/><circle cx="511.0" cy="795.9" r="1.04" fill="#cfeaff" opacity="0.44"/><circle cx="166.7" cy="323.0" r="0.75" fill="#cfeaff" opacity="0.28"/><circle cx="587.0" cy="53.9" r="0.95" fill="#cfeaff" opacity="0.58"/><circle cx="343.0" cy="152.7" r="0.46" fill="#cfeaff" opacity="0.41"/><circle cx="708.5" cy="638.9" r="0.81" fill="#cfeaff" opacity="0.30"/><circle cx="789.8" cy="436.9" r="1.46" fill="#cfeaff" opacity="0.30"/><circle cx="865.1" cy="363.3" r="1.48" fill="#cfeaff" opacity="0.70"/><circle cx="287.2" cy="605.6" r="0.61" fill="#cfeaff" opacity="0.36"/><circle cx="495.8" cy="199.4" r="0.61" fill="#cfeaff" opacity="0.56"/><circle cx="691.6" cy="101.8" r="0.77" fill="#cfeaff" opacity="0.22"/><circle cx="746.7" cy="692.6" r="0.73" fill="#cfeaff" opacity="0.69"/><circle cx="862.0" cy="321.8" r="0.82" fill="#cfeaff" opacity="0.54"/><circle cx="1143.2" cy="738.7" r="1.37" fill="#cfeaff" opacity="0.66"/><circle cx="1001.3" cy="747.1" r="0.56" fill="#cfeaff" opacity="0.22"/><circle cx="1042.4" cy="235.6" r="1.63" fill="#cfeaff" opacity="0.46"/><circle cx="1123.1" cy="563.5" r="0.63" fill="#cfeaff" opacity="0.54"/><circle cx="1138.7" cy="105.5" r="1.77" fill="#cfeaff" opacity="0.28"/><circle cx="466.0" cy="94.1" r="0.96" fill="#cfeaff" opacity="0.36"/><circle cx="789.1" cy="407.3" r="1.14" fill="#cfeaff" opacity="0.24"/><circle cx="969.6" cy="683.4" r="0.78" fill="#cfeaff" opacity="0.28"/><circle cx="363.9" cy="715.2" r="0.81" fill="#cfeaff" opacity="0.27"/><circle cx="785.5" cy="439.2" r="0.85" fill="#cfeaff" opacity="0.26"/><circle cx="169.6" cy="53.9" r="0.82" fill="#cfeaff" opacity="0.54"/><circle cx="781.7" cy="93.5" r="1.11" fill="#cfeaff" opacity="0.46"/><circle cx="254.2" cy="633.8" r="0.75" fill="#cfeaff" opacity="0.70"/><circle cx="1144.8" cy="696.0" r="0.41" fill="#cfeaff" opacity="0.29"/><circle cx="34.0" cy="787.4" r="0.86" fill="#cfeaff" opacity="0.56"/><circle cx="1038.5" cy="75.1" r="0.75" fill="#cfeaff" opacity="0.63"/><circle cx="954.3" cy="633.5" r="0.71" fill="#cfeaff" opacity="0.25"/><circle cx="179.0" cy="326.9" r="1.16" fill="#cfeaff" opacity="0.34"/><circle cx="1061.4" cy="249.8" r="1.67" fill="#cfeaff" opacity="0.63"/><circle cx="759.6" cy="535.3" r="0.73" fill="#cfeaff" opacity="0.39"/><circle cx="369.0" cy="163.7" r="0.77" fill="#cfeaff" opacity="0.67"/><circle cx="1159.5" cy="127.9" r="0.86" fill="#cfeaff" opacity="0.24"/><circle cx="43.9" cy="626.9" r="0.94" fill="#cfeaff" opacity="0.32"/><circle cx="178.1" cy="656.9" r="0.83" fill="#cfeaff" opacity="0.65"/><circle cx="631.1" cy="342.3" r="1.36" fill="#cfeaff" opacity="0.37"/><circle cx="294.3" cy="428.8" r="1.47" fill="#cfeaff" opacity="0.60"/><circle cx="60.7" cy="166.9" r="1.28" fill="#cfeaff" opacity="0.52"/><circle cx="35.9" cy="261.0" r="1.00" fill="#cfeaff" opacity="0.64"/><circle cx="778.6" cy="287.0" r="0.90" fill="#cfeaff" opacity="0.50"/><circle cx="16.3" cy="738.9" r="1.16" fill="#cfeaff" opacity="0.48"/><circle cx="771.1" cy="99.5" r="0.50" fill="#cfeaff" opacity="0.61"/><circle cx="169.8" cy="568.5" r="0.79" fill="#cfeaff" opacity="0.52"/><circle cx="352.4" cy="436.5" r="1.70" fill="#cfeaff" opacity="0.24"/><circle cx="132.2" cy="138.7" r="1.35" fill="#cfeaff" opacity="0.22"/><circle cx="633.8" cy="303.8" r="1.49" fill="#cfeaff" opacity="0.33"/><circle cx="100.3" cy="798.8" r="1.77" fill="#cfeaff" opacity="0.21"/><circle cx="1033.0" cy="89.9" r="0.95" fill="#cfeaff" opacity="0.50"/><circle cx="628.9" cy="307.6" r="1.40" fill="#cfeaff" opacity="0.27"/><circle cx="341.1" cy="772.7" r="1.27" fill="#cfeaff" opacity="0.47"/><circle cx="50.9" cy="130.9" r="1.27" fill="#cfeaff" opacity="0.32"/><circle cx="186.6" cy="512.1" r="1.26" fill="#cfeaff" opacity="0.21"/><circle cx="80.8" cy="25.0" r="0.96" fill="#cfeaff" opacity="0.54"/><circle cx="783.7" cy="638.7" r="1.30" fill="#cfeaff" opacity="0.54"/><circle cx="1149.9" cy="18.0" r="1.61" fill="#cfeaff" opacity="0.66"/><circle cx="31.7" cy="658.9" r="1.16" fill="#cfeaff" opacity="0.48"/><circle cx="449.7" cy="85.9" r="0.52" fill="#cfeaff" opacity="0.54"/>
<text x="600" y="220" text-anchor="middle" font-family="Impact, sans-serif" font-size="130" fill="#cfeaff" letter-spacing="8">SURVIVOR</text>
<text x="600" y="268" text-anchor="middle" font-family="monospace" font-size="20" fill="#7d9aff" letter-spacing="3">vampire-survivors style roguelite · zero deps</text>

                <rect x="420" y="340" width="360" height="54" rx="10" fill="#2a3e76" stroke="#ffe066" stroke-width="2"/>
                <text x="600" y="375" text-anchor="middle" font-family="sans-serif" font-size="22" fill="#ffe066">Start Run</text>

                <rect x="420" y="408" width="360" height="54" rx="10" fill="#1d2a4a" stroke="#3a5dbb" stroke-width="1"/>
                <text x="600" y="443" text-anchor="middle" font-family="sans-serif" font-size="22" fill="#cfeaff">Speedrun</text>

                <rect x="420" y="476" width="360" height="54" rx="10" fill="#1d2a4a" stroke="#3a5dbb" stroke-width="1"/>
                <text x="600" y="511" text-anchor="middle" font-family="sans-serif" font-size="22" fill="#cfeaff">Leaderboard</text>

                <rect x="420" y="544" width="360" height="54" rx="10" fill="#1d2a4a" stroke="#3a5dbb" stroke-width="1"/>
                <text x="600" y="579" text-anchor="middle" font-family="sans-serif" font-size="22" fill="#cfeaff">Achievements</text>

                <rect x="420" y="612" width="360" height="54" rx="10" fill="#1d2a4a" stroke="#3a5dbb" stroke-width="1"/>
                <text x="600" y="647" text-anchor="middle" font-family="sans-serif" font-size="22" fill="#cfeaff">Settings</text>

        <circle cx="160" cy="640" r="60" fill="url(#heroGlow)"/>
        <circle cx="160" cy="640" r="20" fill="#44aaff"/>
        <circle cx="160" cy="640" r="11" fill="#cfeaff"/>
        <circle cx="156" cy="636" r="3" fill="#ffffff"/>
<text x="40" y="776" font-family="monospace" font-size="14" fill="#506080">v2.5.0 · MIT</text>
<text x="600" y="776" text-anchor="middle" font-family="monospace" font-size="14" fill="#506080">github.com/ricardo-foundry/canvas-vampire-survivors</text>
<text x="1160" y="776" text-anchor="end" font-family="monospace" font-size="14" fill="#506080">⌨ ↑↓ + Enter</text>
</svg>